<?xml version="1.0" encoding="UTF-8" standalone="no"?>
<svg
   xmlns:dc="http://purl.org/dc/elements/1.1/"
   xmlns:cc="http://creativecommons.org/ns#"
   xmlns:rdf="http://www.w3.org/1999/02/22-rdf-syntax-ns#"
   xmlns:svg="http://www.w3.org/2000/svg"
   xmlns="http://www.w3.org/2000/svg"
   xmlns:sodipodi="http://sodipodi.sourceforge.net/DTD/sodipodi-0.dtd"
   xmlns:inkscape="http://www.inkscape.org/namespaces/inkscape"
   width="113.505"
   height="113.47375"
   id="svg2"
   version="1.1"
   inkscape:version="0.48.4 r9939"
   sodipodi:docname="608 Bearing Cap.DXF">
  <metadata
     id="metadata51">
    <rdf:RDF>
      <cc:Work
         rdf:about="">
        <dc:format>image/svg+xml</dc:format>
        <dc:type
           rdf:resource="http://purl.org/dc/dcmitype/StillImage" />
        <dc:title></dc:title>
      </cc:Work>
    </rdf:RDF>
  </metadata>
  <sodipodi:namedview
     pagecolor="#ffffff"
     bordercolor="#666666"
     borderopacity="1"
     objecttolerance="10"
     gridtolerance="10"
     guidetolerance="10"
     inkscape:pageopacity="0"
     inkscape:pageshadow="2"
     inkscape:window-width="1280"
     inkscape:window-height="753"
     id="namedview49"
     showgrid="false"
     fit-margin-top="0"
     fit-margin-left="0"
     fit-margin-right="0"
     fit-margin-bottom="0"
     inkscape:zoom="0.22425739"
     inkscape:cx="428.79975"
     inkscape:cy="582.91516"
     inkscape:window-x="0"
     inkscape:window-y="25"
     inkscape:window-maximized="1"
     inkscape:current-layer="g21" />
  <desc
     id="desc4">/home/tyler/Theta/DXFs/608 Bearing Cap.DXF - scale = 1.000000</desc>
  <defs
     id="defs6">
    <marker
       id="DistanceX"
       orient="auto"
       refX="0"
       refY="0"
       style="overflow:visible">
      <path
         d="M 3,-3 -3,3 M 0,-5 0,5"
         style="stroke:#000000;stroke-width:0.5"
         id="path9"
         inkscape:connector-curvature="0" />
    </marker>
    <pattern
       height="8"
       id="Hatch"
       patternUnits="userSpaceOnUse"
       width="8"
       x="0"
       y="0">
      <path
         d="M8 4 l-4,4"
         linecap="square"
         stroke="#000000"
         stroke-width="0.25"
         id="path12" />
      <path
         d="M6 2 l-4,4"
         linecap="square"
         stroke="#000000"
         stroke-width="0.25"
         id="path14" />
      <path
         d="M4 0 l-4,4"
         linecap="square"
         stroke="#000000"
         stroke-width="0.25"
         id="path16" />
    </pattern>
    <symbol
       id="*Model_Space" />
    <symbol
       id="*Paper_Space" />
    <symbol
       id="*Paper_Space0" />
  </defs>
  <g
     inkscape:groupmode="layer"
     inkscape:label="0"
     id="g21"
     transform="translate(56.752504,-995.6225)">
    <path
       d="m -30.31047,1087.7953 a 5.122601,5.122601 0 1 0 -10.245202,0 5.122601,5.122601 0 1 0 10.245202,0 z"
       style="fill:none;stroke:#ff0000;stroke-width:0.1;stroke-linecap:round"
       id="path23"
       inkscape:connector-curvature="0" />
    <path
       d="m 40.555672,1087.7953 a 5.122601,5.122601 0 1 0 -10.245202,0 5.122601,5.122601 0 1 0 10.245202,0 z"
       style="fill:none;stroke:#ff0000;stroke-width:0.1;stroke-linecap:round"
       id="path25"
       inkscape:connector-curvature="0" />
    <path
       d="m 40.555672,1016.9291 a 5.122601,5.122601 0 1 0 -10.245202,0 5.122601,5.122601 0 1 0 10.245202,0 z"
       style="fill:none;stroke:#ff0000;stroke-width:0.1;stroke-linecap:round"
       id="path27"
       inkscape:connector-curvature="0" />
    <path
       d="m -30.31047,1016.9291 a 5.122601,5.122601 0 1 0 -10.245202,0 5.122601,5.122601 0 1 0 10.245202,0 z"
       style="fill:none;stroke:#ff0000;stroke-width:0.1;stroke-linecap:round"
       id="path29"
       inkscape:connector-curvature="0" />
    <path
       d="m 28.346457,1052.3622 a 28.346457,28.346457 0 1 0 -56.692914,0 28.346457,28.346457 0 1 0 56.692914,0 z"
       style="fill:none;stroke:#ff0000;stroke-width:0.1;stroke-linecap:round"
       id="path31"
       inkscape:connector-curvature="0" />
    <path
       d="m -56.692913,1087.7953 a 21.259843,21.259843 0 0 0 21.259842,21.2598"
       style="fill:none;stroke:#ff0000;stroke-width:0.1;stroke-linecap:round"
       id="path33"
       inkscape:connector-curvature="0" />
    <path
       d="m -35.433071,1109.0551 70.866142,0"
       style="fill:none;stroke:#ff0000;stroke-width:0.1;stroke-linecap:round"
       id="path35"
       inkscape:connector-curvature="0" />
    <path
       d="m 35.433071,1109.0551 a 21.259843,21.259843 0 0 0 21.259842,-21.2598"
       style="fill:none;stroke:#ff0000;stroke-width:0.1;stroke-linecap:round"
       id="path37"
       inkscape:connector-curvature="0" />
    <path
       d="m 56.692913,1087.7953 0,-70.8662"
       style="fill:none;stroke:#ff0000;stroke-width:0.1;stroke-linecap:round"
       id="path39"
       inkscape:connector-curvature="0" />
    <path
       d="M 56.692913,1016.9291 A 21.259843,21.259843 0 0 0 35.433071,995.66929"
       style="fill:none;stroke:#ff0000;stroke-width:0.1;stroke-linecap:round"
       id="path41"
       inkscape:connector-curvature="0" />
    <path
       d="m 35.433071,995.66929 -70.866142,0"
       style="fill:none;stroke:#ff0000;stroke-width:0.1;stroke-linecap:round"
       id="path43"
       inkscape:connector-curvature="0" />
    <path
       d="m -35.433071,995.66929 a 21.259843,21.259843 0 0 0 -21.259842,21.25981"
       style="fill:none;stroke:#ff0000;stroke-width:0.1;stroke-linecap:round"
       id="path45"
       inkscape:connector-curvature="0" />
    <path
       d="m -56.692913,1016.9291 0,70.8662"
       style="fill:none;stroke:#ff0000;stroke-width:0.1;stroke-linecap:round"
       id="path47"
       inkscape:connector-curvature="0" />
  </g>
</svg>
