<?xml version="1.0" encoding="UTF-8" standalone="no"?>
<svg
   xmlns:dc="http://purl.org/dc/elements/1.1/"
   xmlns:cc="http://creativecommons.org/ns#"
   xmlns:rdf="http://www.w3.org/1999/02/22-rdf-syntax-ns#"
   xmlns:svg="http://www.w3.org/2000/svg"
   xmlns="http://www.w3.org/2000/svg"
   xmlns:sodipodi="http://sodipodi.sourceforge.net/DTD/sodipodi-0.dtd"
   xmlns:inkscape="http://www.inkscape.org/namespaces/inkscape"
   width="1133.9833"
   height="1133.9833"
   id="svg2"
   version="1.1"
   inkscape:version="0.48.4 r9939"
   sodipodi:docname="Platter Bottom.DXF">
  <metadata
     id="metadata47">
    <rdf:RDF>
      <cc:Work
         rdf:about="">
        <dc:format>image/svg+xml</dc:format>
        <dc:type
           rdf:resource="http://purl.org/dc/dcmitype/StillImage" />
        <dc:title></dc:title>
      </cc:Work>
    </rdf:RDF>
  </metadata>
  <sodipodi:namedview
     pagecolor="#ffffff"
     bordercolor="#666666"
     borderopacity="1"
     objecttolerance="10"
     gridtolerance="10"
     guidetolerance="10"
     inkscape:pageopacity="0"
     inkscape:pageshadow="2"
     inkscape:window-width="1280"
     inkscape:window-height="753"
     id="namedview45"
     showgrid="false"
     fit-margin-top="0"
     fit-margin-left="0"
     fit-margin-right="0"
     fit-margin-bottom="0"
     inkscape:zoom="0.22425739"
     inkscape:cx="939.03888"
     inkscape:cy="1093.1727"
     inkscape:window-x="0"
     inkscape:window-y="25"
     inkscape:window-maximized="1"
     inkscape:current-layer="g21" />
  <desc
     id="desc4">/home/tyler/Theta/DXFs/Platter Bottom.DXF - scale = 1.000000</desc>
  <defs
     id="defs6">
    <marker
       id="DistanceX"
       orient="auto"
       refX="0"
       refY="0"
       style="overflow:visible">
      <path
         d="M 3,-3 -3,3 M 0,-5 0,5"
         style="stroke:#000000;stroke-width:0.5"
         id="path9"
         inkscape:connector-curvature="0" />
    </marker>
    <pattern
       height="8"
       id="Hatch"
       patternUnits="userSpaceOnUse"
       width="8"
       x="0"
       y="0">
      <path
         d="M8 4 l-4,4"
         linecap="square"
         stroke="#000000"
         stroke-width="0.25"
         id="path12" />
      <path
         d="M6 2 l-4,4"
         linecap="square"
         stroke="#000000"
         stroke-width="0.25"
         id="path14" />
      <path
         d="M4 0 l-4,4"
         linecap="square"
         stroke="#000000"
         stroke-width="0.25"
         id="path16" />
    </pattern>
    <symbol
       id="*Model_Space" />
    <symbol
       id="*Paper_Space" />
    <symbol
       id="*Paper_Space0" />
  </defs>
  <g
     inkscape:groupmode="layer"
     inkscape:label="0"
     id="g21"
     transform="translate(566.99163,-485.37057)">
    <path
       d="m 5.314961,503.14961 a 5.314961,5.314961 0 1 0 -10.629922,0 5.314961,5.314961 0 1 0 10.629922,0 z"
       style="fill:none;stroke:#ff0000;stroke-width:0.1;stroke-linecap:round"
       id="path23"
       inkscape:connector-curvature="0" />
    <path
       d="m -543.89764,1052.3622 a 5.314961,5.314961 0 1 0 -10.62992,0 5.314961,5.314961 0 1 0 10.62992,0 z"
       style="fill:none;stroke:#ff0000;stroke-width:0.1;stroke-linecap:round"
       id="path25"
       inkscape:connector-curvature="0" />
    <path
       d="m 5.314961,1601.5748 a 5.314961,5.314961 0 1 0 -10.629922,0 5.314961,5.314961 0 1 0 10.629922,0 z"
       style="fill:none;stroke:#ff0000;stroke-width:0.1;stroke-linecap:round"
       id="path27"
       inkscape:connector-curvature="0" />
    <path
       d="m 13.29724,1075.3937 13.297241,-23.0315"
       style="fill:none;stroke:#ff0000;stroke-width:0.1;stroke-linecap:round"
       id="path29"
       inkscape:connector-curvature="0" />
    <path
       d="m -13.29724,1075.3937 26.59448,0"
       style="fill:none;stroke:#ff0000;stroke-width:0.1;stroke-linecap:round"
       id="path31"
       inkscape:connector-curvature="0" />
    <path
       d="m -26.594481,1052.3622 13.297241,23.0315"
       style="fill:none;stroke:#ff0000;stroke-width:0.1;stroke-linecap:round"
       id="path33"
       inkscape:connector-curvature="0" />
    <path
       d="m -13.29724,1029.3307 -13.297241,23.0315"
       style="fill:none;stroke:#ff0000;stroke-width:0.1;stroke-linecap:round"
       id="path35"
       inkscape:connector-curvature="0" />
    <path
       d="m 13.29724,1029.3307 -26.59448,0"
       style="fill:none;stroke:#ff0000;stroke-width:0.1;stroke-linecap:round"
       id="path37"
       inkscape:connector-curvature="0" />
    <path
       d="M 26.594481,1052.3622 13.29724,1029.3307"
       style="fill:none;stroke:#ff0000;stroke-width:0.1;stroke-linecap:round"
       id="path39"
       inkscape:connector-curvature="0" />
    <path
       d="m 554.52756,1052.3622 a 5.314961,5.314961 0 1 0 -10.62992,0 5.314961,5.314961 0 1 0 10.62992,0 z"
       style="fill:none;stroke:#ff0000;stroke-width:0.1;stroke-linecap:round"
       id="path41"
       inkscape:connector-curvature="0" />
    <path
       d="m 566.92913,1052.3622 a 566.92913,566.92913 0 1 0 -1133.85826,0 566.92913,566.92913 0 1 0 1133.85826,0 z"
       style="fill:none;stroke:#ff0000;stroke-width:0.1;stroke-linecap:round"
       id="path43"
       inkscape:connector-curvature="0" />
  </g>
</svg>
