<?xml version="1.0" encoding="UTF-8" standalone="no"?>
<!-- Created with Inkscape (http://www.inkscape.org/) -->

<svg
   xmlns:dc="http://purl.org/dc/elements/1.1/"
   xmlns:cc="http://creativecommons.org/ns#"
   xmlns:rdf="http://www.w3.org/1999/02/22-rdf-syntax-ns#"
   xmlns:svg="http://www.w3.org/2000/svg"
   xmlns="http://www.w3.org/2000/svg"
   xmlns:sodipodi="http://sodipodi.sourceforge.net/DTD/sodipodi-0.dtd"
   xmlns:inkscape="http://www.inkscape.org/namespaces/inkscape"
   width="1620"
   height="1350"
   id="svg2"
   version="1.1"
   inkscape:version="0.48.4 r9939"
   sodipodi:docname="Plywood Cut 5.svg">
  <defs
     id="defs4">
    <symbol
       id="*Paper_Space0" />
    <symbol
       id="*Paper_Space" />
    <symbol
       id="*Model_Space" />
    <pattern
       y="0"
       x="0"
       width="8"
       patternUnits="userSpaceOnUse"
       id="Hatch"
       height="8">
      <path
         id="path12"
         stroke-width="0.25"
         stroke="#000000"
         linecap="square"
         d="M8 4 l-4,4" />
      <path
         id="path14"
         stroke-width="0.25"
         stroke="#000000"
         linecap="square"
         d="M6 2 l-4,4" />
      <path
         id="path16"
         stroke-width="0.25"
         stroke="#000000"
         linecap="square"
         d="M4 0 l-4,4" />
    </pattern>
    <marker
       style="overflow:visible"
       refY="0"
       refX="0"
       orient="auto"
       id="DistanceX">
      <path
         inkscape:connector-curvature="0"
         id="path9"
         style="stroke:#000000;stroke-width:0.5"
         d="M 3,-3 -3,3 M 0,-5 0,5" />
    </marker>
    <symbol
       id="*Paper_Space0-0" />
    <symbol
       id="*Paper_Space-9" />
    <symbol
       id="*Model_Space-8" />
    <pattern
       y="0"
       x="0"
       width="8"
       patternUnits="userSpaceOnUse"
       id="Hatch-9"
       height="8">
      <path
         id="path12-4"
         stroke-width="0.25"
         stroke="#000000"
         linecap="square"
         d="M8 4 l-4,4" />
      <path
         id="path14-8"
         stroke-width="0.25"
         stroke="#000000"
         linecap="square"
         d="M6 2 l-4,4" />
      <path
         id="path16-7"
         stroke-width="0.25"
         stroke="#000000"
         linecap="square"
         d="M4 0 l-4,4" />
    </pattern>
    <marker
       style="overflow:visible"
       refY="0"
       refX="0"
       orient="auto"
       id="DistanceX-9">
      <path
         inkscape:connector-curvature="0"
         id="path9-6"
         style="stroke:#000000;stroke-width:0.5"
         d="M 3,-3 -3,3 M 0,-5 0,5" />
    </marker>
    <symbol
       id="*Paper_Space0-1" />
    <symbol
       id="*Paper_Space-2" />
    <symbol
       id="*Model_Space-9" />
    <pattern
       y="0"
       x="0"
       width="8"
       patternUnits="userSpaceOnUse"
       id="Hatch-1"
       height="8">
      <path
         id="path12-1"
         stroke-width="0.25"
         stroke="#000000"
         linecap="square"
         d="M8 4 l-4,4" />
      <path
         id="path14-81"
         stroke-width="0.25"
         stroke="#000000"
         linecap="square"
         d="M6 2 l-4,4" />
      <path
         id="path16-9"
         stroke-width="0.25"
         stroke="#000000"
         linecap="square"
         d="M4 0 l-4,4" />
    </pattern>
    <marker
       style="overflow:visible"
       refY="0"
       refX="0"
       orient="auto"
       id="DistanceX-94">
      <path
         inkscape:connector-curvature="0"
         id="path9-4"
         style="stroke:#000000;stroke-width:0.5"
         d="M 3,-3 -3,3 M 0,-5 0,5" />
    </marker>
    <symbol
       id="*Paper_Space0-7" />
    <symbol
       id="*Paper_Space-4" />
    <symbol
       id="*Model_Space-85" />
    <pattern
       y="0"
       x="0"
       width="8"
       patternUnits="userSpaceOnUse"
       id="Hatch-3"
       height="8">
      <path
         id="path12-2"
         stroke-width="0.25"
         stroke="#000000"
         linecap="square"
         d="M8 4 l-4,4" />
      <path
         id="path14-0"
         stroke-width="0.25"
         stroke="#000000"
         linecap="square"
         d="M6 2 l-4,4" />
      <path
         id="path16-6"
         stroke-width="0.25"
         stroke="#000000"
         linecap="square"
         d="M4 0 l-4,4" />
    </pattern>
    <marker
       style="overflow:visible"
       refY="0"
       refX="0"
       orient="auto"
       id="DistanceX-0">
      <path
         inkscape:connector-curvature="0"
         id="path9-9"
         style="stroke:#000000;stroke-width:0.5"
         d="M 3,-3 -3,3 M 0,-5 0,5" />
    </marker>
    <symbol
       id="*Paper_Space0-4" />
    <symbol
       id="*Paper_Space-93" />
    <symbol
       id="*Model_Space-1" />
    <pattern
       y="0"
       x="0"
       width="8"
       patternUnits="userSpaceOnUse"
       id="Hatch-13"
       height="8">
      <path
         id="path12-10"
         stroke-width="0.25"
         stroke="#000000"
         linecap="square"
         d="M8 4 l-4,4" />
      <path
         id="path14-3"
         stroke-width="0.25"
         stroke="#000000"
         linecap="square"
         d="M6 2 l-4,4" />
      <path
         id="path16-8"
         stroke-width="0.25"
         stroke="#000000"
         linecap="square"
         d="M4 0 l-4,4" />
    </pattern>
    <marker
       style="overflow:visible"
       refY="0"
       refX="0"
       orient="auto"
       id="DistanceX-3">
      <path
         inkscape:connector-curvature="0"
         id="path9-1"
         style="stroke:#000000;stroke-width:0.5"
         d="M 3,-3 -3,3 M 0,-5 0,5" />
    </marker>
    <symbol
       id="*Paper_Space0-78" />
    <symbol
       id="*Paper_Space-7" />
    <symbol
       id="*Model_Space-98" />
    <pattern
       y="0"
       x="0"
       width="8"
       patternUnits="userSpaceOnUse"
       id="Hatch-4"
       height="8">
      <path
         id="path12-7"
         stroke-width="0.25"
         stroke="#000000"
         linecap="square"
         d="M8 4 l-4,4" />
      <path
         id="path14-1"
         stroke-width="0.25"
         stroke="#000000"
         linecap="square"
         d="M6 2 l-4,4" />
      <path
         id="path16-0"
         stroke-width="0.25"
         stroke="#000000"
         linecap="square"
         d="M4 0 l-4,4" />
    </pattern>
    <marker
       style="overflow:visible"
       refY="0"
       refX="0"
       orient="auto"
       id="DistanceX-4">
      <path
         inkscape:connector-curvature="0"
         id="path9-3"
         style="stroke:#000000;stroke-width:0.5"
         d="M 3,-3 -3,3 M 0,-5 0,5" />
    </marker>
  </defs>
  <sodipodi:namedview
     id="base"
     pagecolor="#ffffff"
     bordercolor="#666666"
     borderopacity="1.0"
     inkscape:pageopacity="0.0"
     inkscape:pageshadow="2"
     inkscape:zoom="0.35"
     inkscape:cx="546.44699"
     inkscape:cy="652.74725"
     inkscape:document-units="mm"
     inkscape:current-layer="layer1"
     showgrid="false"
     units="in"
     inkscape:window-width="1416"
     inkscape:window-height="749"
     inkscape:window-x="3097"
     inkscape:window-y="151"
     inkscape:window-maximized="0" />
  <metadata
     id="metadata7">
    <rdf:RDF>
      <cc:Work
         rdf:about="">
        <dc:format>image/svg+xml</dc:format>
        <dc:type
           rdf:resource="http://purl.org/dc/dcmitype/StillImage" />
        <dc:title></dc:title>
      </cc:Work>
    </rdf:RDF>
  </metadata>
  <g
     inkscape:label="Layer 1"
     inkscape:groupmode="layer"
     id="layer1"
     transform="translate(0,297.64025)">
    <g
       transform="translate(580,-765.71674)"
       id="g21"
       inkscape:label="0">
      <path
         inkscape:connector-curvature="0"
         id="path23"
         style="fill:none;stroke:#ff0000;stroke-width:0.1;stroke-linecap:round"
         d="m 5.314961,1601.5748 a 5.314961,5.314961 0 1 0 -10.629922,0 5.314961,5.314961 0 1 0 10.629922,0 z" />
      <path
         inkscape:connector-curvature="0"
         id="path25"
         style="fill:none;stroke:#ff0000;stroke-width:0.1;stroke-linecap:round"
         d="m -543.89764,1052.3622 a 5.314961,5.314961 0 1 0 -10.62992,0 5.314961,5.314961 0 1 0 10.62992,0 z" />
      <path
         inkscape:connector-curvature="0"
         id="path27"
         style="fill:none;stroke:#ff0000;stroke-width:0.1;stroke-linecap:round"
         d="m 5.314961,503.14961 a 5.314961,5.314961 0 1 0 -10.629922,0 5.314961,5.314961 0 1 0 10.629922,0 z" />
      <path
         inkscape:connector-curvature="0"
         id="path29"
         style="fill:none;stroke:#ff0000;stroke-width:0.1;stroke-linecap:round"
         d="m 554.52756,1052.3622 a 5.314961,5.314961 0 1 0 -10.62992,0 5.314961,5.314961 0 1 0 10.62992,0 z" />
      <path
         inkscape:connector-curvature="0"
         id="path31"
         style="fill:none;stroke:#ff0000;stroke-width:0.1;stroke-linecap:round"
         d="m 566.92913,1052.3622 a 566.92913,566.92913 0 1 0 -1133.85826,0 566.92913,566.92913 0 1 0 1133.85826,0 z" />
    </g>
  </g>
</svg>
