  0
SECTION
  2
HEADER
  9
$ACADVER
  1
AC1024
  9
$ACADMAINTVER
 70
     6
  9
$DWGCODEPAGE
  3
ANSI_1252
  9
$INSBASE
 10
0.0
 20
0.0
 30
0.0
  9
$EXTMIN
 10
-142.4367876476
 20
19.5181088711
 30
0.0
  9
$EXTMAX
 10
8.0
 20
143.8298790623
 30
0.0
  9
$LIMMIN
 10
0.0
 20
0.0
  9
$LIMMAX
 10
420.0
 20
297.0
  9
$ORTHOMODE
 70
     0
  9
$REGENMODE
 70
     1
  9
$FILLMODE
 70
     1
  9
$QTEXTMODE
 70
     0
  9
$MIRRTEXT
 70
     1
  9
$LTSCALE
 40
1.0
  9
$ATTMODE
 70
     1
  9
$TEXTSIZE
 40
3.5
  9
$TRACEWID
 40
1.0
  9
$TEXTSTYLE
  7
Standard
  9
$CLAYER
  8
0
  9
$CELTYPE
  6
ByLayer
  9
$CECOLOR
 62
   256
  9
$CELTSCALE
 40
1.0
  9
$DISPSILH
 70
     0
  9
$DIMSCALE
 40
1.0
  9
$DIMASZ
 40
3.302
  9
$DIMEXO
 40
1.0
  9
$DIMDLI
 40
3.75
  9
$DIMRND
 40
0.0
  9
$DIMDLE
 40
0.0
  9
$DIMEXE
 40
1.0
  9
$DIMTP
 40
0.0
  9
$DIMTM
 40
0.0
  9
$DIMTXT
 40
3.5
  9
$DIMCEN
 40
2.5
  9
$DIMTSZ
 40
0.0
  9
$DIMTOL
 70
     0
  9
$DIMLIM
 70
     0
  9
$DIMTIH
 70
     1
  9
$DIMTOH
 70
     1
  9
$DIMSE1
 70
     0
  9
$DIMSE2
 70
     0
  9
$DIMTAD
 70
     1
  9
$DIMZIN
 70
     0
  9
$DIMBLK
  1

  9
$DIMASO
 70
     1
  9
$DIMSHO
 70
     1
  9
$DIMPOST
  1

  9
$DIMAPOST
  1

  9
$DIMALT
 70
     0
  9
$DIMALTD
 70
     3
  9
$DIMALTF
 40
0.0393700787
  9
$DIMLFAC
 40
1.0
  9
$DIMTOFL
 70
     1
  9
$DIMTVP
 40
0.0
  9
$DIMTIX
 70
     0
  9
$DIMSOXD
 70
     0
  9
$DIMSAH
 70
     0
  9
$DIMBLK1
  1

  9
$DIMBLK2
  1

  9
$DIMSTYLE
  2
ISO-25
  9
$DIMCLRD
 70
     0
  9
$DIMCLRE
 70
     0
  9
$DIMCLRT
 70
     0
  9
$DIMTFAC
 40
1.0
  9
$DIMGAP
 40
1.524
  9
$DIMJUST
 70
     0
  9
$DIMSD1
 70
     0
  9
$DIMSD2
 70
     0
  9
$DIMTOLJ
 70
     0
  9
$DIMTZIN
 70
     0
  9
$DIMALTZ
 70
     0
  9
$DIMALTTZ
 70
     0
  9
$DIMUPT
 70
     0
  9
$DIMDEC
 70
     2
  9
$DIMTDEC
 70
     2
  9
$DIMALTU
 70
     2
  9
$DIMALTTD
 70
     3
  9
$DIMTXSTY
  7
Standard
  9
$DIMAUNIT
 70
     0
  9
$DIMADEC
 70
     2
  9
$DIMALTRND
 40
0.0
  9
$DIMAZIN
 70
     0
  9
$DIMDSEP
 70
    44
  9
$DIMATFIT
 70
     3
  9
$DIMFRAC
 70
     0
  9
$DIMLDRBLK
  1

  9
$DIMLUNIT
 70
     2
  9
$DIMLWD
 70
    -2
  9
$DIMLWE
 70
    -2
  9
$DIMTMOVE
 70
     0
  9
$DIMFXL
 40
1.0
  9
$DIMFXLON
 70
     0
  9
$DIMJOGANG
 40
0.7853981634
  9
$DIMTFILL
 70
     0
  9
$DIMTFILLCLR
 70
     0
  9
$DIMARCSYM
 70
     0
  9
$DIMLTYPE
  6

  9
$DIMLTEX1
  6

  9
$DIMLTEX2
  6

  9
$DIMTXTDIRECTION
 70
     0
  9
$LUNITS
 70
     2
  9
$LUPREC
 70
     2
  9
$SKETCHINC
 40
1.0
  9
$FILLETRAD
 40
10.0
  9
$AUNITS
 70
     0
  9
$AUPREC
 70
     2
  9
$MENU
  1
.
  9
$ELEVATION
 40
0.0
  9
$PELEVATION
 40
0.0
  9
$THICKNESS
 40
0.0
  9
$LIMCHECK
 70
     0
  9
$CHAMFERA
 40
10.0
  9
$CHAMFERB
 40
10.0
  9
$CHAMFERC
 40
20.0
  9
$CHAMFERD
 40
0.0
  9
$SKPOLY
 70
     0
  9
$TDCREATE
 40
2456349.572467974
  9
$TDUCREATE
 40
2456349.905801308
  9
$TDUPDATE
 40
2456349.572480451
  9
$TDUUPDATE
 40
2456349.905813785
  9
$TDINDWG
 40
0.0000000116
  9
$TDUSRTIMER
 40
0.0000000116
  9
$USRTIMER
 70
     1
  9
$ANGBASE
 50
0.0
  9
$ANGDIR
 70
     0
  9
$PDMODE
 70
     0
  9
$PDSIZE
 40
-1.0
  9
$PLINEWID
 40
0.0
  9
$SPLFRAME
 70
     0
  9
$SPLINETYPE
 70
     6
  9
$SPLINESEGS
 70
     8
  9
$HANDSEED
  5
2D1
  9
$SURFTAB1
 70
     6
  9
$SURFTAB2
 70
     6
  9
$SURFTYPE
 70
     6
  9
$SURFU
 70
     6
  9
$SURFV
 70
     6
  9
$UCSBASE
  2

  9
$UCSNAME
  2

  9
$UCSORG
 10
0.0
 20
0.0
 30
0.0
  9
$UCSXDIR
 10
1.0
 20
0.0
 30
0.0
  9
$UCSYDIR
 10
0.0
 20
1.0
 30
0.0
  9
$UCSORTHOREF
  2

  9
$UCSORTHOVIEW
 70
     0
  9
$UCSORGTOP
 10
0.0
 20
0.0
 30
0.0
  9
$UCSORGBOTTOM
 10
0.0
 20
0.0
 30
0.0
  9
$UCSORGLEFT
 10
0.0
 20
0.0
 30
0.0
  9
$UCSORGRIGHT
 10
0.0
 20
0.0
 30
0.0
  9
$UCSORGFRONT
 10
0.0
 20
0.0
 30
0.0
  9
$UCSORGBACK
 10
0.0
 20
0.0
 30
0.0
  9
$PUCSBASE
  2

  9
$PUCSNAME
  2

  9
$PUCSORG
 10
0.0
 20
0.0
 30
0.0
  9
$PUCSXDIR
 10
1.0
 20
0.0
 30
0.0
  9
$PUCSYDIR
 10
0.0
 20
1.0
 30
0.0
  9
$PUCSORTHOREF
  2

  9
$PUCSORTHOVIEW
 70
     0
  9
$PUCSORGTOP
 10
0.0
 20
0.0
 30
0.0
  9
$PUCSORGBOTTOM
 10
0.0
 20
0.0
 30
0.0
  9
$PUCSORGLEFT
 10
0.0
 20
0.0
 30
0.0
  9
$PUCSORGRIGHT
 10
0.0
 20
0.0
 30
0.0
  9
$PUCSORGFRONT
 10
0.0
 20
0.0
 30
0.0
  9
$PUCSORGBACK
 10
0.0
 20
0.0
 30
0.0
  9
$USERI1
 70
     0
  9
$USERI2
 70
     0
  9
$USERI3
 70
     0
  9
$USERI4
 70
     0
  9
$USERI5
 70
     0
  9
$USERR1
 40
0.0
  9
$USERR2
 40
0.0
  9
$USERR3
 40
0.0
  9
$USERR4
 40
0.0
  9
$USERR5
 40
0.0
  9
$WORLDVIEW
 70
     1
  9
$SHADEDGE
 70
     3
  9
$SHADEDIF
 70
    70
  9
$TILEMODE
 70
     1
  9
$MAXACTVP
 70
    64
  9
$PINSBASE
 10
0.0
 20
0.0
 30
0.0
  9
$PLIMCHECK
 70
     0
  9
$PEXTMIN
 10
1.0000000000E+20
 20
1.0000000000E+20
 30
1.0000000000E+20
  9
$PEXTMAX
 10
-1.0000000000E+20
 20
-1.0000000000E+20
 30
-1.0000000000E+20
  9
$PLIMMIN
 10
0.0
 20
0.0
  9
$PLIMMAX
 10
420.0
 20
297.0
  9
$UNITMODE
 70
     0
  9
$VISRETAIN
 70
     1
  9
$PLINEGEN
 70
     0
  9
$PSLTSCALE
 70
     1
  9
$TREEDEPTH
 70
  3020
  9
$CMLSTYLE
  2
Standard
  9
$CMLJUST
 70
     0
  9
$CMLSCALE
 40
20.0
  9
$PROXYGRAPHICS
 70
     1
  9
$MEASUREMENT
 70
     1
  9
$CELWEIGHT
370
    -1
  9
$ENDCAPS
280
     0
  9
$JOINSTYLE
280
     0
  9
$LWDISPLAY
290
     1
  9
$INSUNITS
 70
     4
  9
$HYPERLINKBASE
  1

  9
$STYLESHEET
  1

  9
$XEDIT
290
     1
  9
$CEPSNTYPE
380
     0
  9
$PSTYLEMODE
290
     1
  9
$FINGERPRINTGUID
  2
{C124F11F-BBBE-4951-A0C4-E828D457B843}
  9
$VERSIONGUID
  2
{FAEB1C32-E019-11D5-929B-00C0DF256EC4}
  9
$EXTNAMES
290
     1
  9
$PSVPSCALE
 40
0.0
  9
$OLESTARTUP
290
     0
  9
$SORTENTS
280
   127
  9
$INDEXCTL
280
     0
  9
$HIDETEXT
280
     1
  9
$XCLIPFRAME
280
     2
  9
$HALOGAP
280
     0
  9
$OBSCOLOR
 70
   257
  9
$OBSLTYPE
280
     0
  9
$INTERSECTIONDISPLAY
280
     0
  9
$INTERSECTIONCOLOR
 70
   257
  9
$DIMASSOC
280
     2
  9
$PROJECTNAME
  1

  9
$CAMERADISPLAY
290
     0
  9
$LENSLENGTH
 40
50.0
  9
$CAMERAHEIGHT
 40
0.0
  9
$STEPSPERSEC
 40
2.0
  9
$STEPSIZE
 40
6.0
  9
$3DDWFPREC
 40
2.0
  9
$PSOLWIDTH
 40
5.0
  9
$PSOLHEIGHT
 40
80.0
  9
$LOFTANG1
 40
1.5707963268
  9
$LOFTANG2
 40
1.5707963268
  9
$LOFTMAG1
 40
0.0
  9
$LOFTMAG2
 40
0.0
  9
$LOFTPARAM
 70
     7
  9
$LOFTNORMALS
280
     1
  9
$LATITUDE
 40
37.795
  9
$LONGITUDE
 40
-122.394
  9
$NORTHDIRECTION
 40
0.0
  9
$TIMEZONE
 70
 -8000
  9
$LIGHTGLYPHDISPLAY
280
     1
  9
$TILEMODELIGHTSYNCH
280
     1
  9
$SOLIDHIST
280
     1
  9
$SHOWHIST
280
     1
  9
$DWFFRAME
280
     2
  9
$DGNFRAME
280
     2
  9
$REALWORLDSCALE
290
     1
  9
$INTERFERECOLOR
 62
   256
  9
$CSHADOW
280
     0
  9
$SHADOWPLANELOCATION
 40
0.0
  0
ENDSEC
  0
SECTION
  2
CLASSES
  0
CLASS
  1
ACDBDICTIONARYWDFLT
  2
AcDbDictionaryWithDefault
  3
ObjectDBX Classes
 90
        0
 91
        5
280
     0
281
     0
  0
CLASS
  1
VISUALSTYLE
  2
AcDbVisualStyle
  3
ObjectDBX Classes
 90
     4095
 91
        5
280
     0
281
     0
  0
CLASS
  1
MATERIAL
  2
AcDbMaterial
  3
ObjectDBX Classes
 90
     1153
 91
        5
280
     0
281
     0
  0
ENDSEC
  0
SECTION
  2
TABLES
  0
TABLE
  2
VPORT
  5
8
330
0
100
AcDbSymbolTable
 70
     1
  0
VPORT
  5
29
330
8
100
AcDbSymbolTableRecord
100
AcDbViewportTableRecord
  2
*Active
 70
     0
 10
0.0
 20
0.0
 11
1.0
 21
1.0
 12
-67.2183938238
 22
81.6739939667
 13
0.0
 23
0.0
 14
10.0
 24
10.0
 15
10.0
 25
10.0
 16
0.0
 26
0.0
 36
1.0
 17
0.0
 27
0.0
 37
0.0
 40
126.798005595
 41
1.2101572314
 42
50.0
 43
0.0
 44
0.0
 50
0.0
 51
0.0
 71
     0
 72
   100
 73
     1
 74
     3
 75
     0
 76
     0
 77
     0
 78
     0
281
     0
 65
     1
110
0.0
120
0.0
130
0.0
111
1.0
121
0.0
131
0.0
112
0.0
122
1.0
132
0.0
 79
     0
146
0.0
 60
     3
 61
     5
292
     1
282
     1
141
0.0
142
0.0
 63
   250
  0
ENDTAB
  0
TABLE
  2
LTYPE
  5
5
330
0
100
AcDbSymbolTable
 70
     6
  0
LTYPE
  5
14
330
5
100
AcDbSymbolTableRecord
100
AcDbLinetypeTableRecord
  2
ByBlock
 70
     0
  3

 72
    65
 73
     0
 40
0.0
  0
LTYPE
  5
15
330
5
100
AcDbSymbolTableRecord
100
AcDbLinetypeTableRecord
  2
ByLayer
 70
     0
  3

 72
    65
 73
     0
 40
0.0
  0
LTYPE
  5
16
330
5
100
AcDbSymbolTableRecord
100
AcDbLinetypeTableRecord
  2
Continuous
 70
     0
  3
Solid line
 72
    65
 73
     0
 40
0.0
  0
LTYPE
  5
3F
330
5
100
AcDbSymbolTableRecord
100
AcDbLinetypeTableRecord
  2
HIDDEN
 70
     0
  3
Hidden __ __ __ __ __ __ __ __ __ __ __ __ __ __
 72
    65
 73
     2
 40
1.905
 49
1.27
 74
     0
 49
-0.635
 74
     0
  0
LTYPE
  5
40
330
5
100
AcDbSymbolTableRecord
100
AcDbLinetypeTableRecord
  2
PHANTOM
 70
     0
  3
Phantom ______  __  __  ______  __  __  ______
 72
    65
 73
     6
 40
12.7
 49
6.35
 74
     0
 49
-1.27
 74
     0
 49
1.27
 74
     0
 49
-1.27
 74
     0
 49
1.27
 74
     0
 49
-1.27
 74
     0
  0
LTYPE
  5
41
330
5
100
AcDbSymbolTableRecord
100
AcDbLinetypeTableRecord
  2
CENTER
 70
     0
  3
Center ____ _ ____ _ ____ _ ____ _ ____ _ ____
 72
    65
 73
     4
 40
10.16
 49
6.35
 74
     0
 49
-1.27
 74
     0
 49
1.27
 74
     0
 49
-1.27
 74
     0
  0
LTYPE
  5
42
330
5
100
AcDbSymbolTableRecord
100
AcDbLinetypeTableRecord
  2
CENTERX2
 70
     0
  3
Center (2x) ________  __  ________  __  _____
 72
    65
 73
     4
 40
20.32
 49
12.7
 74
     0
 49
-2.54
 74
     0
 49
2.54
 74
     0
 49
-2.54
 74
     0
  0
LTYPE
  5
43
330
5
100
AcDbSymbolTableRecord
100
AcDbLinetypeTableRecord
  2
DOT2
 70
     0
  3
Dot (.5x) ........................................
 72
    65
 73
     2
 40
0.635
 49
0.0
 74
     0
 49
-0.635
 74
     0
  0
ENDTAB
  0
TABLE
  2
LAYER
  5
2
330
0
100
AcDbSymbolTable
 70
     1
  0
LAYER
  5
10
330
2
100
AcDbSymbolTableRecord
100
AcDbLayerTableRecord
  2
0
 70
     0
 62
     7
  6
Continuous
370
    -3
390
F
347
3E
  0
ENDTAB
  0
TABLE
  2
STYLE
  5
3
330
0
100
AcDbSymbolTable
 70
     1
  0
STYLE
  5
11
330
3
100
AcDbSymbolTableRecord
100
AcDbTextStyleTableRecord
  2
Standard
 70
     0
 40
0.0
 41
1.0
 50
0.0
 71
     0
 42
3.5
  3
txt
  4

  0
ENDTAB
  0
TABLE
  2
VIEW
  5
6
330
0
100
AcDbSymbolTable
 70
     0
  0
ENDTAB
  0
TABLE
  2
UCS
  5
7
330
0
100
AcDbSymbolTable
 70
     0
  0
ENDTAB
  0
TABLE
  2
APPID
  5
9
330
0
100
AcDbSymbolTable
 70
     1
  0
APPID
  5
12
330
9
100
AcDbSymbolTableRecord
100
AcDbRegAppTableRecord
  2
ACAD
 70
     0
  0
ENDTAB
  0
TABLE
  2
DIMSTYLE
  5
A
330
0
100
AcDbSymbolTable
 70
     1
100
AcDbDimStyleTable
  0
DIMSTYLE
105
27
330
A
100
AcDbSymbolTableRecord
100
AcDbDimStyleTableRecord
  2
ISO-25
 70
     0
 41
2.5
 42
0.625
 43
3.75
 44
1.25
 73
     0
 74
     0
 77
     1
 78
     8
140
2.5
141
2.5
143
0.0393700787
147
0.625
171
     3
172
     1
178
     0
271
     2
272
     2
274
     3
278
    44
283
     0
284
     8
340
11
  0
ENDTAB
  0
TABLE
  2
BLOCK_RECORD
  5
1
330
0
100
AcDbSymbolTable
 70
     1
  0
BLOCK_RECORD
  5
1F
330
1
100
AcDbSymbolTableRecord
100
AcDbBlockTableRecord
  2
*Model_Space
340
22
 70
     0
280
     1
281
     0
  0
BLOCK_RECORD
  5
1B
330
1
100
AcDbSymbolTableRecord
100
AcDbBlockTableRecord
  2
*Paper_Space
340
1E
 70
     0
280
     1
281
     0
  0
BLOCK_RECORD
  5
23
330
1
100
AcDbSymbolTableRecord
100
AcDbBlockTableRecord
  2
*Paper_Space0
340
26
 70
     0
280
     1
281
     0
  0
ENDTAB
  0
ENDSEC
  0
SECTION
  2
BLOCKS
  0
BLOCK
  5
20
330
1F
100
AcDbEntity
  8
0
100
AcDbBlockBegin
  2
*Model_Space
 70
     0
 10
0.0
 20
0.0
 30
0.0
  3
*Model_Space
  1

  0
ENDBLK
  5
21
330
1F
100
AcDbEntity
  8
0
100
AcDbBlockEnd
  0
BLOCK
  5
1C
330
1B
100
AcDbEntity
 67
     1
  8
0
100
AcDbBlockBegin
  2
*Paper_Space
 70
     0
 10
0.0
 20
0.0
 30
0.0
  3
*Paper_Space
  1

  0
ENDBLK
  5
1D
330
1B
100
AcDbEntity
 67
     1
  8
0
100
AcDbBlockEnd
  0
BLOCK
  5
24
330
23
100
AcDbEntity
  8
0
100
AcDbBlockBegin
  2
*Paper_Space0
 70
     0
 10
0.0
 20
0.0
 30
0.0
  3
*Paper_Space0
  1

  0
ENDBLK
  5
25
330
23
100
AcDbEntity
  8
0
100
AcDbBlockEnd
  0
ENDSEC
  0
SECTION
  2
ENTITIES
  0
ARC
  5
44
330
1F
100
AcDbEntity
  8
0
  6
Continuous
 62
     7
370
    15
100
AcDbCircle
 10
-147.2648115601
 20
21.0003306731
 30
0.0
 40
5.56249999999988
100
AcDbArc
 50
344.5458690495
 51
349.6398666845
  0
LINE
  5
45
330
1F
100
AcDbEntity
  8
0
  6
Continuous
 62
     7
370
    15
100
AcDbLine
 10
-141.7929978941
 20
20.0
 30
0.0
 11
8.0
 21
20.0
 31
0.0
  0
LINE
  5
46
330
1F
100
AcDbEntity
  8
0
  6
Continuous
 62
     7
370
    15
100
AcDbLine
 10
8.0
 20
30.0
 30
0.0
 11
8.0
 21
20.0
 31
0.0
  0
LINE
  5
47
330
1F
100
AcDbEntity
  8
0
  6
Continuous
 62
     7
370
    15
100
AcDbLine
 10
-25.7974882498
 20
30.0
 30
0.0
 11
8.0
 21
30.0
 31
0.0
  0
ARC
  5
48
330
1F
100
AcDbEntity
  8
0
  6
Continuous
 62
     7
370
    15
100
AcDbCircle
 10
-25.7974882498
 20
35.0
 30
0.0
 40
5.000000000000004
100
AcDbArc
 50
180.0
 51
270.0
  0
LINE
  5
49
330
1F
100
AcDbEntity
  8
0
  6
Continuous
 62
     7
370
    15
100
AcDbLine
 10
-30.7974882498
 20
57.2018539909
 30
0.0
 11
-30.7974882498
 21
35.0
 31
0.0
  0
ARC
  5
4A
330
1F
100
AcDbEntity
  8
0
  6
Continuous
 62
     7
370
    15
100
AcDbCircle
 10
-25.7974882498
 20
57.2018539909
 30
0.0
 40
5.000000000000004
100
AcDbArc
 50
114.2749186587
 51
180.0
  0
ARC
  5
4B
330
1F
100
AcDbEntity
  8
0
  6
Continuous
 62
     7
370
    15
100
AcDbCircle
 10
0.0
 20
0.0
 30
0.0
 40
67.74999999999999
100
AcDbArc
 50
93.9409610182
 51
114.2749186587
  0
ARC
  5
4C
330
1F
100
AcDbEntity
  8
0
  6
Continuous
 62
     7
370
    15
100
AcDbCircle
 10
-5.0
 20
72.5779753093
 30
0.0
 40
5.00000000000001
100
AcDbArc
 50
273.9409610182
 51
0.0
  0
LINE
  5
4D
330
1F
100
AcDbEntity
  8
0
  6
Continuous
 62
     7
370
    15
100
AcDbLine
 10
0.0
 20
143.2394487827
 30
0.0
 11
0.0
 21
72.5779753093
 31
0.0
  0
ARC
  5
4E
330
1F
100
AcDbEntity
  8
0
  6
Continuous
 62
     7
370
    15
100
AcDbCircle
 10
0.0
 20
143.4694487827
 30
0.0
 40
0.2299999999999329
100
AcDbArc
 50
200.2841961712
 51
270.0
  0
LINE
  5
4F
330
1F
100
AcDbEntity
  8
0
  6
Continuous
 62
     7
370
    15
100
AcDbLine
 10
-0.2157364566
 20
143.3897130861
 30
0.0
 11
-0.3784207857
 21
143.8298790623
 31
0.0
  0
LINE
  5
50
330
1F
100
AcDbEntity
  8
0
  6
Continuous
 62
     7
370
    15
100
AcDbLine
 10
-0.3784207857
 20
143.8298790623
 30
0.0
 11
-1.0484125437
 21
143.8265557695
 31
0.0
  0
LINE
  5
51
330
1F
100
AcDbEntity
  8
0
  6
Continuous
 62
     7
370
    15
100
AcDbLine
 10
-1.0484125437
 20
143.8265557695
 30
0.0
 11
-1.206722353
 21
143.3847975983
 31
0.0
  0
ARC
  5
52
330
1F
100
AcDbEntity
  8
0
  6
Continuous
 62
     7
370
    15
100
AcDbCircle
 10
-1.4232391845
 20
143.4623892323
 30
0.0
 40
0.2299999999999988
100
AcDbArc
 50
270.5683923423
 51
340.2841961712
  0
ARC
  5
53
330
1F
100
AcDbEntity
  8
0
  6
Continuous
 62
     7
370
    15
100
AcDbCircle
 10
0.0
 20
0.0
 30
0.0
 40
143.2394487827059
100
AcDbArc
 50
90.5683923423
 51
90.8
  0
ARC
  5
54
330
1F
100
AcDbEntity
  8
0
  6
Continuous
 62
     7
370
    15
100
AcDbCircle
 10
-2.0031463171
 20
143.4554639561
 30
0.0
 40
0.229999999999929
100
AcDbArc
 50
201.0841961712
 51
270.8
  0
LINE
  5
55
330
1F
100
AcDbEntity
  8
0
  6
Continuous
 62
     7
370
    15
100
AcDbLine
 10
-2.2177484603
 20
143.3727238805
 30
0.0
 11
-2.3865626084
 21
143.8105755231
 31
0.0
  0
LINE
  5
56
330
1F
100
AcDbEntity
  8
0
  6
Continuous
 62
     7
370
    15
100
AcDbLine
 10
-2.3865626084
 20
143.8105755231
 30
0.0
 11
-3.0564426578
 21
143.7978980084
 31
0.0
  0
LINE
  5
57
330
1F
100
AcDbEntity
  8
0
  6
Continuous
 62
     7
370
    15
100
AcDbLine
 10
-3.0564426578
 20
143.7978980084
 30
0.0
 11
-3.2085691285
 21
143.353972548
 31
0.0
  0
ARC
  5
58
330
1F
100
AcDbEntity
  8
0
  6
Continuous
 62
     7
370
    15
100
AcDbCircle
 10
-3.4261482032
 20
143.4285335716
 30
0.0
 40
0.2299999999999782
100
AcDbArc
 50
271.3683923423
 51
341.0841961712
  0
ARC
  5
59
330
1F
100
AcDbEntity
  8
0
  6
Continuous
 62
     7
370
    15
100
AcDbCircle
 10
0.0
 20
0.0
 30
0.0
 40
143.2394487827058
100
AcDbArc
 50
91.3683923423
 51
91.6
  0
ARC
  5
5A
330
1F
100
AcDbEntity
  8
0
  6
Continuous
 62
     7
370
    15
100
AcDbCircle
 10
-4.0059021168
 20
143.4135122025
 30
0.0
 40
0.2299999999999377
100
AcDbArc
 50
201.8841961712
 51
271.6
  0
LINE
  5
5B
330
1F
100
AcDbEntity
  8
0
  6
Continuous
 62
     7
370
    15
100
AcDbLine
 10
-4.2193281096
 20
143.3277838782
 30
0.0
 11
-4.394239166
 21
143.7632358272
 31
0.0
  0
LINE
  5
5C
330
1F
100
AcDbEntity
  8
0
  6
Continuous
 62
     7
370
    15
100
AcDbLine
 10
-4.394239166
 20
143.7632358272
 30
0.0
 11
-5.0638769124
 21
143.7412065623
 31
0.0
  0
LINE
  5
5D
330
1F
100
AcDbEntity
  8
0
  6
Continuous
 62
     7
370
    15
100
AcDbLine
 10
-5.0638769124
 20
143.7412065623
 30
0.0
 11
-5.2097903871
 21
143.2952003567
 31
0.0
  0
ARC
  5
5E
330
1F
100
AcDbEntity
  8
0
  6
Continuous
 62
     7
370
    15
100
AcDbCircle
 10
-5.4283892876
 20
143.3667162341
 30
0.0
 40
0.229999999999984
100
AcDbArc
 50
272.1683923423
 51
341.8841961712
  0
ARC
  5
5F
330
1F
100
AcDbEntity
  8
0
  6
Continuous
 62
     7
370
    15
100
AcDbCircle
 10
0.0
 20
0.0
 30
0.0
 40
143.2394487827058
100
AcDbArc
 50
92.1683923423
 51
92.4
  0
ARC
  5
60
330
1F
100
AcDbEntity
  8
0
  6
Continuous
 62
     7
370
    15
100
AcDbCircle
 10
-6.0078769579
 20
143.3436017005
 30
0.0
 40
0.2299999999999327
100
AcDbArc
 50
202.6841961712
 51
272.4
  0
LINE
  5
61
330
1F
100
AcDbEntity
  8
0
  6
Continuous
 62
     7
370
    15
100
AcDbLine
 10
-6.2200851926
 20
143.2549018405
 30
0.0
 11
-6.4010590579
 21
143.6878692037
 31
0.0
  0
LINE
  5
62
330
1F
100
AcDbEntity
  8
0
  6
Continuous
 62
     7
370
    15
100
AcDbLine
 10
-6.4010590579
 20
143.6878692037
 30
0.0
 11
-7.0703239542
 21
143.6564924831
 31
0.0
  0
LINE
  5
63
330
1F
100
AcDbEntity
  8
0
  6
Continuous
 62
     7
370
    15
100
AcDbLine
 10
-7.0703239542
 20
143.6564924831
 30
0.0
 11
-7.2099959867
 21
143.2084924822
 31
0.0
  0
ARC
  5
64
330
1F
100
AcDbEntity
  8
0
  6
Continuous
 62
     7
370
    15
100
AcDbCircle
 10
-7.4295720966
 20
143.2769492712
 30
0.0
 40
0.2299999999999633
100
AcDbArc
 50
272.9683923423
 51
342.6841961712
  0
ARC
  5
65
330
1F
100
AcDbEntity
  8
0
  6
Continuous
 62
     7
370
    15
100
AcDbCircle
 10
0.0
 20
0.0
 30
0.0
 40
143.2394487827058
100
AcDbArc
 50
92.9683923423
 51
93.2
  0
ARC
  5
66
330
1F
100
AcDbEntity
  8
0
  6
Continuous
 62
     7
370
    15
100
AcDbCircle
 10
-8.0086805516
 20
143.2457460794
 30
0.0
 40
0.2299999999999317
100
AcDbArc
 50
203.4841961712
 51
273.2
  0
LINE
  5
67
330
1F
100
AcDbEntity
  8
0
  6
Continuous
 62
     7
370
    15
100
AcDbLine
 10
-8.2196296576
 20
143.1540919759
 30
0.0
 11
-8.4066310507
 21
143.5844903454
 31
0.0
  0
LINE
  5
68
330
1F
100
AcDbEntity
  8
0
  6
Continuous
 62
     7
370
    15
100
AcDbLine
 10
-8.4066310507
 20
143.5844903454
 30
0.0
 11
-9.0753926223
 21
143.5437722861
 31
0.0
  0
LINE
  5
69
330
1F
100
AcDbEntity
  8
0
  6
Continuous
 62
     7
370
    15
100
AcDbLine
 10
-9.0753926223
 20
143.5437722861
 30
0.0
 11
-9.2087959834
 21
143.0938658283
 31
0.0
  0
ARC
  5
6A
330
1F
100
AcDbEntity
  8
0
  6
Continuous
 62
     7
370
    15
100
AcDbCircle
 10
-9.4293064959
 20
143.1592501832
 30
0.0
 40
0.2299999999999778
100
AcDbArc
 50
273.7683923423
 51
343.4841961712
  0
ARC
  5
6B
330
1F
100
AcDbEntity
  8
0
  6
Continuous
 62
     7
370
    15
100
AcDbCircle
 10
0.0
 20
0.0
 30
0.0
 40
143.2394487827059
100
AcDbArc
 50
93.7683923423
 51
94.0
  0
ARC
  5
6C
330
1F
100
AcDbEntity
  8
0
  6
Continuous
 62
     7
370
    15
100
AcDbCircle
 10
-10.0079228371
 20
143.1199644162
 30
0.0
 40
0.2299999999999346
100
AcDbArc
 50
204.2841961712
 51
274.0
  0
LINE
  5
6D
330
1F
100
AcDbEntity
  8
0
  6
Continuous
 62
     7
370
    15
100
AcDbLine
 10
-10.2175716895
 20
143.0253739373
 30
0.0
 11
-10.4105641541
 21
143.4531194062
 31
0.0
  0
LINE
  5
6E
330
1F
100
AcDbEntity
  8
0
  6
Continuous
 62
     7
370
    15
100
AcDbLine
 10
-10.4105641541
 20
143.4531194062
 30
0.0
 11
-11.0786920246
 21
143.4030679462
 31
0.0
  0
LINE
  5
6F
330
1F
100
AcDbEntity
  8
0
  6
Continuous
 62
     7
370
    15
100
AcDbLine
 10
-11.0786920246
 20
143.4030679462
 30
0.0
 11
-11.205800707
 21
142.9513427417
 31
0.0
  0
ARC
  5
70
330
1F
100
AcDbEntity
  8
0
  6
Continuous
 62
     7
370
    15
100
AcDbCircle
 10
-11.4272026332
 20
143.0136419157
 30
0.0
 40
0.2300000000000176
100
AcDbArc
 50
274.5683923423
 51
344.2841961712
  0
ARC
  5
71
330
1F
100
AcDbEntity
  8
0
  6
Continuous
 62
     7
370
    15
100
AcDbCircle
 10
0.0
 20
0.0
 30
0.0
 40
143.2394487827058
100
AcDbArc
 50
94.5683923423
 51
94.8
  0
ARC
  5
72
330
1F
100
AcDbEntity
  8
0
  6
Continuous
 62
     7
370
    15
100
AcDbCircle
 10
-12.0052140582
 20
142.9662812324
 30
0.0
 40
0.2299999999999522
100
AcDbArc
 50
205.0841961712
 51
274.8
  0
LINE
  5
73
330
1F
100
AcDbEntity
  8
0
  6
Continuous
 62
     7
370
    15
100
AcDbLine
 10
-12.2135217855
 20
142.8687728188
 30
0.0
 11
-12.4124676974
 21
143.2937819971
 31
0.0
  0
LINE
  5
74
330
1F
100
AcDbEntity
  8
0
  6
Continuous
 62
     7
370
    15
100
AcDbLine
 10
-12.4124676974
 20
143.2937819971
 30
0.0
 11
-13.079831614
 21
143.2344068941
 31
0.0
  0
LINE
  5
75
330
1F
100
AcDbEntity
  8
0
  6
Continuous
 62
     7
370
    15
100
AcDbLine
 10
-13.079831614
 20
143.2344068941
 30
0.0
 11
-13.2006208375
 21
142.7809510077
 31
0.0
  0
ARC
  5
76
330
1F
100
AcDbEntity
  8
0
  6
Continuous
 62
     7
370
    15
100
AcDbCircle
 10
-13.4228710147
 20
142.8401528553
 30
0.0
 40
0.2299999999999812
100
AcDbArc
 50
275.3683923423
 51
345.0841961712
  0
ARC
  5
77
330
1F
100
AcDbEntity
  8
0
  6
Continuous
 62
     7
370
    15
100
AcDbCircle
 10
0.0
 20
0.0
 30
0.0
 40
143.2394487827058
100
AcDbArc
 50
95.3683923423
 51
95.6
  0
ARC
  5
78
330
1F
100
AcDbEntity
  8
0
  6
Continuous
 62
     7
370
    15
100
AcDbCircle
 10
-14.0001648391
 20
142.7847264888
 30
0.0
 40
0.2299999999999144
100
AcDbArc
 50
205.8841961712
 51
275.6
  0
LINE
  5
79
330
1F
100
AcDbEntity
  8
0
  6
Continuous
 62
     7
370
    15
100
AcDbLine
 10
-14.2070908313
 20
142.6843191499
 30
0.0
 11
-14.4119514056
 21
143.1065091813
 31
0.0
  0
LINE
  5
7A
330
1F
100
AcDbEntity
  8
0
  6
Continuous
 62
     7
370
    15
100
AcDbLine
 10
-14.4119514056
 20
143.1065091813
 30
0.0
 11
-15.0784212643
 21
143.0378220106
 31
0.0
  0
LINE
  5
7B
330
1F
100
AcDbEntity
  8
0
  6
Continuous
 62
     7
370
    15
100
AcDbLine
 10
-15.0784212643
 20
143.0378220106
 30
0.0
 11
-15.1928674809
 21
142.5827238443
 31
0.0
  0
ARC
  5
7C
330
1F
100
AcDbEntity
  8
0
  6
Continuous
 62
     7
370
    15
100
AcDbCircle
 10
-15.4159225809
 20
142.6388168242
 30
0.0
 40
0.229999999999994
100
AcDbArc
 50
276.1683923423
 51
345.8841961712
  0
ARC
  5
7D
330
1F
100
AcDbEntity
  8
0
  6
Continuous
 62
     7
370
    15
100
AcDbCircle
 10
0.0
 20
0.0
 30
0.0
 40
143.2394487827058
100
AcDbArc
 50
96.1683923423
 51
96.4
  0
ARC
  5
7E
330
1F
100
AcDbEntity
  8
0
  6
Continuous
 62
     7
370
    15
100
AcDbCircle
 10
-15.99238626
 20
142.5753355799
 30
0.0
 40
0.2299999999999291
100
AcDbArc
 50
206.6841961712
 51
276.4
  0
LINE
  5
7F
330
1F
100
AcDbEntity
  8
0
  6
Continuous
 62
     7
370
    15
100
AcDbLine
 10
-16.1978901766
 20
142.4720488902
 30
0.0
 11
-16.4086254752
 21
142.8913374679
 31
0.0
  0
LINE
  5
80
330
1F
100
AcDbEntity
  8
0
  6
Continuous
 62
     7
370
    15
100
AcDbLine
 10
-16.4086254752
 20
142.8913374679
 30
0.0
 11
-17.0740713465
 21
142.8133516203
 31
0.0
  0
LINE
  5
81
330
1F
100
AcDbEntity
  8
0
  6
Continuous
 62
     7
370
    15
100
AcDbLine
 10
-17.0740713465
 20
142.8133516203
 30
0.0
 11
-17.1821522447
 21
142.3566998964
 31
0.0
  0
ARC
  5
82
330
1F
100
AcDbEntity
  8
0
  6
Continuous
 62
     7
370
    15
100
AcDbCircle
 10
-17.4059687824
 20
142.409673073
 30
0.0
 40
0.2300000000000051
100
AcDbArc
 50
276.9683923423
 51
346.6841961712
  0
ARC
  5
83
330
1F
100
AcDbEntity
  8
0
  6
Continuous
 62
     7
370
    15
100
AcDbCircle
 10
0.0
 20
0.0
 30
0.0
 40
143.2394487827059
100
AcDbArc
 50
96.9683923423
 51
97.2
  0
ARC
  5
84
330
1F
100
AcDbEntity
  8
0
  6
Continuous
 62
     7
370
    15
100
AcDbCircle
 10
-17.9814899336
 20
142.3381493268
 30
0.0
 40
0.2299999999999075
100
AcDbArc
 50
207.4841961712
 51
277.2
  0
LINE
  5
85
330
1F
100
AcDbEntity
  8
0
  6
Continuous
 62
     7
370
    15
100
AcDbLine
 10
-18.1855317111
 20
142.2320034223
 30
0.0
 11
-18.4021006508
 21
142.6483088053
 31
0.0
  0
LINE
  5
86
330
1F
100
AcDbEntity
  8
0
  6
Continuous
 62
     7
370
    15
100
AcDbLine
 10
-18.4021006508
 20
142.6483088053
 30
0.0
 11
-19.0663928046
 21
142.5610394841
 31
0.0
  0
LINE
  5
87
330
1F
100
AcDbEntity
  8
0
  6
Continuous
 62
     7
370
    15
100
AcDbLine
 10
-19.0663928046
 20
142.5610394841
 30
0.0
 11
-19.1680873138
 21
142.1029232278
 31
0.0
  0
ARC
  5
88
330
1F
100
AcDbEntity
  8
0
  6
Continuous
 62
     7
370
    15
100
AcDbCircle
 10
-19.3926216558
 20
142.1527662739
 30
0.0
 40
0.2299999999999792
100
AcDbArc
 50
277.7683923423
 51
347.4841961712
  0
ARC
  5
89
330
1F
100
AcDbEntity
  8
0
  6
Continuous
 62
     7
370
    15
100
AcDbCircle
 10
0.0
 20
0.0
 30
0.0
 40
143.2394487827058
100
AcDbArc
 50
97.7683923423
 51
98.0
  0
ARC
  5
8A
330
1F
100
AcDbEntity
  8
0
  6
Continuous
 62
     7
370
    15
100
AcDbCircle
 10
-19.9670880801
 20
142.0732139695
 30
0.0
 40
0.2299999999999155
100
AcDbArc
 50
208.2841961712
 51
278.0
  0
LINE
  5
8B
330
1F
100
AcDbEntity
  8
0
  6
Continuous
 62
     7
370
    15
100
AcDbLine
 10
-20.1696279402
 20
141.9642295436
 30
0.0
 11
-20.3919883005
 21
142.3774705721
 31
0.0
  0
LINE
  5
8C
330
1F
100
AcDbEntity
  8
0
  6
Continuous
 62
     7
370
    15
100
AcDbLine
 10
-20.3919883005
 20
142.3774705721
 30
0.0
 11
-21.0549972317
 21
142.2809347908
 31
0.0
  0
LINE
  5
8D
330
1F
100
AcDbEntity
  8
0
  6
Continuous
 62
     7
370
    15
100
AcDbLine
 10
-21.0549972317
 20
142.2809347908
 30
0.0
 11
-21.1502855263
 21
141.8214433127
 31
0.0
  0
ARC
  5
8E
330
1F
100
AcDbEntity
  8
0
  6
Continuous
 62
     7
370
    15
100
AcDbCircle
 10
-21.3754938992
 20
141.8681465114
 30
0.0
 40
0.2299999999999562
100
AcDbArc
 50
278.5683923423
 51
348.2841961712
  0
ARC
  5
8F
330
1F
100
AcDbEntity
  8
0
  6
Continuous
 62
     7
370
    15
100
AcDbCircle
 10
0.0
 20
0.0
 30
0.0
 40
143.2394487827058
100
AcDbArc
 50
98.5683923423
 51
98.8
  0
ARC
  5
90
330
1F
100
AcDbEntity
  8
0
  6
Continuous
 62
     7
370
    15
100
AcDbCircle
 10
-21.9487936032
 20
141.7805811576
 30
0.0
 40
0.2299999999999506
100
AcDbArc
 50
209.0841961712
 51
278.8
  0
LINE
  5
91
330
1F
100
AcDbEntity
  8
0
  6
Continuous
 62
     7
370
    15
100
AcDbLine
 10
-22.1497920603
 20
141.668779457
 30
0.0
 11
-22.3779004915
 21
142.078875569
 31
0.0
  0
LINE
  5
92
330
1F
100
AcDbEntity
  8
0
  6
Continuous
 62
     7
370
    15
100
AcDbLine
 10
-22.3779004915
 20
142.078875569
 30
0.0
 11
-23.0394969454
 21
141.9730921473
 31
0.0
  0
LINE
  5
93
330
1F
100
AcDbEntity
  8
0
  6
Continuous
 62
     7
370
    15
100
AcDbLine
 10
-23.0394969454
 20
141.9730921473
 30
0.0
 11
-23.1283604488
 21
141.5123150263
 31
0.0
  0
ARC
  5
94
330
1F
100
AcDbEntity
  8
0
  6
Continuous
 62
     7
370
    15
100
AcDbCircle
 10
-23.3541989478
 20
141.5558692726
 30
0.0
 40
0.2299999999999879
100
AcDbArc
 50
279.3683923423
 51
349.0841961712
  0
ARC
  5
95
330
1F
100
AcDbEntity
  8
0
  6
Continuous
 62
     7
370
    15
100
AcDbCircle
 10
0.0
 20
0.0
 30
0.0
 40
143.2394487827058
100
AcDbArc
 50
99.3683923423
 51
99.6
  0
ARC
  5
96
330
1F
100
AcDbEntity
  8
0
  6
Continuous
 62
     7
370
    15
100
AcDbCircle
 10
-23.9262201655
 20
141.4603079404
 30
0.0
 40
0.2299999999999274
100
AcDbArc
 50
209.8841961712
 51
279.6
  0
LINE
  5
97
330
1F
100
AcDbEntity
  8
0
  6
Continuous
 62
     7
370
    15
100
AcDbLine
 10
-24.1256380346
 20
141.3457107611
 30
0.0
 11
-24.3594500666
 21
141.7525820076
 31
0.0
  0
LINE
  5
98
330
1F
100
AcDbEntity
  8
0
  6
Continuous
 62
     7
370
    15
100
AcDbLine
 10
-24.3594500666
 20
141.7525820076
 30
0.0
 11
-25.0195050634
 21
141.6375715682
 31
0.0
  0
LINE
  5
99
330
1F
100
AcDbEntity
  8
0
  6
Continuous
 62
     7
370
    15
100
AcDbLine
 10
-25.0195050634
 20
141.6375715682
 30
0.0
 11
-25.1019264515
 21
141.1755986336
 31
0.0
  0
ARC
  5
9A
330
1F
100
AcDbEntity
  8
0
  6
Continuous
 62
     7
370
    15
100
AcDbCircle
 10
-25.3283510489
 20
141.2159954366
 30
0.0
 40
0.2299999999999466
100
AcDbArc
 50
280.1683923423
 51
349.8841961712
  0
ARC
  5
9B
330
1F
100
AcDbEntity
  8
0
  6
Continuous
 62
     7
370
    15
100
AcDbCircle
 10
0.0
 20
0.0
 30
0.0
 40
143.2394487827058
100
AcDbArc
 50
100.1683923423
 51
100.4
  0
ARC
  5
9C
330
1F
100
AcDbEntity
  8
0
  6
Continuous
 62
     7
370
    15
100
AcDbCircle
 10
-25.8989822638
 20
141.112456756
 30
0.0
 40
0.2299999999999333
100
AcDbArc
 50
210.6841961712
 51
280.4
  0
LINE
  5
9D
330
1F
100
AcDbEntity
  8
0
  6
Continuous
 62
     7
370
    15
100
AcDbLine
 10
-26.0967806679
 20
140.9950864389
 30
0.0
 11
-26.3362507186
 21
141.3986534994
 31
0.0
  0
LINE
  5
9E
330
1F
100
AcDbEntity
  8
0
  6
Continuous
 62
     7
370
    15
100
AcDbLine
 10
-26.3362507186
 20
141.3986534994
 30
0.0
 11
-26.9946355794
 21
141.2744384639
 31
0.0
  0
LINE
  5
9F
330
1F
100
AcDbEntity
  8
0
  6
Continuous
 62
     7
370
    15
100
AcDbLine
 10
-26.9946355794
 20
141.2744384639
 30
0.0
 11
-27.070598784
 21
140.8113597783
 31
0.0
  0
ARC
  5
A0
330
1F
100
AcDbEntity
  8
0
  6
Continuous
 62
     7
370
    15
100
AcDbCircle
 10
-27.2975653379
 20
140.8485912625
 30
0.0
 40
0.2299999999999873
100
AcDbArc
 50
280.9683923423
 51
350.6841961712
  0
ARC
  5
A1
330
1F
100
AcDbEntity
  8
0
  6
Continuous
 62
     7
370
    15
100
AcDbCircle
 10
0.0
 20
0.0
 30
0.0
 40
143.2394487827058
100
AcDbArc
 50
100.9683923423
 51
101.2
  0
ARC
  5
A2
330
1F
100
AcDbEntity
  8
0
  6
Continuous
 62
     7
370
    15
100
AcDbCircle
 10
-27.8666953042
 20
140.7370954185
 30
0.0
 40
0.2299999999999505
100
AcDbArc
 50
211.4841961712
 51
281.2
  0
LINE
  5
A3
330
1F
100
AcDbEntity
  8
0
  6
Continuous
 62
     7
370
    15
100
AcDbLine
 10
-28.0628356822
 20
140.6169748452
 30
0.0
 11
-28.3079170663
 21
141.0171590436
 31
0.0
  0
LINE
  5
A4
330
1F
100
AcDbEntity
  8
0
  6
Continuous
 62
     7
370
    15
100
AcDbLine
 10
-28.3079170663
 20
141.0171590436
 30
0.0
 11
-28.9645034377
 21
140.8837636279
 31
0.0
  0
LINE
  5
A5
330
1F
100
AcDbEntity
  8
0
  6
Continuous
 62
     7
370
    15
100
AcDbLine
 10
-28.9645034377
 20
140.8837636279
 30
0.0
 11
-29.0339936496
 21
140.4196694694
 31
0.0
  0
ARC
  5
A6
330
1F
100
AcDbEntity
  8
0
  6
Continuous
 62
     7
370
    15
100
AcDbCircle
 10
-29.2614579124
 20
140.4537283765
 30
0.0
 40
0.2299999999999723
100
AcDbArc
 50
281.7683923423
 51
351.4841961712
  0
ARC
  5
A7
330
1F
100
AcDbEntity
  8
0
  6
Continuous
 62
     7
370
    15
100
AcDbCircle
 10
0.0
 20
0.0
 30
0.0
 40
143.2394487827059
100
AcDbArc
 50
101.7683923423
 51
102.0
  0
ARC
  5
A8
330
1F
100
AcDbEntity
  8
0
  6
Continuous
 62
     7
370
    15
100
AcDbCircle
 10
-29.8289756771
 20
140.3342971054
 30
0.0
 40
0.2299999999999205
100
AcDbArc
 50
212.2841961712
 51
282.0
  0
LINE
  5
A9
330
1F
100
AcDbEntity
  8
0
  6
Continuous
 62
     7
370
    15
100
AcDbLine
 10
-30.023419791
 20
140.2114496937
 30
0.0
 11
-30.2740647296
 21
140.6081730132
 31
0.0
  0
LINE
  5
AA
330
1F
100
AcDbEntity
  8
0
  6
Continuous
 62
     7
370
    15
100
AcDbLine
 10
-30.2740647296
 20
140.6081730132
 30
0.0
 11
-30.9287246087
 21
140.4656232231
 31
0.0
  0
LINE
  5
AB
330
1F
100
AcDbEntity
  8
0
  6
Continuous
 62
     7
370
    15
100
AcDbLine
 10
-30.9287246087
 20
140.4656232231
 30
0.0
 11
-30.9917282806
 21
140.0006040677
 31
0.0
  0
ARC
  5
AC
330
1F
100
AcDbEntity
  8
0
  6
Continuous
 62
     7
370
    15
100
AcDbCircle
 10
-31.2196459077
 20
140.0314837578
 30
0.0
 40
0.2299999999999977
100
AcDbArc
 50
282.5683923423
 51
352.2841961712
  0
ARC
  5
AD
330
1F
100
AcDbEntity
  8
0
  6
Continuous
 62
     7
370
    15
100
AcDbCircle
 10
0.0
 20
0.0
 30
0.0
 40
143.2394487827058
100
AcDbArc
 50
102.5683923423
 51
102.8
  0
ARC
  5
AE
330
1F
100
AcDbEntity
  8
0
  6
Continuous
 62
     7
370
    15
100
AcDbCircle
 10
-31.7854408321
 20
139.904140343
 30
0.0
 40
0.229999999999932
100
AcDbArc
 50
213.0841961712
 51
282.8
  0
LINE
  5
AF
330
1F
100
AcDbEntity
  8
0
  6
Continuous
 62
     7
370
    15
100
AcDbLine
 10
-31.9781507746
 20
139.7785900422
 30
0.0
 11
-32.2343104039
 21
140.1717751409
 31
0.0
  0
LINE
  5
B0
330
1F
100
AcDbEntity
  8
0
  6
Continuous
 62
     7
370
    15
100
AcDbLine
 10
-32.2343104039
 20
140.1717751409
 30
0.0
 11
-32.8869161635
 21
140.0200987666
 31
0.0
  0
LINE
  5
B1
330
1F
100
AcDbEntity
  8
0
  6
Continuous
 62
     7
370
    15
100
AcDbLine
 10
-32.8869161635
 20
140.0200987666
 30
0.0
 11
-32.9434210127
 21
139.5542452709
 31
0.0
  0
ARC
  5
B2
330
1F
100
AcDbEntity
  8
0
  6
Continuous
 62
     7
370
    15
100
AcDbCircle
 10
-33.1717475711
 20
139.5819397239
 30
0.0
 40
0.2300000000000098
100
AcDbArc
 50
283.3683923423
 51
353.0841961712
  0
ARC
  5
B3
330
1F
100
AcDbEntity
  8
0
  6
Continuous
 62
     7
370
    15
100
AcDbCircle
 10
0.0
 20
0.0
 30
0.0
 40
143.2394487827059
100
AcDbArc
 50
103.3683923423
 51
103.6
  0
ARC
  5
B4
330
1F
100
AcDbEntity
  8
0
  6
Continuous
 62
     7
370
    15
100
AcDbCircle
 10
-33.7357093524
 20
139.4467089913
 30
0.0
 40
0.2299999999999295
100
AcDbArc
 50
213.8841961712
 51
283.6
  0
LINE
  5
B5
330
1F
100
AcDbEntity
  8
0
  6
Continuous
 62
     7
370
    15
100
AcDbLine
 10
-33.9266475544
 20
139.3184802776
 30
0.0
 11
-34.1882719355
 21
139.7080505033
 31
0.0
  0
LINE
  5
B6
330
1F
100
AcDbEntity
  8
0
  6
Continuous
 62
     7
370
    15
100
AcDbLine
 10
-34.1882719355
 20
139.7080505033
 30
0.0
 11
-34.8386963489
 21
139.5472771145
 31
0.0
  0
LINE
  5
B7
330
1F
100
AcDbEntity
  8
0
  6
Continuous
 62
     7
370
    15
100
AcDbLine
 10
-34.8386963489
 20
139.5472771145
 30
0.0
 11
-34.8886913597
 21
139.0806800974
 31
0.0
  0
ARC
  5
B8
330
1F
100
AcDbEntity
  8
0
  6
Continuous
 62
     7
370
    15
100
AcDbCircle
 10
-35.1173823367
 20
139.1051839143
 30
0.0
 40
0.2300000000000164
100
AcDbArc
 50
284.1683923423
 51
353.8841961712
  0
ARC
  5
B9
330
1F
100
AcDbEntity
  8
0
  6
Continuous
 62
     7
370
    15
100
AcDbCircle
 10
0.0
 20
0.0
 30
0.0
 40
143.2394487827058
100
AcDbArc
 50
104.1683923423
 51
104.4
  0
ARC
  5
BA
330
1F
100
AcDbEntity
  8
0
  6
Continuous
 62
     7
370
    15
100
AcDbCircle
 10
-35.6794010294
 20
138.9620922273
 30
0.0
 40
0.2299999999999238
100
AcDbArc
 50
214.6841961712
 51
284.4
  0
LINE
  5
BB
330
1F
100
AcDbEntity
  8
0
  6
Continuous
 62
     7
370
    15
100
AcDbLine
 10
-35.8685302671
 20
138.8312100993
 30
0.0
 11
-36.1355683958
 21
139.2170895044
 31
0.0
  0
LINE
  5
BC
330
1F
100
AcDbEntity
  8
0
  6
Continuous
 62
     7
370
    15
100
AcDbLine
 10
-36.1355683958
 20
139.2170895044
 30
0.0
 11
-36.7836846613
 21
139.0472504442
 31
0.0
  0
LINE
  5
BD
330
1F
100
AcDbEntity
  8
0
  6
Continuous
 62
     7
370
    15
100
AcDbLine
 10
-36.7836846613
 20
139.0472504442
 30
0.0
 11
-36.8271600872
 21
138.5800008698
 31
0.0
  0
ARC
  5
BE
330
1F
100
AcDbEntity
  8
0
  6
Continuous
 62
     7
370
    15
100
AcDbCircle
 10
-37.056170899
 20
138.6013092735
 30
0.0
 40
0.229999999999972
100
AcDbArc
 50
284.9683923423
 51
354.6841961712
  0
ARC
  5
BF
330
1F
100
AcDbEntity
  8
0
  6
Continuous
 62
     7
370
    15
100
AcDbCircle
 10
0.0
 20
0.0
 30
0.0
 40
143.2394487827058
100
AcDbArc
 50
104.9683923423
 51
105.2
  0
ARC
  5
C0
330
1F
100
AcDbEntity
  8
0
  6
Continuous
 62
     7
370
    15
100
AcDbCircle
 10
-37.6161369364
 20
138.4503845282
 30
0.0
 40
0.2299999999999146
100
AcDbArc
 50
215.4841961712
 51
285.2
  0
LINE
  5
C1
330
1F
100
AcDbEntity
  8
0
  6
Continuous
 62
     7
370
    15
100
AcDbLine
 10
-37.8034203387
 20
138.3168745014
 30
0.0
 11
-38.0758201554
 21
138.6989878581
 31
0.0
  0
LINE
  5
C2
330
1F
100
AcDbEntity
  8
0
  6
Continuous
 62
     7
370
    15
100
AcDbLine
 10
-38.0758201554
 20
138.6989878581
 30
0.0
 11
-38.7215019216
 21
138.520116237
 31
0.0
  0
LINE
  5
C3
330
1F
100
AcDbEntity
  8
0
  6
Continuous
 62
     7
370
    15
100
AcDbLine
 10
-38.7215019216
 20
138.520116237
 30
0.0
 11
-38.7584492868
 21
138.0523051964
 31
0.0
  0
ARC
  5
C4
330
1F
100
AcDbEntity
  8
0
  6
Continuous
 62
     7
370
    15
100
AcDbCircle
 10
-38.9877352873
 20
138.0704140328
 30
0.0
 40
0.2299999999999437
100
AcDbArc
 50
285.7683923423
 51
355.4841961712
  0
ARC
  5
C5
330
1F
100
AcDbEntity
  8
0
  6
Continuous
 62
     7
370
    15
100
AcDbCircle
 10
0.0
 20
0.0
 30
0.0
 40
143.2394487827059
100
AcDbArc
 50
105.7683923423
 51
106.0
  0
ARC
  5
C6
330
1F
100
AcDbEntity
  8
0
  6
Continuous
 62
     7
370
    15
100
AcDbCircle
 10
-39.545539503
 20
137.9116856522
 30
0.0
 40
0.2299999999999311
100
AcDbArc
 50
216.2841961712
 51
286.0
  0
LINE
  5
C7
330
1F
100
AcDbEntity
  8
0
  6
Continuous
 62
     7
370
    15
100
AcDbLine
 10
-39.7309405585
 20
137.7755737549
 30
0.0
 11
-40.0086489585
 21
138.1538465693
 31
0.0
  0
LINE
  5
C8
330
1F
100
AcDbEntity
  8
0
  6
Continuous
 62
     7
370
    15
100
AcDbLine
 10
-40.0086489585
 20
138.1538465693
 30
0.0
 11
-40.6517703483
 21
137.9659772586
 31
0.0
  0
LINE
  5
C9
330
1F
100
AcDbEntity
  8
0
  6
Continuous
 62
     7
370
    15
100
AcDbLine
 10
-40.6517703483
 20
137.9659772586
 30
0.0
 11
-40.6821824499
 21
137.4976959525
 31
0.0
  0
ARC
  5
CA
330
1F
100
AcDbEntity
  8
0
  6
Continuous
 62
     7
370
    15
100
AcDbCircle
 10
-40.9116989394
 20
137.5126016913
 30
0.0
 40
0.2299999999999624
100
AcDbArc
 50
286.5683923423
 51
356.2841961712
  0
ARC
  5
CB
330
1F
100
AcDbEntity
  8
0
  6
Continuous
 62
     7
370
    15
100
AcDbCircle
 10
0.0
 20
0.0
 30
0.0
 40
143.2394487827059
100
AcDbArc
 50
106.5683923423
 51
106.8
  0
ARC
  5
CC
330
1F
100
AcDbEntity
  8
0
  6
Continuous
 62
     7
370
    15
100
AcDbCircle
 10
-41.4672325883
 20
137.3461006199
 30
0.0
 40
0.2299999999999467
100
AcDbArc
 50
217.0841961712
 51
286.8
  0
LINE
  5
CD
330
1F
100
AcDbEntity
  8
0
  6
Continuous
 62
     7
370
    15
100
AcDbLine
 10
-41.6507151528
 20
137.2074133872
 30
0.0
 11
-41.9336779961
 21
137.5817719143
 31
0.0
  0
LINE
  5
CE
330
1F
100
AcDbEntity
  8
0
  6
Continuous
 62
     7
370
    15
100
AcDbLine
 10
-41.9336779961
 20
137.5817719143
 30
0.0
 11
-42.5741136319
 21
137.3849415395
 31
0.0
  0
LINE
  5
CF
330
1F
100
AcDbEntity
  8
0
  6
Continuous
 62
     7
370
    15
100
AcDbLine
 10
-42.5741136319
 20
137.3849415395
 30
0.0
 11
-42.597984541
 21
136.9162812604
 31
0.0
  0
ARC
  5
D0
330
1F
100
AcDbEntity
  8
0
  6
Continuous
 62
     7
370
    15
100
AcDbCircle
 10
-42.8276867748
 20
136.9279809956
 30
0.0
 40
0.230000000000009
100
AcDbArc
 50
287.3683923423
 51
357.0841961712
  0
ARC
  5
D1
330
1F
100
AcDbEntity
  8
0
  6
Continuous
 62
     7
370
    15
100
AcDbCircle
 10
0.0
 20
0.0
 30
0.0
 40
143.2394487827058
100
AcDbArc
 50
107.3683923423
 51
107.6
  0
ARC
  5
D2
330
1F
100
AcDbEntity
  8
0
  6
Continuous
 62
     7
370
    15
100
AcDbCircle
 10
-43.3808415545
 20
136.7537396931
 30
0.0
 40
0.2299999999999231
100
AcDbArc
 50
217.8841961712
 51
287.6
  0
LINE
  5
D3
330
1F
100
AcDbEntity
  8
0
  6
Continuous
 62
     7
370
    15
100
AcDbLine
 10
-43.5623698577
 20
136.6125041624
 30
0.0
 11
-43.8505319802
 21
136.9828754203
 31
0.0
  0
LINE
  5
D4
330
1F
100
AcDbEntity
  8
0
  6
Continuous
 62
     7
370
    15
100
AcDbLine
 10
-43.8505319802
 20
136.9828754203
 30
0.0
 11
-44.4881570076
 21
136.777122354
 31
0.0
  0
LINE
  5
D5
330
1F
100
AcDbEntity
  8
0
  6
Continuous
 62
     7
370
    15
100
AcDbLine
 10
-44.4881570076
 20
136.777122354
 30
0.0
 11
-44.5054820706
 21
136.308174468
 31
0.0
  0
ARC
  5
D6
330
1F
100
AcDbEntity
  8
0
  6
Continuous
 62
     7
370
    15
100
AcDbCircle
 10
-44.7353252677
 20
136.3166659188
 30
0.0
 40
0.229999999999947
100
AcDbArc
 50
288.1683923423
 51
357.8841961712
  0
ARC
  5
D7
330
1F
100
AcDbEntity
  8
0
  6
Continuous
 62
     7
370
    15
100
AcDbCircle
 10
0.0
 20
0.0
 30
0.0
 40
143.2394487827058
100
AcDbArc
 50
108.1683923423
 51
108.4
  0
ARC
  5
D8
330
1F
100
AcDbEntity
  8
0
  6
Continuous
 62
     7
370
    15
100
AcDbCircle
 10
-45.2859933396
 20
136.1347183538
 30
0.0
 40
0.2299999999999256
100
AcDbArc
 50
218.6841961712
 51
288.4
  0
LINE
  5
D9
330
1F
100
AcDbEntity
  8
0
  6
Continuous
 62
     7
370
    15
100
AcDbLine
 10
-45.4655319922
 20
135.9909620593
 30
0.0
 11
-45.7588372161
 21
136.3572738434
 31
0.0
  0
LINE
  5
DA
330
1F
100
AcDbEntity
  8
0
  6
Continuous
 62
     7
370
    15
100
AcDbLine
 10
-45.7588372161
 20
136.3572738434
 30
0.0
 11
-46.393527329
 21
136.1426381973
 31
0.0
  0
LINE
  5
DB
330
1F
100
AcDbEntity
  8
0
  6
Continuous
 62
     7
370
    15
100
AcDbLine
 10
-46.393527329
 20
136.1426381973
 30
0.0
 11
-46.4043031683
 21
135.6734941269
 31
0.0
  0
ARC
  5
DC
330
1F
100
AcDbEntity
  8
0
  6
Continuous
 62
     7
370
    15
100
AcDbCircle
 10
-46.6342425204
 20
135.6787756378
 30
0.0
 40
0.229999999999989
100
AcDbArc
 50
288.9683923423
 51
358.6841961712
  0
ARC
  5
DD
330
1F
100
AcDbEntity
  8
0
  6
Continuous
 62
     7
370
    15
100
AcDbCircle
 10
0.0
 20
0.0
 30
0.0
 40
143.2394487827059
100
AcDbArc
 50
108.9683923423
 51
109.2
  0
ARC
  5
DE
330
1F
100
AcDbEntity
  8
0
  6
Continuous
 62
     7
370
    15
100
AcDbCircle
 10
-47.1823165306
 20
135.4891572814
 30
0.0
 40
0.229999999999933
100
AcDbArc
 50
219.4841961712
 51
289.2
  0
LINE
  5
DF
330
1F
100
AcDbEntity
  8
0
  6
Continuous
 62
     7
370
    15
100
AcDbLine
 10
-47.3598305312
 20
135.3429082486
 30
0.0
 11
-47.6582216761
 21
135.7050891457
 31
0.0
  0
LINE
  5
E0
330
1F
100
AcDbEntity
  8
0
  6
Continuous
 62
     7
370
    15
100
AcDbLine
 10
-47.6582216761
 20
135.7050891457
 30
0.0
 11
-48.2898531404
 21
135.4816127637
 31
0.0
  0
LINE
  5
E1
330
1F
100
AcDbEntity
  8
0
  6
Continuous
 62
     7
370
    15
100
AcDbLine
 10
-48.2898531404
 20
135.4816127637
 30
0.0
 11
-48.2940776551
 21
135.0123639694
 31
0.0
  0
ARC
  5
E2
330
1F
100
AcDbEntity
  8
0
  6
Continuous
 62
     7
370
    15
100
AcDbCircle
 10
-48.524068335
 20
135.0144345107
 30
0.0
 40
0.229999999999972
100
AcDbArc
 50
289.7683923423
 51
359.4841961712
  0
ARC
  5
E3
330
1F
100
AcDbEntity
  8
0
  6
Continuous
 62
     7
370
    15
100
AcDbCircle
 10
0.0
 20
0.0
 30
0.0
 40
143.2394487827058
100
AcDbArc
 50
109.7683923423
 51
110.0
  0
ARC
  5
E4
330
1F
100
AcDbEntity
  8
0
  6
Continuous
 62
     7
370
    15
100
AcDbCircle
 10
-49.0694414355
 20
134.8171823293
 30
0.0
 40
0.2299999999999212
100
AcDbArc
 50
220.2841961712
 51
290.0
  0
LINE
  5
E5
330
1F
100
AcDbEntity
  8
0
  6
Continuous
 62
     7
370
    15
100
AcDbLine
 10
-49.2448961774
 20
134.6684690699
 30
0.0
 11
-49.5483150713
 21
135.026448472
 31
0.0
  0
LINE
  5
E6
330
1F
100
AcDbEntity
  8
0
  6
Continuous
 62
     7
370
    15
100
AcDbLine
 10
-49.5483150713
 20
135.026448472
 30
0.0
 11
-50.1767647491
 21
134.7941749212
 31
0.0
  0
LINE
  5
E7
330
1F
100
AcDbEntity
  8
0
  6
Continuous
 62
     7
370
    15
100
AcDbLine
 10
-50.1767647491
 20
134.7941749212
 30
0.0
 11
-50.1744371158
 21
134.3249128839
 31
0.0
  0
ARC
  5
E8
330
1F
100
AcDbEntity
  8
0
  6
Continuous
 62
     7
370
    15
100
AcDbCircle
 10
-50.4044342864
 20
134.323772052
 30
0.0
 40
0.2299999999999813
100
AcDbArc
 50
290.5683923423
 51
0.2841961712
  0
ARC
  5
E9
330
1F
100
AcDbEntity
  8
0
  6
Continuous
 62
     7
370
    15
100
AcDbCircle
 10
0.0
 20
0.0
 30
0.0
 40
143.2394487827058
100
AcDbArc
 50
110.5683923423
 51
110.8
  0
ARC
  5
EA
330
1F
100
AcDbEntity
  8
0
  6
Continuous
 62
     7
370
    15
100
AcDbCircle
 10
-50.9470001556
 20
134.1189245005
 30
0.0
 40
0.2299999999999503
100
AcDbArc
 50
221.0841961712
 51
290.8
  0
LINE
  5
EB
330
1F
100
AcDbEntity
  8
0
  6
Continuous
 62
     7
370
    15
100
AcDbLine
 10
-51.1203614335
 20
133.9677760062
 30
0.0
 11
-51.4287489243
 21
134.3214841246
 31
0.0
  0
LINE
  5
EC
330
1F
100
AcDbEntity
  8
0
  6
Continuous
 62
     7
370
    15
100
AcDbLine
 10
-51.4287489243
 20
134.3214841246
 30
0.0
 11
-52.0538942982
 21
134.0804586872
 31
0.0
  0
LINE
  5
ED
330
1F
100
AcDbEntity
  8
0
  6
Continuous
 62
     7
370
    15
100
AcDbLine
 10
-52.0538942982
 20
134.0804586872
 30
0.0
 11
-52.0450149705
 21
133.6112748905
 31
0.0
  0
ARC
  5
EE
330
1F
100
AcDbEntity
  8
0
  6
Continuous
 62
     7
370
    15
100
AcDbCircle
 10
-52.2749737935
 20
133.6069229079
 30
0.0
 40
0.2299999999999789
100
AcDbArc
 50
291.3683923423
 51
1.0841961712
  0
ARC
  5
EF
330
1F
100
AcDbEntity
  8
0
  6
Continuous
 62
     7
370
    15
100
AcDbCircle
 10
0.0
 20
0.0
 30
0.0
 40
143.2394487827059
100
AcDbArc
 50
111.3683923423
 51
111.6
  0
ARC
  5
F0
330
1F
100
AcDbEntity
  8
0
  6
Continuous
 62
     7
370
    15
100
AcDbCircle
 10
-52.8146266571
 20
133.3945199215
 30
0.0
 40
0.2299999999999155
100
AcDbArc
 50
221.8841961712
 51
291.6
  0
LINE
  5
F1
330
1F
100
AcDbEntity
  8
0
  6
Continuous
 62
     7
370
    15
100
AcDbLine
 10
-52.9858606739
 20
133.2409656592
 30
0.0
 11
-53.2991566408
 21
133.5903335378
 31
0.0
  0
LINE
  5
F2
330
1F
100
AcDbEntity
  8
0
  6
Continuous
 62
     7
370
    15
100
AcDbLine
 10
-53.2991566408
 20
133.5903335378
 30
0.0
 11
-53.9208758374
 21
133.3406032021
 31
0.0
  0
LINE
  5
F3
330
1F
100
AcDbEntity
  8
0
  6
Continuous
 62
     7
370
    15
100
AcDbLine
 10
-53.9208758374
 20
133.3406032021
 30
0.0
 11
-53.9054465465
 21
132.8715891143
 31
0.0
  0
ARC
  5
F4
330
1F
100
AcDbEntity
  8
0
  6
Continuous
 62
     7
370
    15
100
AcDbCircle
 10
-54.1353221908
 20
132.8640268294
 30
0.0
 40
0.2299999999999598
100
AcDbArc
 50
292.1683923423
 51
1.8841961712
  0
ARC
  5
F5
330
1F
100
AcDbEntity
  8
0
  6
Continuous
 62
     7
370
    15
100
AcDbCircle
 10
0.0
 20
0.0
 30
0.0
 40
143.2394487827058
100
AcDbArc
 50
112.1683923423
 51
112.4
  0
ARC
  5
F6
330
1F
100
AcDbEntity
  8
0
  6
Continuous
 62
     7
370
    15
100
AcDbCircle
 10
-54.6719568424
 20
132.6441098166
 30
0.0
 40
0.2299999999999136
100
AcDbArc
 50
222.6841961712
 51
292.4
  0
LINE
  5
F7
330
1F
100
AcDbEntity
  8
0
  6
Continuous
 62
     7
370
    15
100
AcDbLine
 10
-54.8410302157
 20
132.4881797219
 30
0.0
 11
-55.1591735811
 21
132.8331392507
 31
0.0
  0
LINE
  5
F8
330
1F
100
AcDbEntity
  8
0
  6
Continuous
 62
     7
370
    15
100
AcDbLine
 10
-55.1591735811
 20
132.8331392507
 30
0.0
 11
-55.7773453951
 21
132.5747527022
 31
0.0
  0
LINE
  5
F9
330
1F
100
AcDbEntity
  8
0
  6
Continuous
 62
     7
370
    15
100
AcDbLine
 10
-55.7773453951
 20
132.5747527022
 30
0.0
 11
-55.7553691488
 21
132.1059997586
 31
0.0
  0
ARC
  5
FA
330
1F
100
AcDbEntity
  8
0
  6
Continuous
 62
     7
370
    15
100
AcDbCircle
 10
-55.9851167998
 20
132.0952286456
 30
0.0
 40
0.2299999999999598
100
AcDbArc
 50
292.9683923423
 51
2.6841961712
  0
ARC
  5
FB
330
1F
100
AcDbEntity
  8
0
  6
Continuous
 62
     7
370
    15
100
AcDbCircle
 10
0.0
 20
0.0
 30
0.0
 40
143.2394487827058
100
AcDbArc
 50
112.9683923423
 51
113.2
  0
ARC
  5
FC
330
1F
100
AcDbEntity
  8
0
  6
Continuous
 62
     7
370
    15
100
AcDbCircle
 10
-56.5186286214
 20
131.8678404797
 30
0.0
 40
0.2299999999999481
100
AcDbArc
 50
223.4841961712
 51
293.2
  0
LINE
  5
FD
330
1F
100
AcDbEntity
  8
0
  6
Continuous
 62
     7
370
    15
100
AcDbLine
 10
-56.6855083901
 20
131.7095649515
 30
0.0
 11
-57.0084371313
 21
132.05004888
 31
0.0
  0
LINE
  5
FE
330
1F
100
AcDbEntity
  8
0
  6
Continuous
 62
     7
370
    15
100
AcDbLine
 10
-57.0084371313
 20
132.05004888
 30
0.0
 11
-57.6229410487
 21
131.7830564916
 31
0.0
  0
LINE
  5
FF
330
1F
100
AcDbEntity
  8
0
  6
Continuous
 62
     7
370
    15
100
AcDbLine
 10
-57.6229410487
 20
131.7830564916
 30
0.0
 11
-57.5944221315
 21
131.3146560765
 31
0.0
  0
ARC
  5
100
330
1F
100
AcDbEntity
  8
0
  6
Continuous
 62
     7
370
    15
100
AcDbCircle
 10
-57.8239969994
 20
131.3006782352
 30
0.0
 40
0.2299999999999642
100
AcDbArc
 50
293.7683923423
 51
3.4841961712
  0
ARC
  5
101
330
1F
100
AcDbEntity
  8
0
  6
Continuous
 62
     7
370
    15
100
AcDbCircle
 10
0.0
 20
0.0
 30
0.0
 40
143.2394487827058
100
AcDbArc
 50
113.7683923423
 51
114.0
  0
ARC
  5
102
330
1F
100
AcDbEntity
  8
0
  6
Continuous
 62
     7
370
    15
100
AcDbCircle
 10
-58.3542819818
 20
131.0658632459
 30
0.0
 40
0.2299999999999384
100
AcDbArc
 50
224.2841961712
 51
294.0
  0
LINE
  5
103
330
1F
100
AcDbEntity
  8
0
  6
Continuous
 62
     7
370
    15
100
AcDbLine
 10
-58.5189356122
 20
130.9052731404
 30
0.0
 11
-58.8465867737
 21
131.2412150906
 31
0.0
  0
LINE
  5
104
330
1F
100
AcDbEntity
  8
0
  6
Continuous
 62
     7
370
    15
100
AcDbLine
 10
-58.8465867737
 20
131.2412150906
 30
0.0
 11
-59.4573029958
 21
130.965668913
 31
0.0
  0
LINE
  5
105
330
1F
100
AcDbEntity
  8
0
  6
Continuous
 62
     7
370
    15
100
AcDbLine
 10
-59.4573029958
 20
130.965668913
 30
0.0
 11
-59.4222469675
 21
130.497712342
 31
0.0
  0
ARC
  5
106
330
1F
100
AcDbEntity
  8
0
  6
Continuous
 62
     7
370
    15
100
AcDbCircle
 10
-59.6516042962
 20
130.4805304975
 30
0.0
 40
0.2299999999999403
100
AcDbArc
 50
294.5683923423
 51
4.2841961712
  0
ARC
  5
107
330
1F
100
AcDbEntity
  8
0
  6
Continuous
 62
     7
370
    15
100
AcDbCircle
 10
0.0
 20
0.0
 30
0.0
 40
143.2394487827059
100
AcDbArc
 50
114.5683923423
 51
114.8
  0
ARC
  5
108
330
1F
100
AcDbEntity
  8
0
  6
Continuous
 62
     7
370
    15
100
AcDbCircle
 10
-60.1785590593
 20
130.2383344625
 30
0.0
 40
0.2299999999999205
100
AcDbArc
 50
225.0841961712
 51
294.8
  0
LINE
  5
109
330
1F
100
AcDbEntity
  8
0
  6
Continuous
 62
     7
370
    15
100
AcDbLine
 10
-60.3409544519
 20
130.0754610869
 30
0.0
 11
-60.6732641573
 21
130.4067955663
 31
0.0
  0
LINE
  5
10A
330
1F
100
AcDbEntity
  8
0
  6
Continuous
 62
     7
370
    15
100
AcDbLine
 10
-60.6732641573
 20
130.4067955663
 30
0.0
 11
-61.2800736239
 21
130.1227493178
 31
0.0
  0
LINE
  5
10B
330
1F
100
AcDbEntity
  8
0
  6
Continuous
 62
     7
370
    15
100
AcDbLine
 10
-61.2800736239
 20
130.1227493178
 30
0.0
 11
-61.2384873186
 21
129.6553278198
 31
0.0
  0
ARC
  5
10C
330
1F
100
AcDbEntity
  8
0
  6
Continuous
 62
     7
370
    15
100
AcDbCircle
 10
-61.4675823945
 20
129.6349453218
 30
0.0
 40
0.2299999999999464
100
AcDbArc
 50
295.3683923423
 51
5.0841961712
  0
ARC
  5
10D
330
1F
100
AcDbEntity
  8
0
  6
Continuous
 62
     7
370
    15
100
AcDbCircle
 10
0.0
 20
0.0
 30
0.0
 40
143.2394487827059
100
AcDbArc
 50
115.3683923423
 51
115.6
  0
ARC
  5
10E
330
1F
100
AcDbEntity
  8
0
  6
Continuous
 62
     7
370
    15
100
AcDbCircle
 10
-61.9911042075
 20
129.3854154577
 30
0.0
 40
0.2299999999999328
100
AcDbArc
 50
225.8841961712
 51
295.6
  0
LINE
  5
10F
330
1F
100
AcDbEntity
  8
0
  6
Continuous
 62
     7
370
    15
100
AcDbLine
 10
-62.151209703
 20
129.2202905646
 30
0.0
 11
-62.488113168
 21
129.5469529787
 31
0.0
  0
LINE
  5
110
330
1F
100
AcDbEntity
  8
0
  6
Continuous
 62
     7
370
    15
100
AcDbLine
 10
-62.488113168
 20
129.5469529787
 30
0.0
 11
-63.0908975802
 21
129.2544620347
 31
0.0
  0
LINE
  5
111
330
1F
100
AcDbEntity
  8
0
  6
Continuous
 62
     7
370
    15
100
AcDbLine
 10
-63.0908975802
 20
129.2544620347
 30
0.0
 11
-63.0427891054
 21
128.7876667347
 31
0.0
  0
ARC
  5
112
330
1F
100
AcDbEntity
  8
0
  6
Continuous
 62
     7
370
    15
100
AcDbCircle
 10
-63.2715772658
 20
128.7640875567
 30
0.0
 40
0.2299999999999916
100
AcDbArc
 50
296.1683923423
 51
5.8841961712
  0
ARC
  5
113
330
1F
100
AcDbEntity
  8
0
  6
Continuous
 62
     7
370
    15
100
AcDbCircle
 10
0.0
 20
0.0
 30
0.0
 40
143.2394487827059
100
AcDbArc
 50
116.1683923423
 51
116.4
  0
ARC
  5
114
330
1F
100
AcDbEntity
  8
0
  6
Continuous
 62
     7
370
    15
100
AcDbCircle
 10
-63.7915640671
 20
128.5072725097
 30
0.0
 40
0.2299999999999386
100
AcDbArc
 50
226.6841961712
 51
296.4
  0
LINE
  5
115
330
1F
100
AcDbEntity
  8
0
  6
Continuous
 62
     7
370
    15
100
AcDbLine
 10
-63.9493484526
 20
128.3399282906
 30
0.0
 11
-64.2907799971
 21
128.661854956
 31
0.0
  0
LINE
  5
116
330
1F
100
AcDbEntity
  8
0
  6
Continuous
 62
     7
370
    15
100
AcDbLine
 10
-64.2907799971
 20
128.661854956
 30
0.0
 11
-64.889421841
 21
128.3609763382
 31
0.0
  0
LINE
  5
117
330
1F
100
AcDbEntity
  8
0
  6
Continuous
 62
     7
370
    15
100
AcDbLine
 10
-64.889421841
 20
128.3609763382
 30
0.0
 11
-64.8348005755
 21
127.8948982387
 31
0.0
  0
ARC
  5
118
330
1F
100
AcDbEntity
  8
0
  6
Continuous
 62
     7
370
    15
100
AcDbCircle
 10
-65.0632372178
 20
127.8681269776
 30
0.0
 40
0.2300000000000017
100
AcDbArc
 50
296.9683923423
 51
6.6841961712
  0
ARC
  5
119
330
1F
100
AcDbEntity
  8
0
  6
Continuous
 62
     7
370
    15
100
AcDbCircle
 10
0.0
 20
0.0
 30
0.0
 40
143.2394487827059
100
AcDbArc
 50
116.9683923423
 51
117.2
  0
ARC
  5
11A
330
1F
100
AcDbEntity
  8
0
  6
Continuous
 62
     7
370
    15
100
AcDbCircle
 10
-65.5795876348
 20
127.6040768144
 30
0.0
 40
0.2299999999999401
100
AcDbArc
 50
227.4841961712
 51
297.2
  0
LINE
  5
11B
330
1F
100
AcDbEntity
  8
0
  6
Continuous
 62
     7
370
    15
100
AcDbLine
 10
-65.73502015
 20
127.4345458933
 30
0.0
 11
-66.0809132113
 21
127.7516740498
 31
0.0
  0
LINE
  5
11C
330
1F
100
AcDbEntity
  8
0
  6
Continuous
 62
     7
370
    15
100
AcDbLine
 10
-66.0809132113
 20
127.7516740498
 30
0.0
 11
-66.6752957805
 21
127.442466415
 31
0.0
  0
LINE
  5
11D
330
1F
100
AcDbEntity
  8
0
  6
Continuous
 62
     7
370
    15
100
AcDbLine
 10
-66.6752957805
 20
127.442466415
 30
0.0
 11
-66.6141723727
 21
126.9771963789
 31
0.0
  0
ARC
  5
11E
330
1F
100
AcDbEntity
  8
0
  6
Continuous
 62
     7
370
    15
100
AcDbCircle
 10
-66.8422129628
 20
126.9472382537
 30
0.0
 40
0.2299999999999574
100
AcDbArc
 50
297.7683923423
 51
7.4841961712
  0
ARC
  5
11F
330
1F
100
AcDbEntity
  8
0
  6
Continuous
 62
     7
370
    15
100
AcDbCircle
 10
0.0
 20
0.0
 30
0.0
 40
143.2394487827058
100
AcDbArc
 50
117.7683923423
 51
118.0
  0
ARC
  5
120
330
1F
100
AcDbEntity
  8
0
  6
Continuous
 62
     7
370
    15
100
AcDbCircle
 10
-67.354826332
 20
126.6760044515
 30
0.0
 40
0.2299999999999292
100
AcDbArc
 50
228.2841961712
 51
298.0
  0
LINE
  5
121
330
1F
100
AcDbEntity
  8
0
  6
Continuous
 62
     7
370
    15
100
AcDbLine
 10
-67.507876675
 20
126.5043198787
 30
0.0
 11
-67.8581638205
 21
126.8165877016
 31
0.0
  0
LINE
  5
122
330
1F
100
AcDbEntity
  8
0
  6
Continuous
 62
     7
370
    15
100
AcDbLine
 10
-67.8581638205
 20
126.8165877016
 30
0.0
 11
-68.4481712389
 21
126.4991113305
 31
0.0
  0
LINE
  5
123
330
1F
100
AcDbEntity
  8
0
  6
Continuous
 62
     7
370
    15
100
AcDbLine
 10
-68.4481712389
 20
126.4991113305
 30
0.0
 11
-68.3805576051
 21
126.0347400631
 31
0.0
  0
ARC
  5
124
330
1F
100
AcDbEntity
  8
0
  6
Continuous
 62
     7
370
    15
100
AcDbCircle
 10
-68.6081576859
 20
126.0016009143
 30
0.0
 40
0.2299999999999437
100
AcDbArc
 50
298.5683923423
 51
8.2841961712
  0
ARC
  5
125
330
1F
100
AcDbEntity
  8
0
  6
Continuous
 62
     7
370
    15
100
AcDbCircle
 10
0.0
 20
0.0
 30
0.0
 40
143.2394487827058
100
AcDbArc
 50
118.5683923423
 51
118.8
  0
ARC
  5
126
330
1F
100
AcDbEntity
  8
0
  6
Continuous
 62
     7
370
    15
100
AcDbCircle
 10
-69.1169340724
 20
125.7232363505
 30
0.0
 40
0.2299999999999301
100
AcDbArc
 50
229.0841961712
 51
298.8
  0
LINE
  5
127
330
1F
100
AcDbEntity
  8
0
  6
Continuous
 62
     7
370
    15
100
AcDbLine
 10
-69.2675724057
 20
125.5494315964
 30
0.0
 11
-69.6221853463
 21
125.8567782083
 31
0.0
  0
LINE
  5
128
330
1F
100
AcDbEntity
  8
0
  6
Continuous
 62
     7
370
    15
100
AcDbLine
 10
-69.6221853463
 20
125.8567782083
 30
0.0
 11
-70.2077025908
 21
125.5310949936
 31
0.0
  0
LINE
  5
129
330
1F
100
AcDbEntity
  8
0
  6
Continuous
 62
     7
370
    15
100
AcDbLine
 10
-70.2077025908
 20
125.5310949936
 30
0.0
 11
-70.1336119122
 21
125.067713025
 31
0.0
  0
ARC
  5
12A
330
1F
100
AcDbEntity
  8
0
  6
Continuous
 62
     7
370
    15
100
AcDbCircle
 10
-70.3607271128
 20
125.031399313
 30
0.0
 40
0.2299999999999748
100
AcDbArc
 50
299.3683923423
 51
9.0841961712
  0
ARC
  5
12B
330
1F
100
AcDbEntity
  8
0
  6
Continuous
 62
     7
370
    15
100
AcDbCircle
 10
0.0
 20
0.0
 30
0.0
 40
143.2394487827058
100
AcDbArc
 50
119.3683923423
 51
119.6
  0
ARC
  5
12C
330
1F
100
AcDbEntity
  8
0
  6
Continuous
 62
     7
370
    15
100
AcDbCircle
 10
-70.8655673295
 20
124.7459582555
 30
0.0
 40
0.2299999999999302
100
AcDbArc
 50
229.8841961712
 51
299.6
  0
LINE
  5
12D
330
1F
100
AcDbEntity
  8
0
  6
Continuous
 62
     7
370
    15
100
AcDbLine
 10
-71.0137642858
 20
124.5700672036
 30
0.0
 11
-71.372633889
 21
124.8724326868
 31
0.0
  0
LINE
  5
12E
330
1F
100
AcDbEntity
  8
0
  6
Continuous
 62
     7
370
    15
100
AcDbLine
 10
-71.372633889
 20
124.8724326868
 30
0.0
 11
-71.9535468119
 21
124.538606121
 31
0.0
  0
LINE
  5
12F
330
1F
100
AcDbEntity
  8
0
  6
Continuous
 62
     7
370
    15
100
AcDbLine
 10
-71.9535468119
 20
124.538606121
 30
0.0
 11
-71.8729935328
 21
124.0763037884
 31
0.0
  0
ARC
  5
130
330
1F
100
AcDbEntity
  8
0
  6
Continuous
 62
     7
370
    15
100
AcDbCircle
 10
-72.0995795765
 20
124.0368225928
 30
0.0
 40
0.2299999999999836
100
AcDbArc
 50
300.1683923423
 51
9.8841961712
  0
ARC
  5
131
330
1F
100
AcDbEntity
  8
0
  6
Continuous
 62
     7
370
    15
100
AcDbCircle
 10
0.0
 20
0.0
 30
0.0
 40
143.2394487827058
100
AcDbArc
 50
120.1683923423
 51
120.4
  0
ARC
  5
132
330
1F
100
AcDbEntity
  8
0
  6
Continuous
 62
     7
370
    15
100
AcDbCircle
 10
-72.6003852039
 20
123.7443606887
 30
0.0
 40
0.2299999999999386
100
AcDbArc
 50
230.6841961712
 51
300.4
  0
LINE
  5
133
330
1F
100
AcDbEntity
  8
0
  6
Continuous
 62
     7
370
    15
100
AcDbLine
 10
-72.746111892
 20
123.5664176293
 30
0.0
 11
-73.1091681954
 21
123.863743037
 31
0.0
  0
LINE
  5
134
330
1F
100
AcDbEntity
  8
0
  6
Continuous
 62
     7
370
    15
100
AcDbLine
 10
-73.1091681954
 20
123.863743037
 30
0.0
 11
-73.6853635465
 21
123.5218382003
 31
0.0
  0
LINE
  5
135
330
1F
100
AcDbEntity
  8
0
  6
Continuous
 62
     7
370
    15
100
AcDbLine
 10
-73.6853635465
 20
123.5218382003
 30
0.0
 11
-73.5983633708
 21
123.0607056305
 31
0.0
  0
ARC
  5
136
330
1F
100
AcDbEntity
  8
0
  6
Continuous
 62
     7
370
    15
100
AcDbCircle
 10
-73.8243760843
 20
123.0180646482
 30
0.0
 40
0.229999999999966
100
AcDbArc
 50
300.9683923423
 51
10.6841961712
  0
ARC
  5
137
330
1F
100
AcDbEntity
  8
0
  6
Continuous
 62
     7
370
    15
100
AcDbCircle
 10
0.0
 20
0.0
 30
0.0
 40
143.2394487827058
100
AcDbArc
 50
120.9683923423
 51
121.2
  0
ARC
  5
138
330
1F
100
AcDbEntity
  8
0
  6
Continuous
 62
     7
370
    15
100
AcDbCircle
 10
-74.3210494893
 20
122.7186389137
 30
0.0
 40
0.2299999999999363
100
AcDbArc
 50
231.4841961712
 51
301.2
  0
LINE
  5
139
330
1F
100
AcDbEntity
  8
0
  6
Continuous
 62
     7
370
    15
100
AcDbLine
 10
-74.4642774995
 20
122.5386785371
 30
0.0
 11
-74.8314497245
 21
122.8309059052
 31
0.0
  0
LINE
  5
13A
330
1F
100
AcDbEntity
  8
0
  6
Continuous
 62
     7
370
    15
100
AcDbLine
 10
-74.8314497245
 20
122.8309059052
 30
0.0
 11
-75.4028151734
 21
122.4809894526
 31
0.0
  0
LINE
  5
13B
330
1F
100
AcDbEntity
  8
0
  6
Continuous
 62
     7
370
    15
100
AcDbLine
 10
-75.4028151734
 20
122.4809894526
 30
0.0
 11
-75.3093850621
 21
122.0211165443
 31
0.0
  0
ARC
  5
13C
330
1F
100
AcDbEntity
  8
0
  6
Continuous
 62
     7
370
    15
100
AcDbCircle
 10
-75.5347803836
 20
121.9753240881
 30
0.0
 40
0.2299999999999804
100
AcDbArc
 50
301.7683923423
 51
11.4841961712
  0
ARC
  5
13D
330
1F
100
AcDbEntity
  8
0
  6
Continuous
 62
     7
370
    15
100
AcDbCircle
 10
0.0
 20
0.0
 30
0.0
 40
143.2394487827058
100
AcDbArc
 50
121.7683923423
 51
122.0
  0
ARC
  5
13E
330
1F
100
AcDbEntity
  8
0
  6
Continuous
 62
     7
370
    15
100
AcDbCircle
 10
-76.0272247389
 20
121.6689928968
 30
0.0
 40
0.2299999999999331
100
AcDbArc
 50
232.2841961712
 51
302.0
  0
LINE
  5
13F
330
1F
100
AcDbEntity
  8
0
  6
Continuous
 62
     7
370
    15
100
AcDbLine
 10
-76.1679261485
 20
121.4870502868
 30
0.0
 11
-76.5391427143
 21
121.7741226448
 31
0.0
  0
LINE
  5
140
330
1F
100
AcDbEntity
  8
0
  6
Continuous
 62
     7
370
    15
100
AcDbLine
 10
-76.5391427143
 20
121.7741226448
 30
0.0
 11
-77.1055668722
 21
121.4162627933
 31
0.0
  0
LINE
  5
141
330
1F
100
AcDbEntity
  8
0
  6
Continuous
 62
     7
370
    15
100
AcDbLine
 10
-77.1055668722
 20
121.4162627933
 30
0.0
 11
-77.0057250396
 21
120.9577391996
 31
0.0
  0
ARC
  5
142
330
1F
100
AcDbEntity
  8
0
  6
Continuous
 62
     7
370
    15
100
AcDbCircle
 10
-77.2304590279
 20
120.908804197
 30
0.0
 40
0.2299999999999551
100
AcDbArc
 50
302.5683923423
 51
12.2841961712
  0
ARC
  5
143
330
1F
100
AcDbEntity
  8
0
  6
Continuous
 62
     7
370
    15
100
AcDbCircle
 10
0.0
 20
0.0
 30
0.0
 40
143.2394487827059
100
AcDbArc
 50
122.5683923423
 51
122.8
  0
ARC
  5
144
330
1F
100
AcDbEntity
  8
0
  6
Continuous
 62
     7
370
    15
100
AcDbCircle
 10
-77.7185783303
 20
120.5956272687
 30
0.0
 40
0.2299999999999314
100
AcDbArc
 50
233.0841961712
 51
302.8
  0
LINE
  5
145
330
1F
100
AcDbEntity
  8
0
  6
Continuous
 62
     7
370
    15
100
AcDbLine
 10
-77.8567257094
 20
120.4117378953
 30
0.0
 11
-78.2319142466
 21
120.693599278
 31
0.0
  0
LINE
  5
146
330
1F
100
AcDbEntity
  8
0
  6
Continuous
 62
     7
370
    15
100
AcDbLine
 10
-78.2319142466
 20
120.693599278
 30
0.0
 11
-78.7932866879
 21
120.3278657929
 31
0.0
  0
LINE
  5
147
330
1F
100
AcDbEntity
  8
0
  6
Continuous
 62
     7
370
    15
100
AcDbLine
 10
-78.7932866879
 20
120.3278657929
 30
0.0
 11
-78.6870525984
 21
119.870780904
 31
0.0
  0
ARC
  5
148
330
1F
100
AcDbEntity
  8
0
  6
Continuous
 62
     7
370
    15
100
AcDbCircle
 10
-78.9110814412
 20
119.8187128949
 30
0.0
 40
0.2299999999999948
100
AcDbArc
 50
303.3683923423
 51
13.0841961712
  0
ARC
  5
149
330
1F
100
AcDbEntity
  8
0
  6
Continuous
 62
     7
370
    15
100
AcDbCircle
 10
0.0
 20
0.0
 30
0.0
 40
143.2394487827058
100
AcDbArc
 50
123.3683923423
 51
123.6
  0
ARC
  5
14A
330
1F
100
AcDbEntity
  8
0
  6
Continuous
 62
     7
370
    15
100
AcDbCircle
 10
-79.394780531
 20
119.4987512841
 30
0.0
 40
0.2299999999999373
100
AcDbArc
 50
233.8841961712
 51
303.6
  0
LINE
  5
14B
330
1F
100
AcDbEntity
  8
0
  6
Continuous
 62
     7
370
    15
100
AcDbLine
 10
-79.5303469474
 20
119.3129509968
 30
0.0
 11
-79.9094343121
 21
119.5895464549
 31
0.0
  0
LINE
  5
14C
330
1F
100
AcDbEntity
  8
0
  6
Continuous
 62
     7
370
    15
100
AcDbLine
 10
-79.9094343121
 20
119.5895464549
 30
0.0
 11
-80.4656455962
 21
119.2160106368
 31
0.0
  0
LINE
  5
14D
330
1F
100
AcDbEntity
  8
0
  6
Continuous
 62
     7
370
    15
100
AcDbLine
 10
-80.4656455962
 20
119.2160106368
 30
0.0
 11
-80.3530399603
 21
118.7604535621
 31
0.0
  0
ARC
  5
14E
330
1F
100
AcDbEntity
  8
0
  6
Continuous
 62
     7
370
    15
100
AcDbCircle
 10
-80.5763199828
 20
118.7052626973
 30
0.0
 40
0.2299999999999905
100
AcDbArc
 50
304.1683923423
 51
13.8841961712
  0
ARC
  5
14F
330
1F
100
AcDbEntity
  8
0
  6
Continuous
 62
     7
370
    15
100
AcDbCircle
 10
0.0
 20
0.0
 30
0.0
 40
143.2394487827058
100
AcDbArc
 50
124.1683923423
 51
124.4
  0
ARC
  5
150
330
1F
100
AcDbEntity
  8
0
  6
Continuous
 62
     7
370
    15
100
AcDbCircle
 10
-81.0555045618
 20
118.3785787812
 30
0.0
 40
0.2299999999999241
100
AcDbArc
 50
234.6841961712
 51
304.4
  0
LINE
  5
151
330
1F
100
AcDbEntity
  8
0
  6
Continuous
 62
     7
370
    15
100
AcDbLine
 10
-81.1884635866
 20
118.1909038022
 30
0.0
 11
-81.5713758751
 21
118.4621794127
 31
0.0
  0
LINE
  5
152
330
1F
100
AcDbEntity
  8
0
  6
Continuous
 62
     7
370
    15
100
AcDbLine
 10
-81.5713758751
 20
118.4621794127
 30
0.0
 11
-82.1223175675
 21
118.0809140831
 31
0.0
  0
LINE
  5
153
330
1F
100
AcDbEntity
  8
0
  6
Continuous
 62
     7
370
    15
100
AcDbLine
 10
-82.1223175675
 20
118.0809140831
 30
0.0
 11
-82.003362338
 21
117.6269736345
 31
0.0
  0
ARC
  5
154
330
1F
100
AcDbEntity
  8
0
  6
Continuous
 62
     7
370
    15
100
AcDbCircle
 10
-82.2258500112
 20
117.5686706736
 30
0.0
 40
0.2299999999999807
100
AcDbArc
 50
304.9683923423
 51
14.6841961712
  0
ARC
  5
155
330
1F
100
AcDbEntity
  8
0
  6
Continuous
 62
     7
370
    15
100
AcDbCircle
 10
0.0
 20
0.0
 30
0.0
 40
143.2394487827058
100
AcDbArc
 50
124.9683923423
 51
125.2
  0
ARC
  5
156
330
1F
100
AcDbEntity
  8
0
  6
Continuous
 62
     7
370
    15
100
AcDbCircle
 10
-82.7004266614
 20
117.2353281397
 30
0.0
 40
0.2299999999999419
100
AcDbArc
 50
235.4841961712
 51
305.2
  0
LINE
  5
157
330
1F
100
AcDbEntity
  8
0
  6
Continuous
 62
     7
370
    15
100
AcDbLine
 10
-82.830752374
 20
117.0458150567
 30
0.0
 11
-83.2174149368
 21
117.3117179339
 31
0.0
  0
LINE
  5
158
330
1F
100
AcDbEntity
  8
0
  6
Continuous
 62
     7
370
    15
100
AcDbLine
 10
-83.2174149368
 20
117.3117179339
 30
0.0
 11
-83.7629796303
 21
116.9227974213
 31
0.0
  0
LINE
  5
159
330
1F
100
AcDbEntity
  8
0
  6
Continuous
 62
     7
370
    15
100
AcDbLine
 10
-83.7629796303
 20
116.9227974213
 30
0.0
 11
-83.6376979976
 21
116.4705620954
 31
0.0
  0
ARC
  5
15A
330
1F
100
AcDbEntity
  8
0
  6
Continuous
 62
     7
370
    15
100
AcDbCircle
 10
-83.8593499472
 20
116.4091584045
 30
0.0
 40
0.2299999999999925
100
AcDbArc
 50
305.7683923423
 51
15.4841961712
  0
ARC
  5
15B
330
1F
100
AcDbEntity
  8
0
  6
Continuous
 62
     7
370
    15
100
AcDbCircle
 10
0.0
 20
0.0
 30
0.0
 40
143.2394487827059
100
AcDbArc
 50
125.7683923423
 51
126.0
  0
ARC
  5
15C
330
1F
100
AcDbEntity
  8
0
  6
Continuous
 62
     7
370
    15
100
AcDbCircle
 10
-84.329226149
 20
116.0692222388
 30
0.0
 40
0.2299999999999296
100
AcDbArc
 50
236.2841961712
 51
306.0
  0
LINE
  5
15D
330
1F
100
AcDbEntity
  8
0
  6
Continuous
 62
     7
370
    15
100
AcDbLine
 10
-84.4568931422
 20
115.8779079977
 30
0.0
 11
-84.8472305985
 21
116.1383863033
 31
0.0
  0
LINE
  5
15E
330
1F
100
AcDbEntity
  8
0
  6
Continuous
 62
     7
370
    15
100
AcDbLine
 10
-84.8472305985
 20
116.1383863033
 30
0.0
 11
-85.3873119342
 21
115.7418864284
 31
0.0
  0
LINE
  5
15F
330
1F
100
AcDbEntity
  8
0
  6
Continuous
 62
     7
370
    15
100
AcDbLine
 10
-85.3873119342
 20
115.7418864284
 30
0.0
 11
-85.2557283223
 21
115.2914443893
 31
0.0
  0
ARC
  5
160
330
1F
100
AcDbEntity
  8
0
  6
Continuous
 62
     7
370
    15
100
AcDbCircle
 10
-85.4765013367
 20
115.2269519394
 30
0.0
 40
0.2300000000000157
100
AcDbArc
 50
306.5683923423
 51
16.2841961712
  0
ARC
  5
161
330
1F
100
AcDbEntity
  8
0
  6
Continuous
 62
     7
370
    15
100
AcDbCircle
 10
0.0
 20
0.0
 30
0.0
 40
143.2394487827059
100
AcDbArc
 50
126.5683923423
 51
126.8
  0
ARC
  5
162
330
1F
100
AcDbEntity
  8
0
  6
Continuous
 62
     7
370
    15
100
AcDbCircle
 10
-85.9415854869
 20
114.880488413
 30
0.0
 40
0.2299999999999162
100
AcDbArc
 50
237.0841961712
 51
306.8
  0
LINE
  5
163
330
1F
100
AcDbEntity
  8
0
  6
Continuous
 62
     7
370
    15
100
AcDbLine
 10
-86.0665688716
 20
114.6874103109
 30
0.0
 11
-86.4605051245
 21
114.9424132641
 31
0.0
  0
LINE
  5
164
330
1F
100
AcDbEntity
  8
0
  6
Continuous
 62
     7
370
    15
100
AcDbLine
 10
-86.4605051245
 20
114.9424132641
 30
0.0
 11
-86.9949978125
 21
114.5384113255
 31
0.0
  0
LINE
  5
165
330
1F
100
AcDbEntity
  8
0
  6
Continuous
 62
     7
370
    15
100
AcDbLine
 10
-86.9949978125
 20
114.5384113255
 30
0.0
 11
-86.8571378739
 21
114.0898503878
 31
0.0
  0
ARC
  5
166
330
1F
100
AcDbEntity
  8
0
  6
Continuous
 62
     7
370
    15
100
AcDbCircle
 10
-87.076988913
 20
114.0222817517
 30
0.0
 40
0.2300000000000045
100
AcDbArc
 50
307.3683923423
 51
17.0841961712
  0
ARC
  5
167
330
1F
100
AcDbEntity
  8
0
  6
Continuous
 62
     7
370
    15
100
AcDbCircle
 10
0.0
 20
0.0
 30
0.0
 40
143.2394487827058
100
AcDbArc
 50
127.3683923423
 51
127.6
  0
ARC
  5
168
330
1F
100
AcDbEntity
  8
0
  6
Continuous
 62
     7
370
    15
100
AcDbCircle
 10
-87.5371903423
 20
113.6693584084
 30
0.0
 40
0.2299999999999447
100
AcDbArc
 50
237.8841961712
 51
307.6
  0
LINE
  5
169
330
1F
100
AcDbEntity
  8
0
  6
Continuous
 62
     7
370
    15
100
AcDbLine
 10
-87.6594657529
 20
113.4745540862
 30
0.0
 11
-88.0569240037
 21
113.7240319738
 31
0.0
  0
LINE
  5
16A
330
1F
100
AcDbEntity
  8
0
  6
Continuous
 62
     7
370
    15
100
AcDbLine
 10
-88.0569240037
 20
113.7240319738
 30
0.0
 11
-88.5857238436
 21
113.3126067323
 31
0.0
  0
LINE
  5
16B
330
1F
100
AcDbEntity
  8
0
  6
Continuous
 62
     7
370
    15
100
AcDbLine
 10
-88.5857238436
 20
113.3126067323
 30
0.0
 11
-88.4416144543
 21
112.8660143439
 31
0.0
  0
ARC
  5
16C
330
1F
100
AcDbEntity
  8
0
  6
Continuous
 62
     7
370
    15
100
AcDbCircle
 10
-88.6605006577
 20
112.7953826942
 30
0.0
 40
0.2299999999999776
100
AcDbArc
 50
308.1683923423
 51
17.8841961712
  0
ARC
  5
16D
330
1F
100
AcDbEntity
  8
0
  6
Continuous
 62
     7
370
    15
100
AcDbCircle
 10
0.0
 20
0.0
 30
0.0
 40
143.2394487827059
100
AcDbArc
 50
128.1683923423
 51
128.4
  0
ARC
  5
16E
330
1F
100
AcDbEntity
  8
0
  6
Continuous
 62
     7
370
    15
100
AcDbCircle
 10
-89.1157296491
 20
112.4360683372
 30
0.0
 40
0.2299999999999461
100
AcDbArc
 50
238.6841961712
 51
308.4
  0
LINE
  5
16F
330
1F
100
AcDbEntity
  8
0
  6
Continuous
 62
     7
370
    15
100
AcDbLine
 10
-89.2352732477
 20
112.2395757723
 30
0.0
 11
-89.6361760111
 21
112.483479958
 31
0.0
  0
LINE
  5
170
330
1F
100
AcDbEntity
  8
0
  6
Continuous
 62
     7
370
    15
100
AcDbLine
 10
-89.6361760111
 20
112.483479958
 30
0.0
 11
-90.1591799123
 21
112.0647116219
 31
0.0
  0
LINE
  5
171
330
1F
100
AcDbEntity
  8
0
  6
Continuous
 62
     7
370
    15
100
AcDbLine
 10
-90.1591799123
 20
112.0647116219
 30
0.0
 11
-90.0088491667
 21
111.6201748468
 31
0.0
  0
ARC
  5
172
330
1F
100
AcDbEntity
  8
0
  6
Continuous
 62
     7
370
    15
100
AcDbCircle
 10
-90.2267278622
 20
111.5464939534
 30
0.0
 40
0.2299999999999841
100
AcDbArc
 50
308.9683923423
 51
18.6841961712
  0
ARC
  5
173
330
1F
100
AcDbEntity
  8
0
  6
Continuous
 62
     7
370
    15
100
AcDbCircle
 10
0.0
 20
0.0
 30
0.0
 40
143.2394487827058
100
AcDbArc
 50
128.9683923423
 51
129.2
  0
ARC
  5
174
330
1F
100
AcDbEntity
  8
0
  6
Continuous
 62
     7
370
    15
100
AcDbCircle
 10
-90.6768956678
 20
111.1808586316
 30
0.0
 40
0.2299999999999382
100
AcDbArc
 50
239.4841961712
 51
309.2
  0
LINE
  5
175
330
1F
100
AcDbEntity
  8
0
  6
Continuous
 62
     7
370
    15
100
AcDbLine
 10
-90.7936841492
 20
110.9827161308
 30
0.0
 11
-91.1979532684
 21
111.220999065
 31
0.0
  0
LINE
  5
176
330
1F
100
AcDbEntity
  8
0
  6
Continuous
 62
     7
370
    15
100
AcDbLine
 10
-91.1979532684
 20
111.220999065
 30
0.0
 11
-91.7150592703
 21
110.794969274
 31
0.0
  0
LINE
  5
177
330
1F
100
AcDbEntity
  8
0
  6
Continuous
 62
     7
370
    15
100
AcDbLine
 10
-91.7150592703
 20
110.794969274
 30
0.0
 11
-91.5585364757
 21
110.3525747755
 31
0.0
  0
ARC
  5
178
330
1F
100
AcDbEntity
  8
0
  6
Continuous
 62
     7
370
    15
100
AcDbCircle
 10
-91.7753651873
 20
110.2758590026
 30
0.0
 40
0.2299999999999544
100
AcDbArc
 50
309.7683923423
 51
19.4841961712
  0
ARC
  5
179
330
1F
100
AcDbEntity
  8
0
  6
Continuous
 62
     7
370
    15
100
AcDbCircle
 10
0.0
 20
0.0
 30
0.0
 40
143.2394487827059
100
AcDbArc
 50
129.7683923423
 51
130.0
  0
ARC
  5
17A
330
1F
100
AcDbEntity
  8
0
  6
Continuous
 62
     7
370
    15
100
AcDbCircle
 10
-92.2203840461
 20
109.9039739973
 30
0.0
 40
0.2299999999999395
100
AcDbArc
 50
240.2841961712
 51
310.0
  0
LINE
  5
17B
330
1F
100
AcDbEntity
  8
0
  6
Continuous
 62
     7
370
    15
100
AcDbLine
 10
-92.334394642
 20
109.7042201888
 30
0.0
 11
-92.741951304
 21
109.9368354178
 31
0.0
  0
LINE
  5
17C
330
1F
100
AcDbEntity
  8
0
  6
Continuous
 62
     7
370
    15
100
AcDbLine
 10
-92.741951304
 20
109.9368354178
 30
0.0
 11
-93.2530585957
 21
109.5036272272
 31
0.0
  0
LINE
  5
17D
330
1F
100
AcDbEntity
  8
0
  6
Continuous
 62
     7
370
    15
100
AcDbLine
 10
-93.2530585957
 20
109.5036272272
 30
0.0
 11
-93.0903742665
 21
109.0634612511
 31
0.0
  0
ARC
  5
17E
330
1F
100
AcDbEntity
  8
0
  6
Continuous
 62
     7
370
    15
100
AcDbCircle
 10
-93.3061107231
 20
108.9837255545
 30
0.0
 40
0.2300000000000071
100
AcDbArc
 50
310.5683923423
 51
20.2841961712
  0
ARC
  5
17F
330
1F
100
AcDbEntity
  8
0
  6
Continuous
 62
     7
370
    15
100
AcDbCircle
 10
0.0
 20
0.0
 30
0.0
 40
143.2394487827058
100
AcDbArc
 50
130.5683923423
 51
130.8
  0
ARC
  5
180
330
1F
100
AcDbEntity
  8
0
  6
Continuous
 62
     7
370
    15
100
AcDbCircle
 10
-93.7458938777
 20
108.6056633656
 30
0.0
 40
0.2299999999999406
100
AcDbArc
 50
241.0841961712
 51
310.8
  0
LINE
  5
181
330
1F
100
AcDbEntity
  8
0
  6
Continuous
 62
     7
370
    15
100
AcDbLine
 10
-93.8571043617
 20
108.4043371918
 30
0.0
 11
-94.2678691124
 21
108.6312393668
 31
0.0
  0
LINE
  5
182
330
1F
100
AcDbEntity
  8
0
  6
Continuous
 62
     7
370
    15
100
AcDbLine
 10
-94.2678691124
 20
108.6312393668
 30
0.0
 11
-94.7728780525
 21
108.1909372314
 31
0.0
  0
LINE
  5
183
330
1F
100
AcDbEntity
  8
0
  6
Continuous
 62
     7
370
    15
100
AcDbLine
 10
-94.7728780525
 20
108.1909372314
 30
0.0
 11
-94.6040639045
 21
107.7530855888
 31
0.0
  0
ARC
  5
184
330
1F
100
AcDbEntity
  8
0
  6
Continuous
 62
     7
370
    15
100
AcDbCircle
 10
-94.8186660477
 20
107.6703455132
 30
0.0
 40
0.2299999999999558
100
AcDbArc
 50
311.3683923423
 51
21.0841961712
  0
ARC
  5
185
330
1F
100
AcDbEntity
  8
0
  6
Continuous
 62
     7
370
    15
100
AcDbCircle
 10
0.0
 20
0.0
 30
0.0
 40
143.2394487827059
100
AcDbArc
 50
131.3683923423
 51
131.6
  0
ARC
  5
186
330
1F
100
AcDbEntity
  8
0
  6
Continuous
 62
     7
370
    15
100
AcDbCircle
 10
-95.2531277616
 20
107.2861798446
 30
0.0
 40
0.2299999999999417
100
AcDbArc
 50
241.8841961712
 51
311.6
  0
LINE
  5
187
330
1F
100
AcDbEntity
  8
0
  6
Continuous
 62
     7
370
    15
100
AcDbLine
 10
-95.3615164529
 20
107.0833205544
 30
0.0
 11
-95.775409213
 21
107.3044654404
 31
0.0
  0
LINE
  5
188
330
1F
100
AcDbEntity
  8
0
  6
Continuous
 62
     7
370
    15
100
AcDbLine
 10
-95.775409213
 20
107.3044654404
 30
0.0
 11
-96.274221349
 21
106.857155198
 31
0.0
  0
LINE
  5
189
330
1F
100
AcDbEntity
  8
0
  6
Continuous
 62
     7
370
    15
100
AcDbLine
 10
-96.274221349
 20
106.857155198
 30
0.0
 11
-96.0993102927
 21
106.421703249
 31
0.0
  0
ARC
  5
18A
330
1F
100
AcDbEntity
  8
0
  6
Continuous
 62
     7
370
    15
100
AcDbCircle
 10
-96.3127362856
 20
106.3359749248
 30
0.0
 40
0.229999999999979
100
AcDbArc
 50
312.1683923423
 51
21.8841961712
  0
ARC
  5
18B
330
1F
100
AcDbEntity
  8
0
  6
Continuous
 62
     7
370
    15
100
AcDbCircle
 10
0.0
 20
0.0
 30
0.0
 40
143.2394487827058
100
AcDbArc
 50
132.1683923423
 51
132.4
  0
ARC
  5
18C
330
1F
100
AcDbEntity
  8
0
  6
Continuous
 62
     7
370
    15
100
AcDbCircle
 10
-96.7417918595
 20
105.9457806702
 30
0.0
 40
0.2299999999999402
100
AcDbArc
 50
242.6841961712
 51
312.4
  0
LINE
  5
18D
330
1F
100
AcDbEntity
  8
0
  6
Continuous
 62
     7
370
    15
100
AcDbLine
 10
-96.8473376275
 20
105.7414278115
 30
0.0
 11
-97.2642777078
 21
105.9567722958
 31
0.0
  0
LINE
  5
18E
330
1F
100
AcDbEntity
  8
0
  6
Continuous
 62
     7
370
    15
100
AcDbLine
 10
-97.2642777078
 20
105.9567722958
 30
0.0
 11
-97.7567957953
 21
105.5025411504
 31
0.0
  0
LINE
  5
18F
330
1F
100
AcDbEntity
  8
0
  6
Continuous
 62
     7
370
    15
100
AcDbLine
 10
-97.7567957953
 20
105.5025411504
 30
0.0
 11
-97.57582193
 21
105.0695737872
 31
0.0
  0
ARC
  5
190
330
1F
100
AcDbEntity
  8
0
  6
Continuous
 62
     7
370
    15
100
AcDbCircle
 10
-97.7880301646
 20
104.9808739273
 30
0.0
 40
0.2299999999999758
100
AcDbArc
 50
312.9683923423
 51
22.6841961712
  0
ARC
  5
191
330
1F
100
AcDbEntity
  8
0
  6
Continuous
 62
     7
370
    15
100
AcDbCircle
 10
0.0
 20
0.0
 30
0.0
 40
143.2394487827059
100
AcDbArc
 50
132.9683923423
 51
133.2
  0
ARC
  5
192
330
1F
100
AcDbEntity
  8
0
  6
Continuous
 62
     7
370
    15
100
AcDbCircle
 10
-98.2115959534
 20
104.584727156
 30
0.0
 40
0.22999999999995
100
AcDbArc
 50
243.4841961712
 51
313.2
  0
LINE
  5
193
330
1F
100
AcDbEntity
  8
0
  6
Continuous
 62
     7
370
    15
100
AcDbLine
 10
-98.3142782217
 20
104.3789205678
 30
0.0
 11
-98.7341843389
 21
104.5884226685
 31
0.0
  0
LINE
  5
194
330
1F
100
AcDbEntity
  8
0
  6
Continuous
 62
     7
370
    15
100
AcDbLine
 10
-98.7341843389
 20
104.5884226685
 30
0.0
 11
-99.2203123606
 21
104.1273591734
 31
0.0
  0
LINE
  5
195
330
1F
100
AcDbEntity
  8
0
  6
Continuous
 62
     7
370
    15
100
AcDbLine
 10
-99.2203123606
 20
104.1273591734
 30
0.0
 11
-99.0333109675
 21
103.6969608039
 31
0.0
  0
ARC
  5
196
330
1F
100
AcDbEntity
  8
0
  6
Continuous
 62
     7
370
    15
100
AcDbCircle
 10
-99.2442600734
 20
103.6053067004
 30
0.0
 40
0.229999999999981
100
AcDbArc
 50
313.7683923423
 51
23.4841961712
  0
ARC
  5
197
330
1F
100
AcDbEntity
  8
0
  6
Continuous
 62
     7
370
    15
100
AcDbCircle
 10
0.0
 20
0.0
 30
0.0
 40
143.2394487827058
100
AcDbArc
 50
133.7683923423
 51
134.0
  0
ARC
  5
198
330
1F
100
AcDbEntity
  8
0
  6
Continuous
 62
     7
370
    15
100
AcDbCircle
 10
-99.662253502
 20
103.203284642
 30
0.0
 40
0.2299999999999292
100
AcDbArc
 50
244.2841961712
 51
314.0
  0
LINE
  5
199
330
1F
100
AcDbEntity
  8
0
  6
Continuous
 62
     7
370
    15
100
AcDbLine
 10
-99.7620522526
 20
102.9960644466
 30
0.0
 11
-100.1848425452
 21
103.199683321
 31
0.0
  0
LINE
  5
19A
330
1F
100
AcDbEntity
  8
0
  6
Continuous
 62
     7
370
    15
100
AcDbLine
 10
-100.1848425452
 20
103.199683321
 30
0.0
 11
-100.6644857294
 21
102.7318773614
 31
0.0
  0
LINE
  5
19B
330
1F
100
AcDbEntity
  8
0
  6
Continuous
 62
     7
370
    15
100
AcDbLine
 10
-100.6644857294
 20
102.7318773614
 30
0.0
 11
-100.4714932647
 21
102.3041318926
 31
0.0
  0
ARC
  5
19C
330
1F
100
AcDbEntity
  8
0
  6
Continuous
 62
     7
370
    15
100
AcDbCircle
 10
-100.6811421171
 20
102.2095414137
 30
0.0
 40
0.229999999999976
100
AcDbArc
 50
314.5683923423
 51
24.2841961712
  0
ARC
  5
19D
330
1F
100
AcDbEntity
  8
0
  6
Continuous
 62
     7
370
    15
100
AcDbCircle
 10
0.0
 20
0.0
 30
0.0
 40
143.2394487827058
100
AcDbArc
 50
134.5683923423
 51
134.8
  0
ARC
  5
19E
330
1F
100
AcDbEntity
  8
0
  6
Continuous
 62
     7
370
    15
100
AcDbCircle
 10
-101.0934816969
 20
101.8017224432
 30
0.0
 40
0.2299999999999378
100
AcDbArc
 50
245.0841961712
 51
314.8
  0
LINE
  5
19F
330
1F
100
AcDbEntity
  8
0
  6
Continuous
 62
     7
370
    15
100
AcDbLine
 10
-101.1903774738
 20
101.5931290387
 30
0.0
 11
-101.6159695179
 21
101.7908249908
 31
0.0
  0
LINE
  5
1A0
330
1F
100
AcDbEntity
  8
0
  6
Continuous
 62
     7
370
    15
100
AcDbLine
 10
-101.6159695179
 20
101.7908249908
 30
0.0
 11
-102.0890343572
 21
101.3163677664
 31
0.0
  0
LINE
  5
1A1
330
1F
100
AcDbEntity
  8
0
  6
Continuous
 62
     7
370
    15
100
AcDbLine
 10
-102.0890343572
 20
101.3163677664
 30
0.0
 11
-101.8900884453
 21
100.8913585881
 31
0.0
  0
ARC
  5
1A2
330
1F
100
AcDbEntity
  8
0
  6
Continuous
 62
     7
370
    15
100
AcDbCircle
 10
-102.0983961726
 20
100.7938501745
 30
0.0
 40
0.2299999999999706
100
AcDbArc
 50
315.3683923423
 51
25.0841961712
  0
ARC
  5
1A3
330
1F
100
AcDbEntity
  8
0
  6
Continuous
 62
     7
370
    15
100
AcDbCircle
 10
0.0
 20
0.0
 30
0.0
 40
143.2394487827058
100
AcDbArc
 50
135.3683923423
 51
135.6
  0
ARC
  5
1A4
330
1F
100
AcDbEntity
  8
0
  6
Continuous
 62
     7
370
    15
100
AcDbCircle
 10
-102.5050015172
 20
100.3803137969
 30
0.0
 40
0.229999999999908
100
AcDbArc
 50
245.8841961712
 51
315.6
  0
LINE
  5
1A5
330
1F
100
AcDbEntity
  8
0
  6
Continuous
 62
     7
370
    15
100
AcDbLine
 10
-102.5989754303
 20
100.1703878489
 30
0.0
 11
-103.0272862559
 21
100.3621223376
 31
0.0
  0
LINE
  5
1A6
330
1F
100
AcDbEntity
  8
0
  6
Continuous
 62
     7
370
    15
100
AcDbLine
 10
-103.0272862559
 20
100.3621223376
 30
0.0
 11
-103.4936805255
 21
99.8811063448
 31
0.0
  0
LINE
  5
1A7
330
1F
100
AcDbEntity
  8
0
  6
Continuous
 62
     7
370
    15
100
AcDbLine
 10
-103.4936805255
 20
99.8811063448
 30
0.0
 11
-103.2888199513
 21
99.4589163133
 31
0.0
  0
ARC
  5
1A8
330
1F
100
AcDbEntity
  8
0
  6
Continuous
 62
     7
370
    15
100
AcDbCircle
 10
-103.4957459435
 20
99.3585089743
 30
0.0
 40
0.2299999999999677
100
AcDbArc
 50
316.1683923423
 51
25.8841961712
  0
ARC
  5
1A9
330
1F
100
AcDbEntity
  8
0
  6
Continuous
 62
     7
370
    15
100
AcDbCircle
 10
0.0
 20
0.0
 30
0.0
 40
143.2394487827058
100
AcDbArc
 50
136.1683923423
 51
136.4
  0
ARC
  5
1AA
330
1F
100
AcDbEntity
  8
0
  6
Continuous
 62
     7
370
    15
100
AcDbCircle
 10
-103.8965377844
 20
98.9393358095
 30
0.0
 40
0.2299999999999199
100
AcDbArc
 50
246.6841961712
 51
316.4
  0
LINE
  5
1AB
330
1F
100
AcDbEntity
  8
0
  6
Continuous
 62
     7
370
    15
100
AcDbLine
 10
-103.9875715133
 20
98.7281182435
 30
0.0
 11
-104.4185176204
 21
98.9138538897
 31
0.0
  0
LINE
  5
1AC
330
1F
100
AcDbEntity
  8
0
  6
Continuous
 62
     7
370
    15
100
AcDbLine
 10
-104.4185176204
 20
98.9138538897
 30
0.0
 11
-104.8781503957
 21
98.4263729035
 31
0.0
  0
LINE
  5
1AD
330
1F
100
AcDbEntity
  8
0
  6
Continuous
 62
     7
370
    15
100
AcDbLine
 10
-104.8781503957
 20
98.4263729035
 30
0.0
 11
-104.6674150971
 21
98.0070843258
 31
0.0
  0
ARC
  5
1AE
330
1F
100
AcDbEntity
  8
0
  6
Continuous
 62
     7
370
    15
100
AcDbCircle
 10
-104.8729190137
 20
97.9037976361
 30
0.0
 40
0.2299999999999786
100
AcDbArc
 50
316.9683923423
 51
26.6841961712
  0
ARC
  5
1AF
330
1F
100
AcDbEntity
  8
0
  6
Continuous
 62
     7
370
    15
100
AcDbCircle
 10
0.0
 20
0.0
 30
0.0
 40
143.2394487827058
100
AcDbArc
 50
136.9683923423
 51
137.2
  0
ARC
  5
1B0
330
1F
100
AcDbEntity
  8
0
  6
Continuous
 62
     7
370
    15
100
AcDbCircle
 10
-105.2678192156
 20
97.4790694026
 30
0.0
 40
0.2299999999999272
100
AcDbArc
 50
247.4841961712
 51
317.2
  0
LINE
  5
1B1
330
1F
100
AcDbEntity
  8
0
  6
Continuous
 62
     7
370
    15
100
AcDbLine
 10
-105.3558950132
 20
97.2666013959
 30
0.0
 11
-105.789392388
 21
97.44630199
 31
0.0
  0
LINE
  5
1B2
330
1F
100
AcDbEntity
  8
0
  6
Continuous
 62
     7
370
    15
100
AcDbLine
 10
-105.789392388
 20
97.44630199
 30
0.0
 11
-106.2421740627
 21
96.9524510458
 31
0.0
  0
LINE
  5
1B3
330
1F
100
AcDbEntity
  8
0
  6
Continuous
 62
     7
370
    15
100
AcDbLine
 10
-106.2421740627
 20
96.9524510458
 30
0.0
 11
-106.025605123
 21
96.5361456629
 31
0.0
  0
ARC
  5
1B4
330
1F
100
AcDbEntity
  8
0
  6
Continuous
 62
     7
370
    15
100
AcDbCircle
 10
-106.2296469005
 20
96.4299997584
 30
0.0
 40
0.2299999999999692
100
AcDbArc
 50
317.7683923423
 51
27.4841961712
  0
ARC
  5
1B5
330
1F
100
AcDbEntity
  8
0
  6
Continuous
 62
     7
370
    15
100
AcDbCircle
 10
0.0
 20
0.0
 30
0.0
 40
143.2394487827059
100
AcDbArc
 50
137.7683923423
 51
138.0
  0
ARC
  5
1B6
330
1F
100
AcDbEntity
  8
0
  6
Continuous
 62
     7
370
    15
100
AcDbCircle
 10
-106.618578477
 20
95.9997992579
 30
0.0
 40
0.2299999999999333
100
AcDbArc
 50
248.2841961712
 51
318.0
  0
LINE
  5
1B7
330
1F
100
AcDbEntity
  8
0
  6
Continuous
 62
     7
370
    15
100
AcDbLine
 10
-106.7036791727
 20
95.7861222316
 30
0.0
 11
-107.139643304
 21
95.9597527407
 31
0.0
  0
LINE
  5
1B8
330
1F
100
AcDbEntity
  8
0
  6
Continuous
 62
     7
370
    15
100
AcDbLine
 10
-107.139643304
 20
95.9597527407
 30
0.0
 11
-107.5854856074
 21
95.4596281157
 31
0.0
  0
LINE
  5
1B9
330
1F
100
AcDbEntity
  8
0
  6
Continuous
 62
     7
370
    15
100
AcDbLine
 10
-107.5854856074
 20
95.4596281157
 30
0.0
 11
-107.3631252471
 21
95.0463870872
 31
0.0
  0
ARC
  5
1BA
330
1F
100
AcDbEntity
  8
0
  6
Continuous
 62
     7
370
    15
100
AcDbCircle
 10
-107.5656651072
 20
94.9374026613
 30
0.0
 40
0.2299999999999775
100
AcDbArc
 50
318.5683923423
 51
28.2841961712
  0
ARC
  5
1BB
330
1F
100
AcDbEntity
  8
0
  6
Continuous
 62
     7
370
    15
100
AcDbCircle
 10
0.0
 20
0.0
 30
0.0
 40
143.2394487827058
100
AcDbArc
 50
138.5683923423
 51
138.8
  0
ARC
  5
1BC
330
1F
100
AcDbEntity
  8
0
  6
Continuous
 62
     7
370
    15
100
AcDbCircle
 10
-107.9485522352
 20
94.5018137622
 30
0.0
 40
0.2299999999999367
100
AcDbArc
 50
249.0841961712
 51
318.8
  0
LINE
  5
1BD
330
1F
100
AcDbEntity
  8
0
  6
Continuous
 62
     7
370
    15
100
AcDbLine
 10
-108.0306612384
 20
94.286969373
 30
0.0
 11
-108.4690071342
 21
94.4544959475
 31
0.0
  0
LINE
  5
1BE
330
1F
100
AcDbEntity
  8
0
  6
Continuous
 62
     7
370
    15
100
AcDbLine
 10
-108.4690071342
 20
94.4544959475
 30
0.0
 11
-108.9078231484
 21
93.948195142
 31
0.0
  0
LINE
  5
1BF
330
1F
100
AcDbEntity
  8
0
  6
Continuous
 62
     7
370
    15
100
AcDbLine
 10
-108.9078231484
 20
93.948195142
 30
0.0
 11
-108.6797147172
 21
93.53809903
 31
0.0
  0
ARC
  5
1C0
330
1F
100
AcDbEntity
  8
0
  6
Continuous
 62
     7
370
    15
100
AcDbCircle
 10
-108.8807131743
 20
93.4262973294
 30
0.0
 40
0.2299999999999822
100
AcDbArc
 50
319.3683923423
 51
29.0841961712
  0
ARC
  5
1C1
330
1F
100
AcDbEntity
  8
0
  6
Continuous
 62
     7
370
    15
100
AcDbCircle
 10
0.0
 20
0.0
 30
0.0
 40
143.2394487827059
100
AcDbArc
 50
139.3683923423
 51
139.6
  0
ARC
  5
1C2
330
1F
100
AcDbEntity
  8
0
  6
Continuous
 62
     7
370
    15
100
AcDbCircle
 10
-109.2574812092
 20
92.9854049506
 30
0.0
 40
0.2299999999999237
100
AcDbArc
 50
249.8841961712
 51
319.6
  0
LINE
  5
1C3
330
1F
100
AcDbEntity
  8
0
  6
Continuous
 62
     7
370
    15
100
AcDbLine
 10
-109.3365825127
 20
92.7694350829
 30
0.0
 11
-109.7772247165
 21
92.9308250631
 31
0.0
  0
LINE
  5
1C4
330
1F
100
AcDbEntity
  8
0
  6
Continuous
 62
     7
370
    15
100
AcDbLine
 10
-109.7772247165
 20
92.9308250631
 30
0.0
 11
-110.2089288936
 21
92.4184467814
 31
0.0
  0
LINE
  5
1C5
330
1F
100
AcDbEntity
  8
0
  6
Continuous
 62
     7
370
    15
100
AcDbLine
 10
-110.2089288936
 20
92.4184467814
 30
0.0
 11
-109.9751168616
 21
92.011575535
 31
0.0
  0
ARC
  5
1C6
330
1F
100
AcDbEntity
  8
0
  6
Continuous
 62
     7
370
    15
100
AcDbCircle
 10
-110.1745347306
 20
91.8969783557
 30
0.0
 40
0.229999999999993
100
AcDbArc
 50
320.1683923423
 51
29.8841961712
  0
ARC
  5
1C7
330
1F
100
AcDbEntity
  8
0
  6
Continuous
 62
     7
370
    15
100
AcDbCircle
 10
0.0
 20
0.0
 30
0.0
 40
143.2394487827058
100
AcDbArc
 50
140.1683923423
 51
140.4
  0
ARC
  5
1C8
330
1F
100
AcDbEntity
  8
0
  6
Continuous
 62
     7
370
    15
100
AcDbCircle
 10
-110.5451102208
 20
91.4508684501
 30
0.0
 40
0.2299999999999292
100
AcDbArc
 50
250.6841961712
 51
320.4
  0
LINE
  5
1C9
330
1F
100
AcDbEntity
  8
0
  6
Continuous
 62
     7
370
    15
100
AcDbLine
 10
-110.6211884036
 20
91.2338152076
 30
0.0
 11
-111.0640410114
 21
91.3890371302
 31
0.0
  0
LINE
  5
1CA
330
1F
100
AcDbEntity
  8
0
  6
Continuous
 62
     7
370
    15
100
AcDbLine
 10
-111.0640410114
 20
91.3890371302
 30
0.0
 11
-111.4885491897
 21
90.8706812616
 31
0.0
  0
LINE
  5
1CB
330
1F
100
AcDbEntity
  8
0
  6
Continuous
 62
     7
370
    15
100
AcDbLine
 10
-111.4885491897
 20
90.8706812616
 30
0.0
 11
-111.249079139
 21
90.4671142011
 31
0.0
  0
ARC
  5
1CC
330
1F
100
AcDbEntity
  8
0
  6
Continuous
 62
     7
370
    15
100
AcDbCircle
 10
-111.4468775431
 20
90.349743884
 30
0.0
 40
0.22999999999995
100
AcDbArc
 50
320.9683923423
 51
30.6841961712
  0
ARC
  5
1CD
330
1F
100
AcDbEntity
  8
0
  6
Continuous
 62
     7
370
    15
100
AcDbCircle
 10
0.0
 20
0.0
 30
0.0
 40
143.2394487827059
100
AcDbArc
 50
140.9683923423
 51
141.2
  0
ARC
  5
1CE
330
1F
100
AcDbEntity
  8
0
  6
Continuous
 62
     7
370
    15
100
AcDbCircle
 10
-111.8111882442
 20
89.8985034216
 30
0.0
 40
0.2299999999999231
100
AcDbArc
 50
251.4841961712
 51
321.2
  0
LINE
  5
1CF
330
1F
100
AcDbEntity
  8
0
  6
Continuous
 62
     7
370
    15
100
AcDbLine
 10
-111.8842284746
 20
89.6804091192
 30
0.0
 11
-112.3292051514
 21
89.8294327235
 31
0.0
  0
LINE
  5
1D0
330
1F
100
AcDbEntity
  8
0
  6
Continuous
 62
     7
370
    15
100
AcDbLine
 10
-112.3292051514
 20
89.8294327235
 30
0.0
 11
-112.7464345722
 21
89.3052003224
 31
0.0
  0
LINE
  5
1D1
330
1F
100
AcDbEntity
  8
0
  6
Continuous
 62
     7
370
    15
100
AcDbLine
 10
-112.7464345722
 20
89.3052003224
 30
0.0
 11
-112.501353188
 21
88.905016124
 31
0.0
  0
ARC
  5
1D2
330
1F
100
AcDbEntity
  8
0
  6
Continuous
 62
     7
370
    15
100
AcDbCircle
 10
-112.697493566
 20
88.7848955507
 30
0.0
 40
0.2299999999999622
100
AcDbArc
 50
321.7683923423
 51
31.4841961712
  0
ARC
  5
1D3
330
1F
100
AcDbEntity
  8
0
  6
Continuous
 62
     7
370
    15
100
AcDbCircle
 10
0.0
 20
0.0
 30
0.0
 40
143.2394487827059
100
AcDbArc
 50
141.7683923423
 51
142.0
  0
ARC
  5
1D4
330
1F
100
AcDbEntity
  8
0
  6
Continuous
 62
     7
370
    15
100
AcDbCircle
 10
-113.0554684548
 20
88.3286125017
 30
0.0
 40
0.2299999999999333
100
AcDbArc
 50
252.2841961712
 51
322.0
  0
LINE
  5
1D5
330
1F
100
AcDbEntity
  8
0
  6
Continuous
 62
     7
370
    15
100
AcDbLine
 10
-113.1254564936
 20
88.1095196574
 30
0.0
 11
-113.5724704903
 21
88.2523158909
 31
0.0
  0
LINE
  5
1D6
330
1F
100
AcDbEntity
  8
0
  6
Continuous
 62
     7
370
    15
100
AcDbLine
 10
-113.5724704903
 20
88.2523158909
 30
0.0
 11
-113.9823398139
 21
87.7223091574
 31
0.0
  0
LINE
  5
1D7
330
1F
100
AcDbEntity
  8
0
  6
Continuous
 62
     7
370
    15
100
AcDbLine
 10
-113.9823398139
 20
87.7223091574
 30
0.0
 11
-113.7316948754
 21
87.3255858379
 31
0.0
  0
ARC
  5
1D8
330
1F
100
AcDbEntity
  8
0
  6
Continuous
 62
     7
370
    15
100
AcDbCircle
 10
-113.9261389893
 20
87.2027384261
 30
0.0
 40
0.2299999999999744
100
AcDbArc
 50
322.5683923423
 51
32.2841961712
  0
ARC
  5
1D9
330
1F
100
AcDbEntity
  8
0
  6
Continuous
 62
     7
370
    15
100
AcDbCircle
 10
0.0
 20
0.0
 30
0.0
 40
143.2394487827058
100
AcDbArc
 50
142.5683923423
 51
142.8
  0
ARC
  5
1DA
330
1F
100
AcDbEntity
  8
0
  6
Continuous
 62
     7
370
    15
100
AcDbCircle
 10
-114.2777082779
 20
86.7415017438
 30
0.0
 40
0.2299999999999378
100
AcDbArc
 50
253.0841961712
 51
322.8
  0
LINE
  5
1DB
330
1F
100
AcDbEntity
  8
0
  6
Continuous
 62
     7
370
    15
100
AcDbLine
 10
-114.3446304807
 20
86.5214530702
 30
0.0
 11
-114.793594651
 21
86.6579940944
 31
0.0
  0
LINE
  5
1DC
330
1F
100
AcDbEntity
  8
0
  6
Continuous
 62
     7
370
    15
100
AcDbLine
 10
-114.793594651
 20
86.6579940944
 30
0.0
 11
-115.1960239727
 21
86.1223163545
 31
0.0
  0
LINE
  5
1DD
330
1F
100
AcDbEntity
  8
0
  6
Continuous
 62
     7
370
    15
100
AcDbLine
 10
-115.1960239727
 20
86.1223163545
 30
0.0
 11
-114.9398643434
 21
85.7291312557
 31
0.0
  0
ARC
  5
1DE
330
1F
100
AcDbEntity
  8
0
  6
Continuous
 62
     7
370
    15
100
AcDbCircle
 10
-115.132574286
 20
85.6035809549
 30
0.0
 40
0.2299999999999713
100
AcDbArc
 50
323.3683923423
 51
33.0841961712
  0
ARC
  5
1DF
330
1F
100
AcDbEntity
  8
0
  6
Continuous
 62
     7
370
    15
100
AcDbCircle
 10
0.0
 20
0.0
 30
0.0
 40
143.2394487827058
100
AcDbArc
 50
143.3683923423
 51
143.6
  0
ARC
  5
1E0
330
1F
100
AcDbEntity
  8
0
  6
Continuous
 62
     7
370
    15
100
AcDbCircle
 10
-115.4776694353
 20
85.1374805583
 30
0.0
 40
0.2299999999999314
100
AcDbArc
 50
253.8841961712
 51
323.6
  0
LINE
  5
1E1
330
1F
100
AcDbEntity
  8
0
  6
Continuous
 62
     7
370
    15
100
AcDbLine
 10
-115.5415127555
 20
84.9165189542
 30
0.0
 11
-115.992339573
 21
85.0467781503
 31
0.0
  0
LINE
  5
1E2
330
1F
100
AcDbEntity
  8
0
  6
Continuous
 62
     7
370
    15
100
AcDbLine
 10
-115.992339573
 20
85.0467781503
 30
0.0
 11
-116.3872504383
 21
84.5055338353
 31
0.0
  0
LINE
  5
1E3
330
1F
100
AcDbEntity
  8
0
  6
Continuous
 62
     7
370
    15
100
AcDbLine
 10
-116.3872504383
 20
84.5055338353
 30
0.0
 11
-116.1256260572
 21
84.1159636096
 31
0.0
  0
ARC
  5
1E4
330
1F
100
AcDbEntity
  8
0
  6
Continuous
 62
     7
370
    15
100
AcDbCircle
 10
-116.3165642592
 20
83.9877348959
 30
0.0
 40
0.2299999999999811
100
AcDbArc
 50
324.1683923423
 51
33.8841961712
  0
ARC
  5
1E5
330
1F
100
AcDbEntity
  8
0
  6
Continuous
 62
     7
370
    15
100
AcDbCircle
 10
0.0
 20
0.0
 30
0.0
 40
143.2394487827058
100
AcDbArc
 50
144.1683923423
 51
144.4
  0
ARC
  5
1E6
330
1F
100
AcDbEntity
  8
0
  6
Continuous
 62
     7
370
    15
100
AcDbCircle
 10
-116.6551179922
 20
83.5168616522
 30
0.0
 40
0.2299999999999408
100
AcDbArc
 50
254.6841961712
 51
324.4
  0
LINE
  5
1E7
330
1F
100
AcDbEntity
  8
0
  6
Continuous
 62
     7
370
    15
100
AcDbLine
 10
-116.7158699835
 20
83.2950301947
 30
0.0
 11
-117.1684715586
 21
83.4189821682
 31
0.0
  0
LINE
  5
1E8
330
1F
100
AcDbEntity
  8
0
  6
Continuous
 62
     7
370
    15
100
AcDbLine
 10
-117.1684715586
 20
83.4189821682
 30
0.0
 11
-117.5557869788
 21
82.8722767949
 31
0.0
  0
LINE
  5
1E9
330
1F
100
AcDbEntity
  8
0
  6
Continuous
 62
     7
370
    15
100
AcDbLine
 10
-117.5557869788
 20
82.8722767949
 30
0.0
 11
-117.2887488501
 21
82.4863973897
 31
0.0
  0
ARC
  5
1EA
330
1F
100
AcDbEntity
  8
0
  6
Continuous
 62
     7
370
    15
100
AcDbCircle
 10
-117.4778780878
 20
82.3555152617
 30
0.0
 40
0.2299999999999932
100
AcDbArc
 50
324.9683923423
 51
34.6841961712
  0
ARC
  5
1EB
330
1F
100
AcDbEntity
  8
0
  6
Continuous
 62
     7
370
    15
100
AcDbCircle
 10
0.0
 20
0.0
 30
0.0
 40
143.2394487827059
100
AcDbArc
 50
144.9683923423
 51
145.2
  0
ARC
  5
1EC
330
1F
100
AcDbEntity
  8
0
  6
Continuous
 62
     7
370
    15
100
AcDbCircle
 10
-117.8098244028
 20
81.8799609685
 30
0.0
 40
0.2299999999999345
100
AcDbArc
 50
255.4841961712
 51
325.2
  0
LINE
  5
1ED
330
1F
100
AcDbEntity
  8
0
  6
Continuous
 62
     7
370
    15
100
AcDbLine
 10
-117.8674732214
 20
81.6573029039
 30
0.0
 11
-118.3217613185
 21
81.7749234904
 31
0.0
  0
LINE
  5
1EE
330
1F
100
AcDbEntity
  8
0
  6
Continuous
 62
     7
370
    15
100
AcDbLine
 10
-118.3217613185
 20
81.7749234904
 30
0.0
 11
-118.7014057857
 21
81.2228636399
 31
0.0
  0
LINE
  5
1EF
330
1F
100
AcDbEntity
  8
0
  6
Continuous
 62
     7
370
    15
100
AcDbLine
 10
-118.7014057857
 20
81.2228636399
 30
0.0
 11
-118.4290059689
 21
80.8407502832
 31
0.0
  0
ARC
  5
1F0
330
1F
100
AcDbEntity
  8
0
  6
Continuous
 62
     7
370
    15
100
AcDbCircle
 10
-118.6162893712
 20
80.7072402565
 30
0.0
 40
0.2300000000000081
100
AcDbArc
 50
325.7683923423
 51
35.4841961712
  0
ARC
  5
1F1
330
1F
100
AcDbEntity
  8
0
  6
Continuous
 62
     7
370
    15
100
AcDbCircle
 10
0.0
 20
0.0
 30
0.0
 40
143.2394487827058
100
AcDbArc
 50
145.7683923423
 51
146.0
  0
ARC
  5
1F2
330
1F
100
AcDbEntity
  8
0
  6
Continuous
 62
     7
370
    15
100
AcDbCircle
 10
-118.9415635546
 20
80.2270976241
 30
0.0
 40
0.2299999999999488
100
AcDbArc
 50
256.2841961712
 51
326.0
  0
LINE
  5
1F3
330
1F
100
AcDbEntity
  8
0
  6
Continuous
 62
     7
370
    15
100
AcDbLine
 10
-118.9960979618
 20
80.0036563602
 30
0.0
 11
-119.4519840166
 21
80.1149226291
 31
0.0
  0
LINE
  5
1F4
330
1F
100
AcDbEntity
  8
0
  6
Continuous
 62
     7
370
    15
100
AcDbLine
 10
-119.4519840166
 20
80.1149226291
 30
0.0
 11
-119.8238835184
 21
79.5576159267
 31
0.0
  0
LINE
  5
1F5
330
1F
100
AcDbEntity
  8
0
  6
Continuous
 62
     7
370
    15
100
AcDbLine
 10
-119.8238835184
 20
79.5576159267
 30
0.0
 11
-119.5461751185
 21
79.1793431123
 31
0.0
  0
ARC
  5
1F6
330
1F
100
AcDbEntity
  8
0
  6
Continuous
 62
     7
370
    15
100
AcDbCircle
 10
-119.731576174
 20
79.0432312149
 30
0.0
 40
0.2299999999999796
100
AcDbArc
 50
326.5683923423
 51
36.2841961712
  0
ARC
  5
1F7
330
1F
100
AcDbEntity
  8
0
  6
Continuous
 62
     7
370
    15
100
AcDbCircle
 10
0.0
 20
0.0
 30
0.0
 40
143.2394487827059
100
AcDbArc
 50
146.5683923423
 51
146.8
  0
ARC
  5
1F8
330
1F
100
AcDbEntity
  8
0
  6
Continuous
 62
     7
370
    15
100
AcDbCircle
 10
-120.050114813
 20
78.5585938482
 30
0.0
 40
0.2299999999999476
100
AcDbArc
 50
257.0841961712
 51
326.8
  0
LINE
  5
1F9
330
1F
100
AcDbEntity
  8
0
  6
Continuous
 62
     7
370
    15
100
AcDbLine
 10
-120.1015241772
 20
78.3344129452
 30
0.0
 11
-120.5589193137
 21
78.4393032049
 31
0.0
  0
LINE
  5
1FA
330
1F
100
AcDbEntity
  8
0
  6
Continuous
 62
     7
370
    15
100
AcDbLine
 10
-120.5589193137
 20
78.4393032049
 30
0.0
 11
-120.9230013476
 21
77.8768582986
 31
0.0
  0
LINE
  5
1FB
330
1F
100
AcDbEntity
  8
0
  6
Continuous
 62
     7
370
    15
100
AcDbLine
 10
-120.9230013476
 20
77.8768582986
 30
0.0
 11
-120.6400385043
 21
77.5024997715
 31
0.0
  0
ARC
  5
1FC
330
1F
100
AcDbEntity
  8
0
  6
Continuous
 62
     7
370
    15
100
AcDbCircle
 10
-120.8235210688
 20
77.3638125388
 30
0.0
 40
0.2300000000000273
100
AcDbArc
 50
327.3683923423
 51
37.0841961712
  0
ARC
  5
1FD
330
1F
100
AcDbEntity
  8
0
  6
Continuous
 62
     7
370
    15
100
AcDbCircle
 10
0.0
 20
0.0
 30
0.0
 40
143.2394487827059
100
AcDbArc
 50
147.3683923423
 51
147.6
  0
ARC
  5
1FE
330
1F
100
AcDbEntity
  8
0
  6
Continuous
 62
     7
370
    15
100
AcDbCircle
 10
-121.1352620636
 20
76.8747749186
 30
0.0
 40
0.2299999999999248
100
AcDbArc
 50
257.8841961712
 51
327.6
  0
LINE
  5
1FF
330
1F
100
AcDbEntity
  8
0
  6
Continuous
 62
     7
370
    15
100
AcDbLine
 10
-121.1835363624
 20
76.6498980811
 30
0.0
 11
-121.6423514106
 21
76.7483918832
 31
0.0
  0
LINE
  5
200
330
1F
100
AcDbEntity
  8
0
  6
Continuous
 62
     7
370
    15
100
AcDbLine
 10
-121.6423514106
 20
76.7483918832
 30
0.0
 11
-121.998544998
 21
76.1809184227
 31
0.0
  0
LINE
  5
201
330
1F
100
AcDbEntity
  8
0
  6
Continuous
 62
     7
370
    15
100
AcDbLine
 10
-121.998544998
 20
76.1809184227
 30
0.0
 11
-121.7103828756
 21
75.8105471648
 31
0.0
  0
ARC
  5
202
330
1F
100
AcDbEntity
  8
0
  6
Continuous
 62
     7
370
    15
100
AcDbCircle
 10
-121.8919111788
 20
75.6693116342
 30
0.0
 40
0.2300000000000118
100
AcDbArc
 50
328.1683923423
 51
37.8841961712
  0
ARC
  5
203
330
1F
100
AcDbEntity
  8
0
  6
Continuous
 62
     7
370
    15
100
AcDbCircle
 10
0.0
 20
0.0
 30
0.0
 40
143.2394487827058
100
AcDbArc
 50
148.1683923423
 51
148.4
  0
ARC
  5
204
330
1F
100
AcDbEntity
  8
0
  6
Continuous
 62
     7
370
    15
100
AcDbCircle
 10
-122.1967937549
 20
75.1759690994
 30
0.0
 40
0.2299999999999239
100
AcDbArc
 50
258.6841961712
 51
328.4
  0
LINE
  5
205
330
1F
100
AcDbEntity
  8
0
  6
Continuous
 62
     7
370
    15
100
AcDbLine
 10
-122.2419235772
 20
74.9504401675
 30
0.0
 11
-122.7020690901
 21
75.0425183104
 31
0.0
  0
LINE
  5
206
330
1F
100
AcDbEntity
  8
0
  6
Continuous
 62
     7
370
    15
100
AcDbLine
 10
-122.7020690901
 20
75.0425183104
 30
0.0
 11
-123.0503047904
 21
74.4701269259
 31
0.0
  0
LINE
  5
207
330
1F
100
AcDbEntity
  8
0
  6
Continuous
 62
     7
370
    15
100
AcDbLine
 10
-123.0503047904
 20
74.4701269259
 30
0.0
 11
-122.7569995665
 21
74.1038151418
 31
0.0
  0
ARC
  5
208
330
1F
100
AcDbEntity
  8
0
  6
Continuous
 62
     7
370
    15
100
AcDbCircle
 10
-122.9365382192
 20
73.9600588473
 30
0.0
 40
0.2299999999999734
100
AcDbArc
 50
328.9683923423
 51
38.6841961712
  0
ARC
  5
209
330
1F
100
AcDbEntity
  8
0
  6
Continuous
 62
     7
370
    15
100
AcDbCircle
 10
0.0
 20
0.0
 30
0.0
 40
143.2394487827058
100
AcDbArc
 50
148.9683923423
 51
149.2
  0
ARC
  5
20A
330
1F
100
AcDbEntity
  8
0
  6
Continuous
 62
     7
370
    15
100
AcDbCircle
 10
-123.2345029391
 20
73.4625075761
 30
0.0
 40
0.229999999999928
100
AcDbArc
 50
259.4841961712
 51
329.2
  0
LINE
  5
20B
330
1F
100
AcDbEntity
  8
0
  6
Continuous
 62
     7
370
    15
100
AcDbLine
 10
-123.2764794867
 20
73.2363705171
 30
0.0
 11
-123.7378657581
 21
73.32201505
 31
0.0
  0
LINE
  5
20C
330
1F
100
AcDbEntity
  8
0
  6
Continuous
 62
     7
370
    15
100
AcDbLine
 10
-123.7378657581
 20
73.32201505
 30
0.0
 11
-124.078075682
 21
72.7448173302
 31
0.0
  0
LINE
  5
20D
330
1F
100
AcDbEntity
  8
0
  6
Continuous
 62
     7
370
    15
100
AcDbLine
 10
-124.078075682
 20
72.7448173302
 30
0.0
 11
-123.7796845372
 21
72.3826364332
 31
0.0
  0
ARC
  5
20E
330
1F
100
AcDbEntity
  8
0
  6
Continuous
 62
     7
370
    15
100
AcDbCircle
 10
-123.9571985378
 20
72.2363874004
 30
0.0
 40
0.2299999999999661
100
AcDbArc
 50
329.7683923423
 51
39.4841961712
  0
ARC
  5
20F
330
1F
100
AcDbEntity
  8
0
  6
Continuous
 62
     7
370
    15
100
AcDbCircle
 10
0.0
 20
0.0
 30
0.0
 40
143.2394487827058
100
AcDbArc
 50
149.7683923423
 51
150.0
  0
ARC
  5
210
330
1F
100
AcDbEntity
  8
0
  6
Continuous
 62
     7
370
    15
100
AcDbCircle
 10
-124.2481873128
 20
71.7347243914
 30
0.0
 40
0.2299999999999244
100
AcDbArc
 50
260.2841961712
 51
330.0
  0
LINE
  5
211
330
1F
100
AcDbEntity
  8
0
  6
Continuous
 62
     7
370
    15
100
AcDbLine
 10
-124.2870024023
 20
71.5080232912
 30
0.0
 11
-124.749539484
 21
71.5872175174
 31
0.0
  0
LINE
  5
212
330
1F
100
AcDbEntity
  8
0
  6
Continuous
 62
     7
370
    15
100
AcDbLine
 10
-124.749539484
 20
71.5872175174
 30
0.0
 11
-125.081657307
 21
71.0053259883
 31
0.0
  0
LINE
  5
213
330
1F
100
AcDbEntity
  8
0
  6
Continuous
 62
     7
370
    15
100
AcDbLine
 10
-125.081657307
 20
71.0053259883
 30
0.0
 11
-124.7782384131
 21
70.6473465861
 31
0.0
  0
ARC
  5
214
330
1F
100
AcDbEntity
  8
0
  6
Continuous
 62
     7
370
    15
100
AcDbCircle
 10
-124.953693155
 20
70.4986333267
 30
0.0
 40
0.2299999999999462
100
AcDbArc
 50
330.5683923423
 51
40.2841961712
  0
ARC
  5
215
330
1F
100
AcDbEntity
  8
0
  6
Continuous
 62
     7
370
    15
100
AcDbCircle
 10
0.0
 20
0.0
 30
0.0
 40
143.2394487827059
100
AcDbArc
 50
150.5683923423
 51
150.8
  0
ARC
  5
216
330
1F
100
AcDbEntity
  8
0
  6
Continuous
 62
     7
370
    15
100
AcDbCircle
 10
-125.2376492562
 20
69.99295638
 30
0.0
 40
0.229999999999947
100
AcDbArc
 50
261.0841961712
 51
330.8
  0
LINE
  5
217
330
1F
100
AcDbEntity
  8
0
  6
Continuous
 62
     7
370
    15
100
AcDbLine
 10
-125.2732953204
 20
69.7657354344
 30
0.0
 11
-125.7368930401
 21
69.8384639149
 31
0.0
  0
LINE
  5
218
330
1F
100
AcDbEntity
  8
0
  6
Continuous
 62
     7
370
    15
100
AcDbLine
 10
-125.7368930401
 20
69.8384639149
 30
0.0
 11
-126.060854015
 21
69.2519920173
 31
0.0
  0
LINE
  5
219
330
1F
100
AcDbEntity
  8
0
  6
Continuous
 62
     7
370
    15
100
AcDbLine
 10
-126.060854015
 20
69.2519920173
 30
0.0
 11
-125.7524665242
 21
68.8982838989
 31
0.0
  0
ARC
  5
21A
330
1F
100
AcDbEntity
  8
0
  6
Continuous
 62
     7
370
    15
100
AcDbCircle
 10
-125.9258278022
 20
68.7471354047
 30
0.0
 40
0.230000000000005
100
AcDbArc
 50
331.3683923423
 51
41.0841961712
  0
ARC
  5
21B
330
1F
100
AcDbEntity
  8
0
  6
Continuous
 62
     7
370
    15
100
AcDbCircle
 10
0.0
 20
0.0
 30
0.0
 40
143.2394487827058
100
AcDbArc
 50
151.3683923423
 51
151.6
  0
ARC
  5
21C
330
1F
100
AcDbEntity
  8
0
  6
Continuous
 62
     7
370
    15
100
AcDbCircle
 10
-126.2026958717
 20
68.237543103
 30
0.0
 40
0.229999999999926
100
AcDbArc
 50
261.8841961712
 51
331.6
  0
LINE
  5
21D
330
1F
100
AcDbEntity
  8
0
  6
Continuous
 62
     7
370
    15
100
AcDbLine
 10
-126.2351659615
 20
68.0098466093
 30
0.0
 11
-126.6997339396
 21
68.0760951656
 31
0.0
  0
LINE
  5
21E
330
1F
100
AcDbEntity
  8
0
  6
Continuous
 62
     7
370
    15
100
AcDbLine
 10
-126.6997339396
 20
68.0760951656
 30
0.0
 11
-127.0154749098
 21
67.4851572333
 31
0.0
  0
LINE
  5
21F
330
1F
100
AcDbEntity
  8
0
  6
Continuous
 62
     7
370
    15
100
AcDbLine
 10
-127.0154749098
 20
67.4851572333
 30
0.0
 11
-126.7021789428
 21
67.1357893547
 31
0.0
  0
ARC
  5
220
330
1F
100
AcDbEntity
  8
0
  6
Continuous
 62
     7
370
    15
100
AcDbCircle
 10
-126.8734129597
 20
66.9822350924
 30
0.0
 40
0.229999999999983
100
AcDbArc
 50
332.1683923423
 51
41.8841961712
  0
ARC
  5
221
330
1F
100
AcDbEntity
  8
0
  6
Continuous
 62
     7
370
    15
100
AcDbCircle
 10
0.0
 20
0.0
 30
0.0
 40
143.2394487827058
100
AcDbArc
 50
152.1683923423
 51
152.4
  0
ARC
  5
222
330
1F
100
AcDbEntity
  8
0
  6
Continuous
 62
     7
370
    15
100
AcDbCircle
 10
-127.1431390216
 20
66.4688267819
 30
0.0
 40
0.2299999999999339
100
AcDbArc
 50
262.6841961712
 51
332.4
  0
LINE
  5
223
330
1F
100
AcDbEntity
  8
0
  6
Continuous
 62
     7
370
    15
100
AcDbLine
 10
-127.1724268068
 20
66.2406991298
 30
0.0
 11
-127.637874475
 21
66.3004548466
 31
0.0
  0
LINE
  5
224
330
1F
100
AcDbEntity
  8
0
  6
Continuous
 62
     7
370
    15
100
AcDbLine
 10
-127.637874475
 20
66.3004548466
 30
0.0
 11
-127.945333886
 21
65.7051660842
 31
0.0
  0
LINE
  5
225
330
1F
100
AcDbEntity
  8
0
  6
Continuous
 62
     7
370
    15
100
AcDbLine
 10
-127.945333886
 20
65.7051660842
 30
0.0
 11
-127.6271905206
 21
65.3602065554
 31
0.0
  0
ARC
  5
226
330
1F
100
AcDbEntity
  8
0
  6
Continuous
 62
     7
370
    15
100
AcDbCircle
 10
-127.7962638939
 20
65.2042764607
 30
0.0
 40
0.2299999999999902
100
AcDbArc
 50
332.9683923423
 51
42.6841961712
  0
ARC
  5
227
330
1F
100
AcDbEntity
  8
0
  6
Continuous
 62
     7
370
    15
100
AcDbCircle
 10
0.0
 20
0.0
 30
0.0
 40
143.2394487827058
100
AcDbArc
 50
152.9683923423
 51
153.2
  0
ARC
  5
228
330
1F
100
AcDbEntity
  8
0
  6
Continuous
 62
     7
370
    15
100
AcDbCircle
 10
-128.0587953646
 20
64.6871522312
 30
0.0
 40
0.229999999999942
100
AcDbArc
 50
263.4841961712
 51
333.2
  0
LINE
  5
229
330
1F
100
AcDbEntity
  8
0
  6
Continuous
 62
     7
370
    15
100
AcDbLine
 10
-128.0848951356
 20
64.4586378948
 30
0.0
 11
-128.5511317539
 21
64.5118891225
 31
0.0
  0
LINE
  5
22A
330
1F
100
AcDbEntity
  8
0
  6
Continuous
 62
     7
370
    15
100
AcDbLine
 10
-128.5511317539
 20
64.5118891225
 30
0.0
 11
-128.8502496659
 21
63.9123655828
 31
0.0
  0
LINE
  5
22B
330
1F
100
AcDbEntity
  8
0
  6
Continuous
 62
     7
370
    15
100
AcDbLine
 10
-128.8502496659
 20
63.9123655828
 30
0.0
 11
-128.5273209247
 21
63.5718816543
 31
0.0
  0
ARC
  5
22C
330
1F
100
AcDbEntity
  8
0
  6
Continuous
 62
     7
370
    15
100
AcDbCircle
 10
-128.6942006933
 20
63.4136061261
 30
0.0
 40
0.2299999999999658
100
AcDbArc
 50
333.7683923423
 51
43.4841961712
  0
ARC
  5
22D
330
1F
100
AcDbEntity
  8
0
  6
Continuous
 62
     7
370
    15
100
AcDbCircle
 10
0.0
 20
0.0
 30
0.0
 40
143.2394487827059
100
AcDbArc
 50
153.7683923423
 51
154.0
  0
ARC
  5
22E
330
1F
100
AcDbEntity
  8
0
  6
Continuous
 62
     7
370
    15
100
AcDbCircle
 10
-128.9494863917
 20
62.8928667921
 30
0.0
 40
0.2299999999999252
100
AcDbArc
 50
264.2841961712
 51
334.0
  0
LINE
  5
22F
330
1F
100
AcDbEntity
  8
0
  6
Continuous
 62
     7
370
    15
100
AcDbLine
 10
-128.9723930602
 20
62.6640103206
 30
0.0
 11
-129.4393277349
 21
62.7107466779
 31
0.0
  0
LINE
  5
230
330
1F
100
AcDbEntity
  8
0
  6
Continuous
 62
     7
370
    15
100
AcDbLine
 10
-129.4393277349
 20
62.7107466779
 30
0.0
 11
-129.7300458344
 21
62.1071052391
 31
0.0
  0
LINE
  5
231
330
1F
100
AcDbEntity
  8
0
  6
Continuous
 62
     7
370
    15
100
AcDbLine
 10
-129.7300458344
 20
62.1071052391
 30
0.0
 11
-129.4023946729
 21
61.7711632889
 31
0.0
  0
ARC
  5
232
330
1F
100
AcDbEntity
  8
0
  6
Continuous
 62
     7
370
    15
100
AcDbCircle
 10
-129.5670483033
 20
61.6105731833
 30
0.0
 40
0.2300000000000157
100
AcDbArc
 50
334.5683923423
 51
44.2841961712
  0
ARC
  5
233
330
1F
100
AcDbEntity
  8
0
  6
Continuous
 62
     7
370
    15
100
AcDbCircle
 10
0.0
 20
0.0
 30
0.0
 40
143.2394487827058
100
AcDbArc
 50
154.5683923423
 51
154.8
  0
ARC
  5
234
330
1F
100
AcDbEntity
  8
0
  6
Continuous
 62
     7
370
    15
100
AcDbCircle
 10
-129.815038461
 20
61.0863202639
 30
0.0
 40
0.2299999999999257
100
AcDbArc
 50
265.0841961712
 51
334.8
  0
LINE
  5
235
330
1F
100
AcDbEntity
  8
0
  6
Continuous
 62
     7
370
    15
100
AcDbLine
 10
-129.8347475613
 20
60.8571662734
 30
0.0
 11
-130.3022892625
 21
60.8973786489
 31
0.0
  0
LINE
  5
236
330
1F
100
AcDbEntity
  8
0
  6
Continuous
 62
     7
370
    15
100
AcDbLine
 10
-130.3022892625
 20
60.8973786489
 30
0.0
 11
-130.5845508733
 21
60.2897369921
 31
0.0
  0
LINE
  5
237
330
1F
100
AcDbEntity
  8
0
  6
Continuous
 62
     7
370
    15
100
AcDbLine
 10
-130.5845508733
 20
60.2897369921
 30
0.0
 11
-130.2522411679
 21
59.9584025128
 31
0.0
  0
ARC
  5
238
330
1F
100
AcDbEntity
  8
0
  6
Continuous
 62
     7
370
    15
100
AcDbCircle
 10
-130.4146365605
 20
59.7955291372
 30
0.0
 40
0.229999999999964
100
AcDbArc
 50
335.3683923423
 51
45.0841961712
  0
ARC
  5
239
330
1F
100
AcDbEntity
  8
0
  6
Continuous
 62
     7
370
    15
100
AcDbCircle
 10
0.0
 20
0.0
 30
0.0
 40
143.2394487827058
100
AcDbArc
 50
155.3683923423
 51
155.6
  0
ARC
  5
23A
330
1F
100
AcDbEntity
  8
0
  6
Continuous
 62
     7
370
    15
100
AcDbCircle
 10
-130.6552828313
 20
59.2678648366
 30
0.0
 40
0.2299999999999299
100
AcDbArc
 50
265.8841961712
 51
335.6
  0
LINE
  5
23B
330
1F
100
AcDbEntity
  8
0
  6
Continuous
 62
     7
370
    15
100
AcDbLine
 10
-130.6717905211
 20
59.0384580011
 30
0.0
 11
-131.1398481007
 21
59.0721385553
 31
0.0
  0
LINE
  5
23C
330
1F
100
AcDbEntity
  8
0
  6
Continuous
 62
     7
370
    15
100
AcDbLine
 10
-131.1398481007
 20
59.0721385553
 30
0.0
 11
-131.4135981953
 21
58.4606151415
 31
0.0
  0
LINE
  5
23D
330
1F
100
AcDbEntity
  8
0
  6
Continuous
 62
     7
370
    15
100
AcDbLine
 10
-131.4135981953
 20
58.4606151415
 30
0.0
 11
-131.0766947304
 21
58.1339527273
 31
0.0
  0
ARC
  5
23E
330
1F
100
AcDbEntity
  8
0
  6
Continuous
 62
     7
370
    15
100
AcDbCircle
 10
-131.2368002259
 20
57.9688278343
 30
0.0
 40
0.2299999999999855
100
AcDbArc
 50
336.1683923423
 51
45.8841961712
  0
ARC
  5
23F
330
1F
100
AcDbEntity
  8
0
  6
Continuous
 62
     7
370
    15
100
AcDbCircle
 10
0.0
 20
0.0
 30
0.0
 40
143.2394487827058
100
AcDbArc
 50
156.1683923423
 51
156.4
  0
ARC
  5
240
330
1F
100
AcDbEntity
  8
0
  6
Continuous
 62
     7
370
    15
100
AcDbCircle
 10
-131.4700556953
 20
57.4378550216
 30
0.0
 40
0.229999999999937
100
AcDbArc
 50
266.6841961712
 51
336.4
  0
LINE
  5
241
330
1F
100
AcDbEntity
  8
0
  6
Continuous
 62
     7
370
    15
100
AcDbLine
 10
-131.4833587564
 20
57.2082400644
 30
0.0
 11
-131.9518409656
 21
57.2353822312
 31
0.0
  0
LINE
  5
242
330
1F
100
AcDbEntity
  8
0
  6
Continuous
 62
     7
370
    15
100
AcDbLine
 10
-131.9518409656
 20
57.2353822312
 30
0.0
 11
-132.217026176
 21
56.6200962781
 31
0.0
  0
LINE
  5
243
330
1F
100
AcDbEntity
  8
0
  6
Continuous
 62
     7
370
    15
100
AcDbLine
 10
-132.217026176
 20
56.6200962781
 30
0.0
 11
-131.8755946315
 21
56.2981696126
 31
0.0
  0
ARC
  5
244
330
1F
100
AcDbEntity
  8
0
  6
Continuous
 62
     7
370
    15
100
AcDbCircle
 10
-132.0333790171
 20
56.1308253935
 30
0.0
 40
0.229999999999994
100
AcDbArc
 50
336.9683923423
 51
46.6841961712
  0
ARC
  5
245
330
1F
100
AcDbEntity
  8
0
  6
Continuous
 62
     7
370
    15
100
AcDbCircle
 10
0.0
 20
0.0
 30
0.0
 40
143.2394487827059
100
AcDbArc
 50
156.9683923423
 51
157.2
  0
ARC
  5
246
330
1F
100
AcDbEntity
  8
0
  6
Continuous
 62
     7
370
    15
100
AcDbCircle
 10
-132.2591982115
 20
55.596647583
 30
0.0
 40
0.2299999999999231
100
AcDbArc
 50
267.4841961712
 51
337.2
  0
LINE
  5
247
330
1F
100
AcDbEntity
  8
0
  6
Continuous
 62
     7
370
    15
100
AcDbLine
 10
-132.2692940505
 20
55.366869268
 30
0.0
 11
-132.7381095577
 21
55.387467756
 31
0.0
  0
LINE
  5
248
330
1F
100
AcDbEntity
  8
0
  6
Continuous
 62
     7
370
    15
100
AcDbLine
 10
-132.7381095577
 20
55.387467756
 30
0.0
 11
-132.9946781854
 21
54.7685392147
 31
0.0
  0
LINE
  5
249
330
1F
100
AcDbEntity
  8
0
  6
Continuous
 62
     7
370
    15
100
AcDbLine
 10
-132.9946781854
 20
54.7685392147
 30
0.0
 11
-132.6487851242
 21
54.4514110582
 31
0.0
  0
ARC
  5
24A
330
1F
100
AcDbEntity
  8
0
  6
Continuous
 62
     7
370
    15
100
AcDbCircle
 10
-132.8042176394
 20
54.281880137
 30
0.0
 40
0.2299999999999531
100
AcDbArc
 50
337.7683923423
 51
47.4841961712
  0
ARC
  5
24B
330
1F
100
AcDbEntity
  8
0
  6
Continuous
 62
     7
370
    15
100
AcDbCircle
 10
0.0
 20
0.0
 30
0.0
 40
143.2394487827058
100
AcDbArc
 50
157.7683923423
 51
158.0
  0
ARC
  5
24C
330
1F
100
AcDbEntity
  8
0
  6
Continuous
 62
     7
370
    15
100
AcDbCircle
 10
-133.0225565349
 20
53.7446014677
 30
0.0
 40
0.2299999999999326
100
AcDbArc
 50
268.2841961712
 51
338.0
  0
LINE
  5
24D
330
1F
100
AcDbEntity
  8
0
  6
Continuous
 62
     7
370
    15
100
AcDbLine
 10
-133.0294431835
 20
53.5147045907
 30
0.0
 11
-133.4985005923
 21
53.5287553842
 31
0.0
  0
LINE
  5
24E
330
1F
100
AcDbEntity
  8
0
  6
Continuous
 62
     7
370
    15
100
AcDbLine
 10
-133.4985005923
 20
53.5287553842
 30
0.0
 11
-133.7464026189
 21
52.9063049161
 31
0.0
  0
LINE
  5
24F
330
1F
100
AcDbEntity
  8
0
  6
Continuous
 62
     7
370
    15
100
AcDbLine
 10
-133.7464026189
 20
52.9063049161
 30
0.0
 11
-133.3961154733
 21
52.5940370933
 31
0.0
  0
ARC
  5
250
330
1F
100
AcDbEntity
  8
0
  6
Continuous
 62
     7
370
    15
100
AcDbCircle
 10
-133.5491658163
 20
52.4223525205
 30
0.0
 40
0.229999999999965
100
AcDbArc
 50
338.5683923423
 51
48.2841961712
  0
ARC
  5
251
330
1F
100
AcDbEntity
  8
0
  6
Continuous
 62
     7
370
    15
100
AcDbCircle
 10
0.0
 20
0.0
 30
0.0
 40
143.2394487827059
100
AcDbArc
 50
158.5683923423
 51
158.8
  0
ARC
  5
252
330
1F
100
AcDbEntity
  8
0
  6
Continuous
 62
     7
370
    15
100
AcDbCircle
 10
-133.7599818474
 20
51.882077736
 30
0.0
 40
0.2299999999999259
100
AcDbArc
 50
269.0841961712
 51
338.8
  0
LINE
  5
253
330
1F
100
AcDbEntity
  8
0
  6
Continuous
 62
     7
370
    15
100
AcDbLine
 10
-133.763657963
 20
51.6521071157
 30
0.0
 11
-134.2328658297
 21
51.6596074755
 31
0.0
  0
LINE
  5
254
330
1F
100
AcDbEntity
  8
0
  6
Continuous
 62
     7
370
    15
100
AcDbLine
 10
-134.2328658297
 20
51.6596074755
 30
0.0
 11
-134.4720529261
 21
51.0337564286
 31
0.0
  0
LINE
  5
255
330
1F
100
AcDbEntity
  8
0
  6
Continuous
 62
     7
370
    15
100
AcDbLine
 10
-134.4720529261
 20
51.0337564286
 30
0.0
 11
-134.1174399855
 21
50.7264098166
 31
0.0
  0
ARC
  5
256
330
1F
100
AcDbEntity
  8
0
  6
Continuous
 62
     7
370
    15
100
AcDbCircle
 10
-134.2680783187
 20
50.5526050625
 30
0.0
 40
0.2300000000000119
100
AcDbArc
 50
339.3683923423
 51
49.0841961712
  0
ARC
  5
257
330
1F
100
AcDbEntity
  8
0
  6
Continuous
 62
     7
370
    15
100
AcDbCircle
 10
0.0
 20
0.0
 30
0.0
 40
143.2394487827058
100
AcDbArc
 50
159.3683923423
 51
159.6
  0
ARC
  5
258
330
1F
100
AcDbEntity
  8
0
  6
Continuous
 62
     7
370
    15
100
AcDbCircle
 10
-134.4713303864
 20
50.0094394903
 30
0.0
 40
0.2299999999999352
100
AcDbArc
 50
269.8841961712
 51
339.6
  0
LINE
  5
259
330
1F
100
AcDbEntity
  8
0
  6
Continuous
 62
     7
370
    15
100
AcDbLine
 10
-134.4717952524
 20
49.7794399601
 30
0.0
 11
-134.9410621039
 21
49.7803884239
 31
0.0
  0
LINE
  5
25A
330
1F
100
AcDbEntity
  8
0
  6
Continuous
 62
     7
370
    15
100
AcDbLine
 10
-134.9410621039
 20
49.7803884239
 30
0.0
 11
-135.1714876401
 21
49.1512588091
 31
0.0
  0
LINE
  5
25B
330
1F
100
AcDbEntity
  8
0
  6
Continuous
 62
     7
370
    15
100
AcDbLine
 10
-135.1714876401
 20
49.1512588091
 30
0.0
 11
-134.812618037
 21
48.8488933259
 31
0.0
  0
ARC
  5
25C
330
1F
100
AcDbEntity
  8
0
  6
Continuous
 62
     7
370
    15
100
AcDbCircle
 10
-134.9608149933
 20
48.673002274
 30
0.0
 40
0.2299999999999635
100
AcDbArc
 50
340.1683923423
 51
49.8841961712
  0
ARC
  5
25D
330
1F
100
AcDbEntity
  8
0
  6
Continuous
 62
     7
370
    15
100
AcDbCircle
 10
0.0
 20
0.0
 30
0.0
 40
143.2394487827058
100
AcDbArc
 50
160.1683923423
 51
160.4
  0
ARC
  5
25E
330
1F
100
AcDbEntity
  8
0
  6
Continuous
 62
     7
370
    15
100
AcDbCircle
 10
-135.156463473
 20
48.1270518054
 30
0.0
 40
0.2299999999999387
100
AcDbArc
 50
270.6841961712
 51
340.4
  0
LINE
  5
25F
330
1F
100
AcDbEntity
  8
0
  6
Continuous
 62
     7
370
    15
100
AcDbLine
 10
-135.1537169988
 20
47.897068204
 30
0.0
 11
-135.6229513507
 21
47.891464587
 31
0.0
  0
LINE
  5
260
330
1F
100
AcDbEntity
  8
0
  6
Continuous
 62
     7
370
    15
100
AcDbLine
 10
-135.6229513507
 20
47.891464587
 30
0.0
 11
-135.8445704049
 21
47.2591790543
 31
0.0
  0
LINE
  5
261
330
1F
100
AcDbEntity
  8
0
  6
Continuous
 62
     7
370
    15
100
AcDbLine
 10
-135.8445704049
 20
47.2591790543
 30
0.0
 11
-135.4815141015
 21
46.9618536466
 31
0.0
  0
ARC
  5
262
330
1F
100
AcDbEntity
  8
0
  6
Continuous
 62
     7
370
    15
100
AcDbCircle
 10
-135.6272407895
 20
46.7839105872
 30
0.0
 40
0.2299999999999845
100
AcDbArc
 50
340.9683923423
 51
50.6841961712
  0
ARC
  5
263
330
1F
100
AcDbEntity
  8
0
  6
Continuous
 62
     7
370
    15
100
AcDbCircle
 10
0.0
 20
0.0
 30
0.0
 40
143.2394487827058
100
AcDbArc
 50
160.9683923423
 51
161.2
  0
ARC
  5
264
330
1F
100
AcDbEntity
  8
0
  6
Continuous
 62
     7
370
    15
100
AcDbCircle
 10
-135.8152475394
 20
46.2352816563
 30
0.0
 40
0.2299999999999512
100
AcDbArc
 50
271.4841961712
 51
341.2
  0
LINE
  5
265
330
1F
100
AcDbEntity
  8
0
  6
Continuous
 62
     7
370
    15
100
AcDbLine
 10
-135.8092902604
 20
46.0053588196
 30
0.0
 11
-136.2784006344
 21
45.9932042141
 31
0.0
  0
LINE
  5
266
330
1F
100
AcDbEntity
  8
0
  6
Continuous
 62
     7
370
    15
100
AcDbLine
 10
-136.2784006344
 20
45.9932042141
 30
0.0
 11
-136.4911700014
 21
45.3578860289
 31
0.0
  0
LINE
  5
267
330
1F
100
AcDbEntity
  8
0
  6
Continuous
 62
     7
370
    15
100
AcDbLine
 10
-136.4911700014
 20
45.3578860289
 30
0.0
 11
-136.1239977763
 21
45.0656586609
 31
0.0
  0
ARC
  5
268
330
1F
100
AcDbEntity
  8
0
  6
Continuous
 62
     7
370
    15
100
AcDbCircle
 10
-136.2672257865
 20
44.8856982844
 30
0.0
 40
0.2300000000000149
100
AcDbArc
 50
341.7683923423
 51
51.4841961712
  0
ARC
  5
269
330
1F
100
AcDbEntity
  8
0
  6
Continuous
 62
     7
370
    15
100
AcDbCircle
 10
0.0
 20
0.0
 30
0.0
 40
143.2394487827058
100
AcDbArc
 50
161.7683923423
 51
162.0
  0
ARC
  5
26A
330
1F
100
AcDbEntity
  8
0
  6
Continuous
 62
     7
370
    15
100
AcDbCircle
 10
-136.4475541541
 20
44.3344978475
 30
0.0
 40
0.2299999999999509
100
AcDbArc
 50
272.2841961712
 51
342.0
  0
LINE
  5
26B
330
1F
100
AcDbEntity
  8
0
  6
Continuous
 62
     7
370
    15
100
AcDbLine
 10
-136.4383872317
 20
44.1046805993
 30
0.0
 11
-136.9072821739
 21
44.085977375
 31
0.0
  0
LINE
  5
26C
330
1F
100
AcDbEntity
  8
0
  6
Continuous
 62
     7
370
    15
100
AcDbLine
 10
-136.9072821739
 20
44.085977375
 30
0.0
 11
-137.1111603739
 21
43.4477503938
 31
0.0
  0
LINE
  5
26D
330
1F
100
AcDbEntity
  8
0
  6
Continuous
 62
     7
370
    15
100
AcDbLine
 10
-137.1111603739
 20
43.4477503938
 30
0.0
 11
-136.7399438081
 21
43.1606780357
 31
0.0
  0
ARC
  5
26E
330
1F
100
AcDbEntity
  8
0
  6
Continuous
 62
     7
370
    15
100
AcDbCircle
 10
-136.8806452177
 20
42.9787354257
 30
0.0
 40
0.2299999999999555
100
AcDbArc
 50
342.5683923423
 51
52.2841961712
  0
ARC
  5
26F
330
1F
100
AcDbEntity
  8
0
  6
Continuous
 62
     7
370
    15
100
AcDbCircle
 10
0.0
 20
0.0
 30
0.0
 40
143.2394487827059
100
AcDbArc
 50
162.5683923423
 51
162.8
  0
ARC
  5
270
330
1F
100
AcDbEntity
  8
0
  6
Continuous
 62
     7
370
    15
100
AcDbCircle
 10
-137.0532600477
 20
42.4250709404
 30
0.0
 40
0.229999999999918
100
AcDbArc
 50
273.0841961712
 51
342.8
  0
LINE
  5
271
330
1F
100
AcDbEntity
  8
0
  6
Continuous
 62
     7
370
    15
100
AcDbLine
 10
-137.040885269
 20
42.1954040842
 30
0.0
 11
-137.5094733675
 21
42.1701558872
 31
0.0
  0
LINE
  5
272
330
1F
100
AcDbEntity
  8
0
  6
Continuous
 62
     7
370
    15
100
AcDbLine
 10
-137.5094733675
 20
42.1701558872
 30
0.0
 11
-137.7044206541
 21
41.5291445336
 31
0.0
  0
LINE
  5
273
330
1F
100
AcDbEntity
  8
0
  6
Continuous
 62
     7
370
    15
100
AcDbLine
 10
-137.7044206541
 20
41.5291445336
 30
0.0
 11
-137.3292321169
 21
41.2472831508
 31
0.0
  0
ARC
  5
274
330
1F
100
AcDbEntity
  8
0
  6
Continuous
 62
     7
370
    15
100
AcDbCircle
 10
-137.467379496
 20
41.0633937774
 30
0.0
 40
0.2299999999999774
100
AcDbArc
 50
343.3683923423
 51
53.0841961712
  0
ARC
  5
275
330
1F
100
AcDbEntity
  8
0
  6
Continuous
 62
     7
370
    15
100
AcDbCircle
 10
0.0
 20
0.0
 30
0.0
 40
143.2394487827059
100
AcDbArc
 50
163.3683923423
 51
163.6
  0
ARC
  5
276
330
1F
100
AcDbEntity
  8
0
  6
Continuous
 62
     7
370
    15
100
AcDbCircle
 10
-137.6322471368
 20
40.5073731818
 30
0.0
 40
0.2299999999999243
100
AcDbArc
 50
273.8841961712
 51
343.6
  0
LINE
  5
277
330
1F
100
AcDbEntity
  8
0
  6
Continuous
 62
     7
370
    15
100
AcDbLine
 10
-137.6166669143
 20
40.2779014914
 30
0.0
 11
-138.0848568168
 21
40.246113244
 31
0.0
  0
LINE
  5
278
330
1F
100
AcDbEntity
  8
0
  6
Continuous
 62
     7
370
    15
100
AcDbLine
 10
-138.0848568168
 20
40.246113244
 30
0.0
 11
-138.2708351845
 21
39.6024424844
 31
0.0
  0
LINE
  5
279
330
1F
100
AcDbEntity
  8
0
  6
Continuous
 62
     7
370
    15
100
AcDbLine
 10
-138.2708351845
 20
39.6024424844
 30
0.0
 11
-137.8917478198
 21
39.3258470264
 31
0.0
  0
ARC
  5
27A
330
1F
100
AcDbEntity
  8
0
  6
Continuous
 62
     7
370
    15
100
AcDbCircle
 10
-138.0273142362
 20
39.1400467392
 30
0.0
 40
0.2300000000000057
100
AcDbArc
 50
344.1683923423
 51
53.8841961712
  0
ARC
  5
27B
330
1F
100
AcDbEntity
  8
0
  6
Continuous
 62
     7
370
    15
100
AcDbCircle
 10
0.0
 20
0.0
 30
0.0
 40
143.2394487827058
100
AcDbArc
 50
164.1683923423
 51
164.4
  0
ARC
  5
27C
330
1F
100
AcDbEntity
  8
0
  6
Continuous
 62
     7
370
    15
100
AcDbCircle
 10
-138.1844025466
 20
38.5817784304
 30
0.0
 40
0.2299999999999304
100
AcDbArc
 50
274.6841961712
 51
344.4
  0
LINE
  5
27D
330
1F
100
AcDbEntity
  8
0
  6
Continuous
 62
     7
370
    15
100
AcDbLine
 10
-138.1656199176
 20
38.3525466419
 30
0.0
 11
-138.6333203496
 21
38.3142245412
 31
0.0
  0
LINE
  5
27E
330
1F
100
AcDbEntity
  8
0
  6
Continuous
 62
     7
370
    15
100
AcDbLine
 10
-138.6333203496
 20
38.3142245412
 30
0.0
 11
-138.8102935417
 21
37.6680198606
 31
0.0
  0
LINE
  5
27F
330
1F
100
AcDbEntity
  8
0
  6
Continuous
 62
     7
370
    15
100
AcDbLine
 10
-138.8102935417
 20
37.6680198606
 30
0.0
 11
-138.4273812533
 21
37.3967442502
 31
0.0
  0
ARC
  5
280
330
1F
100
AcDbEntity
  8
0
  6
Continuous
 62
     7
370
    15
100
AcDbCircle
 10
-138.5603402781
 20
37.2090692712
 30
0.0
 40
0.2299999999999617
100
AcDbArc
 50
344.9683923423
 51
54.6841961712
  0
ARC
  5
281
330
1F
100
AcDbEntity
  8
0
  6
Continuous
 62
     7
370
    15
100
AcDbCircle
 10
0.0
 20
0.0
 30
0.0
 40
143.2394487827059
100
AcDbArc
 50
164.9683923423
 51
165.2
  0
ARC
  5
282
330
1F
100
AcDbEntity
  8
0
  6
Continuous
 62
     7
370
    15
100
AcDbCircle
 10
-138.7096186333
 20
36.6486620849
 30
0.0
 40
0.2299999999999585
100
AcDbArc
 50
275.4841961712
 51
345.2
  0
LINE
  5
283
330
1F
100
AcDbEntity
  8
0
  6
Continuous
 62
     7
370
    15
100
AcDbLine
 10
-138.6876372596
 20
36.4197148875
 30
0.0
 11
-139.154757042
 21
36.3748664045
 31
0.0
  0
LINE
  5
284
330
1F
100
AcDbEntity
  8
0
  6
Continuous
 62
     7
370
    15
100
AcDbLine
 10
-139.154757042
 20
36.3748664045
 30
0.0
 11
-139.3226905572
 21
35.7262537817
 31
0.0
  0
LINE
  5
285
330
1F
100
AcDbEntity
  8
0
  6
Continuous
 62
     7
370
    15
100
AcDbLine
 10
-139.3226905572
 20
35.7262537817
 30
0.0
 11
-138.9360279945
 21
35.4603509045
 31
0.0
  0
ARC
  5
286
330
1F
100
AcDbEntity
  8
0
  6
Continuous
 62
     7
370
    15
100
AcDbCircle
 10
-139.0663537071
 20
35.2708378215
 30
0.0
 40
0.2299999999999533
100
AcDbArc
 50
345.7683923423
 51
55.4841961712
  0
ARC
  5
287
330
1F
100
AcDbEntity
  8
0
  6
Continuous
 62
     7
370
    15
100
AcDbCircle
 10
0.0
 20
0.0
 30
0.0
 40
143.2394487827059
100
AcDbArc
 50
165.7683923423
 51
166.0
  0
ARC
  5
288
330
1F
100
AcDbEntity
  8
0
  6
Continuous
 62
     7
370
    15
100
AcDbCircle
 10
-139.207793005
 20
34.7084010102
 30
0.0
 40
0.2299999999999294
100
AcDbArc
 50
276.2841961712
 51
346.0
  0
LINE
  5
289
330
1F
100
AcDbEntity
  8
0
  6
Continuous
 62
     7
370
    15
100
AcDbLine
 10
-139.182617172
 20
34.4797830375
 30
0.0
 11
-139.6490652387
 21
34.4284169155
 31
0.0
  0
LINE
  5
28A
330
1F
100
AcDbEntity
  8
0
  6
Continuous
 62
     7
370
    15
100
AcDbLine
 10
-139.6490652387
 20
34.4284169155
 30
0.0
 11
-139.807926338
 21
33.7775227988
 31
0.0
  0
LINE
  5
28B
330
1F
100
AcDbEntity
  8
0
  6
Continuous
 62
     7
370
    15
100
AcDbLine
 10
-139.807926338
 20
33.7775227988
 30
0.0
 11
-139.4175888817
 21
33.5170444932
 31
0.0
  0
ARC
  5
28C
330
1F
100
AcDbEntity
  8
0
  6
Continuous
 62
     7
370
    15
100
AcDbCircle
 10
-139.5452558749
 20
33.3257302521
 30
0.0
 40
0.2300000000000153
100
AcDbArc
 50
346.5683923423
 51
56.2841961712
  0
ARC
  5
28D
330
1F
100
AcDbEntity
  8
0
  6
Continuous
 62
     7
370
    15
100
AcDbCircle
 10
0.0
 20
0.0
 30
0.0
 40
143.2394487827058
100
AcDbArc
 50
166.5683923423
 51
166.8
  0
ARC
  5
28E
330
1F
100
AcDbEntity
  8
0
  6
Continuous
 62
     7
370
    15
100
AcDbCircle
 10
-139.6788285417
 20
32.7613734638
 30
0.0
 40
0.229999999999922
100
AcDbArc
 50
277.0841961712
 51
346.8
  0
LINE
  5
28F
330
1F
100
AcDbEntity
  8
0
  6
Continuous
 62
     7
370
    15
100
AcDbLine
 10
-139.6504631573
 20
32.5331292854
 30
0.0
 11
-140.1161485735
 21
32.4752555384
 31
0.0
  0
LINE
  5
290
330
1F
100
AcDbEntity
  8
0
  6
Continuous
 62
     7
370
    15
100
AcDbLine
 10
-140.1161485735
 20
32.4752555384
 30
0.0
 11
-140.2659062866
 21
31.822206821
 31
0.0
  0
LINE
  5
291
330
1F
100
AcDbEntity
  8
0
  6
Continuous
 62
     7
370
    15
100
AcDbLine
 10
-140.2659062866
 20
31.822206821
 30
0.0
 11
-139.8719700337
 21
31.5672038677
 31
0.0
  0
ARC
  5
292
330
1F
100
AcDbEntity
  8
0
  6
Continuous
 62
     7
370
    15
100
AcDbCircle
 10
-139.9969534185
 20
31.3741257655
 30
0.0
 40
0.2299999999999811
100
AcDbArc
 50
347.3683923423
 51
57.0841961712
  0
ARC
  5
293
330
1F
100
AcDbEntity
  8
0
  6
Continuous
 62
     7
370
    15
100
AcDbCircle
 10
0.0
 20
0.0
 30
0.0
 40
143.2394487827058
100
AcDbArc
 50
167.3683923423
 51
167.6
  0
ARC
  5
294
330
1F
100
AcDbEntity
  8
0
  6
Continuous
 62
     7
370
    15
100
AcDbCircle
 10
-140.122633414
 20
30.8079590228
 30
0.0
 40
0.2299999999999391
100
AcDbArc
 50
277.8841961712
 51
347.6
  0
LINE
  5
295
330
1F
100
AcDbEntity
  8
0
  6
Continuous
 62
     7
370
    15
100
AcDbLine
 10
-140.0910840081
 20
30.5801331354
 30
0.0
 11
-140.5559159875
 21
30.5157630459
 31
0.0
  0
LINE
  5
296
330
1F
100
AcDbEntity
  8
0
  6
Continuous
 62
     7
370
    15
100
AcDbLine
 10
-140.5559159875
 20
30.5157630459
 30
0.0
 11
-140.6965411189
 21
29.8606870408
 31
0.0
  0
LINE
  5
297
330
1F
100
AcDbEntity
  8
0
  6
Continuous
 62
     7
370
    15
100
AcDbLine
 10
-140.6965411189
 20
29.8606870408
 30
0.0
 11
-140.2990828681
 21
29.6112091532
 31
0.0
  0
ARC
  5
298
330
1F
100
AcDbEntity
  8
0
  6
Continuous
 62
     7
370
    15
100
AcDbCircle
 10
-140.4213582787
 20
29.416404831
 30
0.0
 40
0.2299999999999832
100
AcDbArc
 50
348.1683923423
 51
57.8841961712
  0
ARC
  5
299
330
1F
100
AcDbEntity
  8
0
  6
Continuous
 62
     7
370
    15
100
AcDbCircle
 10
0.0
 20
0.0
 30
0.0
 40
143.2394487827059
100
AcDbArc
 50
168.1683923423
 51
168.4
  0
ARC
  5
29A
330
1F
100
AcDbEntity
  8
0
  6
Continuous
 62
     7
370
    15
100
AcDbCircle
 10
-140.5391211012
 20
28.8485385092
 30
0.0
 40
0.2299999999999278
100
AcDbArc
 50
278.6841961712
 51
348.4
  0
LINE
  5
29B
330
1F
100
AcDbEntity
  8
0
  6
Continuous
 62
     7
370
    15
100
AcDbLine
 10
-140.5043938245
 20
28.6211753278
 30
0.0
 11
-140.9682817472
 21
28.5503214449
 31
0.0
  0
LINE
  5
29C
330
1F
100
AcDbEntity
  8
0
  6
Continuous
 62
     7
370
    15
100
AcDbLine
 10
-140.9682817472
 20
28.5503214449
 30
0.0
 11
-141.0997468817
 21
27.8933458606
 31
0.0
  0
LINE
  5
29D
330
1F
100
AcDbEntity
  8
0
  6
Continuous
 62
     7
370
    15
100
AcDbLine
 10
-141.0997468817
 20
27.8933458606
 30
0.0
 11
-140.6988441183
 21
27.6494416749
 31
0.0
  0
ARC
  5
29E
330
1F
100
AcDbEntity
  8
0
  6
Continuous
 62
     7
370
    15
100
AcDbCircle
 10
-140.8183877169
 20
27.45294911
 30
0.0
 40
0.2299999999999771
100
AcDbArc
 50
348.9683923423
 51
58.6841961712
  0
ARC
  5
29F
330
1F
100
AcDbEntity
  8
0
  6
Continuous
 62
     7
370
    15
100
AcDbCircle
 10
0.0
 20
0.0
 30
0.0
 40
143.2394487827058
100
AcDbArc
 50
168.9683923423
 51
169.2
  0
ARC
  5
2A0
330
1F
100
AcDbEntity
  8
0
  6
Continuous
 62
     7
370
    15
100
AcDbCircle
 10
-140.9282104083
 20
26.8834939158
 30
0.0
 40
0.229999999999928
100
AcDbArc
 50
279.4841961712
 51
349.2
  0
LINE
  5
2A1
330
1F
100
AcDbEntity
  8
0
  6
Continuous
 62
     7
370
    15
100
AcDbLine
 10
-140.890312031
 20
26.6566377653
 30
0.0
 11
-141.353165461
 21
26.5793139022
 31
0.0
  0
LINE
  5
2A2
330
1F
100
AcDbEntity
  8
0
  6
Continuous
 62
     7
370
    15
100
AcDbLine
 10
-141.353165461
 20
26.5793139022
 30
0.0
 11
-141.4754449692
 21
25.9205668173
 31
0.0
  0
LINE
  5
2A3
330
1F
100
AcDbEntity
  8
0
  6
Continuous
 62
     7
370
    15
100
AcDbLine
 10
-141.4754449692
 20
25.9205668173
 30
0.0
 11
-141.07117585
 21
25.682283883
 31
0.0
  0
ARC
  5
2A4
330
1F
100
AcDbEntity
  8
0
  6
Continuous
 62
     7
370
    15
100
AcDbCircle
 10
-141.1879643313
 20
25.4841413822
 30
0.0
 40
0.2300000000000081
100
AcDbArc
 50
349.7683923423
 51
59.4841961712
  0
ARC
  5
2A5
330
1F
100
AcDbEntity
  8
0
  6
Continuous
 62
     7
370
    15
100
AcDbCircle
 10
0.0
 20
0.0
 30
0.0
 40
143.2394487827059
100
AcDbArc
 50
169.7683923423
 51
170.0
  0
ARC
  5
2A6
330
1F
100
AcDbEntity
  8
0
  6
Continuous
 62
     7
370
    15
100
AcDbCircle
 10
-141.2898254816
 20
24.913208332
 30
0.0
 40
0.2299999999999265
100
AcDbArc
 50
280.2841961712
 51
350.0
  0
LINE
  5
2A7
330
1F
100
AcDbEntity
  8
0
  6
Continuous
 62
     7
370
    15
100
AcDbLine
 10
-141.248763392
 20
24.6869034386
 30
0.0
 11
-141.7104920952
 21
24.6031246695
 31
0.0
  0
LINE
  5
2A8
330
1F
100
AcDbEntity
  8
0
  6
Continuous
 62
     7
370
    15
100
AcDbLine
 10
-141.7104920952
 20
24.6031246695
 30
0.0
 11
-141.8235621384
 21
23.9427345081
 31
0.0
  0
LINE
  5
2A9
330
1F
100
AcDbEntity
  8
0
  6
Continuous
 62
     7
370
    15
100
AcDbLine
 10
-141.8235621384
 20
23.9427345081
 30
0.0
 11
-141.4160054765
 21
23.7101192791
 31
0.0
  0
ARC
  5
2AA
330
1F
100
AcDbEntity
  8
0
  6
Continuous
 62
     7
370
    15
100
AcDbCircle
 10
-141.5300160724
 20
23.5103654706
 30
0.0
 40
0.2299999999999542
100
AcDbArc
 50
350.5683923423
 51
60.2841961712
  0
ARC
  5
2AB
330
1F
100
AcDbEntity
  8
0
  6
Continuous
 62
     7
370
    15
100
AcDbCircle
 10
0.0
 20
0.0
 30
0.0
 40
143.2394487827058
100
AcDbArc
 50
170.5683923423
 51
170.8
  0
ARC
  5
2AC
330
1F
100
AcDbEntity
  8
0
  6
Continuous
 62
     7
370
    15
100
AcDbCircle
 10
-141.6238958234
 20
22.9380658689
 30
0.0
 40
0.2299999999999209
100
AcDbArc
 50
281.0841961712
 51
350.8
  0
LINE
  5
2AD
330
1F
100
AcDbEntity
  8
0
  6
Continuous
 62
     7
370
    15
100
AcDbLine
 10
-141.5796780267
 20
22.712356351
 30
0.0
 11
-142.0401919881
 21
22.622139009
 31
0.0
  0
LINE
  5
2AE
330
1F
100
AcDbEntity
  8
0
  6
Continuous
 62
     7
370
    15
100
AcDbLine
 10
-142.0401919881
 20
22.622139009
 30
0.0
 11
-142.1440305232
 21
21.9602345154
 31
0.0
  0
LINE
  5
2AF
330
1F
100
AcDbEntity
  8
0
  6
Continuous
 62
     7
370
    15
100
AcDbLine
 10
-142.1440305232
 20
21.9602345154
 30
0.0
 11
-141.7332657725
 21
21.7333323404
 31
0.0
  0
ARC
  5
2B0
330
1F
100
AcDbEntity
  8
0
  6
Continuous
 62
     7
370
    15
100
AcDbCircle
 10
-141.8444762564
 20
21.5320061666
 30
0.0
 40
0.2299999999999943
100
AcDbArc
 50
351.3683923423
 51
61.0841961712
  0
ARC
  5
2B1
330
1F
100
AcDbEntity
  8
0
  6
Continuous
 62
     7
370
    15
100
AcDbCircle
 10
0.0
 20
0.0
 30
0.0
 40
143.2394487827058
100
AcDbArc
 50
171.3683923423
 51
171.6
  0
ARC
  5
2B2
330
1F
100
AcDbEntity
  8
0
  6
Continuous
 62
     7
370
    15
100
AcDbCircle
 10
-141.9303563062
 20
20.9584515844
 30
0.0
 40
0.22999999999994
100
AcDbArc
 50
281.8841961712
 51
351.6
  0
LINE
  5
2B3
330
1F
100
AcDbEntity
  8
0
  6
Continuous
 62
     7
370
    15
100
AcDbLine
 10
-141.8829914226
 20
20.7333814446
 30
0.0
 11
-142.3422008642
 21
20.6367431177
 31
0.0
  0
LINE
  5
2B4
330
1F
100
AcDbEntity
  8
0
  6
Continuous
 62
     7
370
    15
100
AcDbLine
 10
-142.3422008642
 20
20.6367431177
 30
0.0
 11
-142.4367876476
 21
19.9734533315
 31
0.0
  0
LINE
  5
2B5
330
1F
100
AcDbEntity
  8
0
  6
Continuous
 62
     7
370
    15
100
AcDbLine
 10
-142.4367876476
 20
19.9734533315
 30
0.0
 11
-142.0228948875
 21
19.7523084456
 31
0.0
  0
ARC
  5
2B6
330
1F
100
AcDbEntity
  8
0
  6
Continuous
 62
     7
370
    15
100
AcDbCircle
 10
-142.1312835787
 20
19.5494491554
 30
0.0
 40
0.2299999999999814
100
AcDbArc
 50
352.1683923423
 51
61.8841961712
  0
ARC
  5
2B7
330
1F
100
AcDbEntity
  8
0
  6
Continuous
 62
     7
370
    15
100
AcDbCircle
 10
-93.2176952522
 20
79.0755596285
 30
0.0
 40
4.99999999999998
100
AcDbArc
 50
45.0
 51
139.6924197009
  0
LINE
  5
2B8
330
1F
100
AcDbEntity
  8
0
  6
Continuous
 62
     7
370
    15
100
AcDbLine
 10
-61.619793822
 20
54.5487260102
 30
0.0
 11
-89.6821613463
 21
82.6110935344
 31
0.0
  0
ARC
  5
2B9
330
1F
100
AcDbEntity
  8
0
  6
Continuous
 62
     7
370
    15
100
AcDbCircle
 10
-65.155327728
 20
51.0131921042
 30
0.0
 40
5.000000000000017
100
AcDbArc
 50
321.9409256108
 51
45.0
  0
ARC
  5
2BA
330
1F
100
AcDbEntity
  8
0
  6
Continuous
 62
     7
370
    15
100
AcDbCircle
 10
0.0
 20
0.0
 30
0.0
 40
77.74999999999997
100
AcDbArc
 50
141.9409256108
 51
154.9783479371
  0
ARC
  5
2BB
330
1F
100
AcDbEntity
  8
0
  6
Continuous
 62
     7
370
    15
100
AcDbCircle
 10
-74.9837482392
 20
35.0
 30
0.0
 40
5.000000000000008
100
AcDbArc
 50
270.0
 51
334.9783479371
  0
LINE
  5
2BC
330
1F
100
AcDbEntity
  8
0
  6
Continuous
 62
     7
370
    15
100
AcDbLine
 10
-117.1216582819
 20
30.0
 30
0.0
 11
-74.9837482392
 21
30.0
 31
0.0
  0
ARC
  5
2BD
330
1F
100
AcDbEntity
  8
0
  6
Continuous
 62
     7
370
    15
100
AcDbCircle
 10
-117.1216582819
 20
35.0
 30
0.0
 40
4.999999999999993
100
AcDbArc
 50
163.3620363269
 51
270.0
  0
ARC
  5
2BE
330
1F
100
AcDbEntity
  8
0
  6
Continuous
 62
     7
370
    15
100
AcDbCircle
 10
0.0
 20
0.0
 30
0.0
 40
127.2394487827058
100
AcDbArc
 50
139.6924197009
 51
163.3620363269
  0
ARC
  5
2BF
330
1F
100
AcDbEntity
  8
0
  6
Continuous
 62
     7
370
    15
100
AcDbCircle
 10
-52.0822666557
 20
35.0
 30
0.0
 40
5.0
100
AcDbArc
 50
146.0983560115
 51
270.0
  0
ARC
  5
2C0
330
1F
100
AcDbEntity
  8
0
  6
Continuous
 62
     7
370
    15
100
AcDbCircle
 10
0.0
 20
0.0
 30
0.0
 40
67.74999999999997
100
AcDbArc
 50
136.8730200996
 51
146.0983560115
  0
ARC
  5
2C1
330
1F
100
AcDbEntity
  8
0
  6
Continuous
 62
     7
370
    15
100
AcDbCircle
 10
-45.7974882498
 20
42.8969995455
 30
0.0
 40
5.000000000000006
100
AcDbArc
 50
0.0
 51
136.8730200996
  0
LINE
  5
2C2
330
1F
100
AcDbEntity
  8
0
  6
Continuous
 62
     7
370
    15
100
AcDbLine
 10
-40.7974882498
 20
35.0
 30
0.0
 11
-40.7974882498
 21
42.8969995455
 31
0.0
  0
ARC
  5
2C3
330
1F
100
AcDbEntity
  8
0
  6
Continuous
 62
     7
370
    15
100
AcDbCircle
 10
-45.7974882498
 20
35.0
 30
0.0
 40
5.000000000000004
100
AcDbArc
 50
270.0
 51
0.0
  0
LINE
  5
2C4
330
1F
100
AcDbEntity
  8
0
  6
Continuous
 62
     7
370
    15
100
AcDbLine
 10
-52.0822666557
 20
30.0
 30
0.0
 11
-45.7974882498
 21
30.0
 31
0.0
  0
ARC
  5
2C5
330
1F
100
AcDbEntity
  8
0
  6
Continuous
 62
     7
370
    15
100
AcDbCircle
 10
-15.0
 20
121.3156331175
 30
0.0
 40
5.0
100
AcDbArc
 50
0.0
 51
97.0485290195
  0
LINE
  5
2C6
330
1F
100
AcDbEntity
  8
0
  6
Continuous
 62
     7
370
    15
100
AcDbLine
 10
-10.0
 20
81.3791281595
 30
0.0
 11
-10.0
 21
121.3156331175
 31
0.0
  0
ARC
  5
2C7
330
1F
100
AcDbEntity
  8
0
  6
Continuous
 62
     7
370
    15
100
AcDbCircle
 10
-15.0
 20
81.3791281595
 30
0.0
 40
5.000000000000013
100
AcDbArc
 50
280.4436773252
 51
0.0
  0
ARC
  5
2C8
330
1F
100
AcDbEntity
  8
0
  6
Continuous
 62
     7
370
    15
100
AcDbCircle
 10
0.0
 20
0.0
 30
0.0
 40
77.74999999999999
100
AcDbArc
 50
100.4436773252
 51
128.0590743892
  0
ARC
  5
2C9
330
1F
100
AcDbEntity
  8
0
  6
Continuous
 62
     7
370
    15
100
AcDbCircle
 10
-51.0131921042
 20
65.155327728
 30
0.0
 40
5.000000000000045
100
AcDbArc
 50
225.0
 51
308.0590743892
  0
LINE
  5
2CA
330
1F
100
AcDbEntity
  8
0
  6
Continuous
 62
     7
370
    15
100
AcDbLine
 10
-82.6110935344
 20
89.6821613463
 30
0.0
 11
-54.5487260102
 21
61.619793822
 31
0.0
  0
ARC
  5
2CB
330
1F
100
AcDbEntity
  8
0
  6
Continuous
 62
     7
370
    15
100
AcDbCircle
 10
-79.0755596285
 20
93.2176952522
 30
0.0
 40
5.000000000000011
100
AcDbArc
 50
130.3075802991
 51
225.0
  0
ARC
  5
2CC
330
1F
100
AcDbEntity
  8
0
  6
Continuous
 62
     7
370
    15
100
AcDbCircle
 10
0.0
 20
0.0
 30
0.0
 40
127.2394487827058
100
AcDbArc
 50
97.0485290195
 51
130.3075802991
  0
CIRCLE
  5
2CD
330
1F
100
AcDbEntity
  8
0
  6
Continuous
 62
     7
370
    15
100
AcDbCircle
 10
0.0
 20
25.0
 30
0.0
 40
1.5
  0
CIRCLE
  5
2CE
330
1F
100
AcDbEntity
  8
0
  6
Continuous
 62
     7
370
    15
100
AcDbCircle
 10
-110.0
 20
25.0
 30
0.0
 40
1.499999999999996
  0
ENDSEC
  0
SECTION
  2
OBJECTS
  0
DICTIONARY
  5
C
330
0
100
AcDbDictionary
281
     1
  3
ACAD_GROUP
350
D
  3
ACAD_LAYOUT
350
1A
  3
ACAD_MATERIAL
350
3B
  3
ACAD_MLEADERSTYLE
350
2D0
  3
ACAD_MLINESTYLE
350
17
  3
ACAD_PLOTSETTINGS
350
19
  3
ACAD_PLOTSTYLENAME
350
E
  3
ACAD_TABLESTYLE
350
2CF
  3
ACAD_VISUALSTYLE
350
2A
  0
DICTIONARY
  5
D
102
{ACAD_REACTORS
330
C
102
}
330
C
100
AcDbDictionary
281
     1
  0
DICTIONARY
  5
1A
102
{ACAD_REACTORS
330
C
102
}
330
C
100
AcDbDictionary
281
     1
  3
Layout1
350
1E
  3
Layout2
350
26
  3
Model
350
22
  0
DICTIONARY
  5
3B
102
{ACAD_REACTORS
330
C
102
}
330
C
100
AcDbDictionary
281
     1
  3
ByBlock
350
3D
  3
ByLayer
350
3C
  3
Global
350
3E
  0
DICTIONARY
  5
2D0
102
{ACAD_REACTORS
330
C
102
}
330
C
100
AcDbDictionary
281
     1
  0
DICTIONARY
  5
17
102
{ACAD_REACTORS
330
C
102
}
330
C
100
AcDbDictionary
281
     1
  3
Standard
350
18
  0
DICTIONARY
  5
19
102
{ACAD_REACTORS
330
C
102
}
330
C
100
AcDbDictionary
281
     1
  0
ACDBDICTIONARYWDFLT
  5
E
102
{ACAD_REACTORS
330
C
102
}
330
C
100
AcDbDictionary
281
     1
  3
Normal
350
F
100
AcDbDictionaryWithDefault
340
F
  0
DICTIONARY
  5
2CF
102
{ACAD_REACTORS
330
C
102
}
330
C
100
AcDbDictionary
281
     1
  0
DICTIONARY
  5
2A
102
{ACAD_REACTORS
330
C
102
}
330
C
100
AcDbDictionary
281
     1
  3
2dWireframe
350
2F
  3
3D Hidden
350
31
  3
3dWireframe
350
30
  3
Basic
350
32
  3
Brighten
350
36
  3
ColorChange
350
3A
  3
Conceptual
350
34
  3
Dim
350
35
  3
Facepattern
350
39
  3
Flat
350
2B
  3
FlatWithEdges
350
2C
  3
Gouraud
350
2D
  3
GouraudWithEdges
350
2E
  3
Linepattern
350
38
  3
Realistic
350
33
  3
Thicken
350
37
  0
LAYOUT
  5
1E
102
{ACAD_REACTORS
330
1A
102
}
330
1A
100
AcDbPlotSettings
  1

  2
none_device
  4

  6

 40
0.0
 41
0.0
 42
0.0
 43
0.0
 44
0.0
 45
0.0
 46
0.0
 47
0.0
 48
0.0
 49
0.0
140
0.0
141
0.0
142
1.0
143
1.0
 70
   688
 72
     0
 73
     0
 74
     5
  7

 75
    16
 76
     0
 77
     2
 78
   300
147
1.0
148
0.0
149
0.0
100
AcDbLayout
  1
Layout1
 70
     1
 71
     1
 10
0.0
 20
0.0
 11
420.0
 21
297.0
 12
0.0
 22
0.0
 32
0.0
 14
1.0000000000E+20
 24
1.0000000000E+20
 34
1.0000000000E+20
 15
-1.0000000000E+20
 25
-1.0000000000E+20
 35
-1.0000000000E+20
146
0.0
 13
0.0
 23
0.0
 33
0.0
 16
1.0
 26
0.0
 36
0.0
 17
0.0
 27
1.0
 37
0.0
 76
     0
330
1B
  0
LAYOUT
  5
26
102
{ACAD_REACTORS
330
1A
102
}
330
1A
100
AcDbPlotSettings
  1

  2
none_device
  4

  6

 40
0.0
 41
0.0
 42
0.0
 43
0.0
 44
0.0
 45
0.0
 46
0.0
 47
0.0
 48
0.0
 49
0.0
140
0.0
141
0.0
142
1.0
143
1.0
 70
   688
 72
     0
 73
     0
 74
     5
  7

 75
    16
 76
     0
 77
     2
 78
   300
147
1.0
148
0.0
149
0.0
100
AcDbLayout
  1
Layout2
 70
     1
 71
     2
 10
0.0
 20
0.0
 11
0.0
 21
0.0
 12
0.0
 22
0.0
 32
0.0
 14
0.0
 24
0.0
 34
0.0
 15
0.0
 25
0.0
 35
0.0
146
0.0
 13
0.0
 23
0.0
 33
0.0
 16
1.0
 26
0.0
 36
0.0
 17
0.0
 27
1.0
 37
0.0
 76
     0
330
23
  0
LAYOUT
  5
22
102
{ACAD_REACTORS
330
1A
102
}
330
1A
100
AcDbPlotSettings
  1

  2
none_device
  4
ANSI_A_(11.00_x_8.50_Inches)
  6

 40
6.35
 41
19.05
 42
6.35000508
 43
19.05000254
 44
279.4
 45
215.9
 46
248.9249481843
 47
-51.5298344032
 48
0.0
 49
0.0
140
0.0
141
0.0
142
0.0676927051
143
1.0
 70
  1696
 72
     0
 73
     0
 74
     0
  7

 75
     0
 76
     0
 77
     2
 78
   300
147
0.0179189148
148
0.0
149
0.0
100
AcDbLayout
  1
Model
 70
     1
 71
     0
 10
0.0
 20
0.0
 11
420.0
 21
297.0
 12
0.0
 22
0.0
 32
0.0
 14
-142.4367876476
 24
19.5181088711
 34
0.0
 15
8.0
 25
143.8298790623
 35
0.0
146
0.0
 13
0.0
 23
0.0
 33
0.0
 16
1.0
 26
0.0
 36
0.0
 17
0.0
 27
1.0
 37
0.0
 76
     0
330
1F
331
29
  0
MATERIAL
  5
3D
102
{ACAD_REACTORS
330
3B
102
}
330
3B
100
AcDbMaterial
  1
ByBlock
 72
     1
 94
      127
  0
MATERIAL
  5
3C
102
{ACAD_REACTORS
330
3B
102
}
330
3B
100
AcDbMaterial
  1
ByLayer
 72
     1
 94
      127
  0
MATERIAL
  5
3E
102
{ACAD_REACTORS
330
3B
102
}
330
3B
100
AcDbMaterial
  1
Global
 72
     1
 94
      127
  0
MLINESTYLE
  5
18
102
{ACAD_REACTORS
330
17
102
}
330
17
100
AcDbMlineStyle
  2
Standard
 70
     0
  3

 62
   256
 51
90.0
 52
90.0
 71
     2
 49
0.5
 62
   256
  6
BYLAYER
 49
-0.5
 62
   256
  6
BYLAYER
  0
ACDBPLACEHOLDER
  5
F
102
{ACAD_REACTORS
330
E
102
}
330
E
  0
VISUALSTYLE
  5
2F
102
{ACAD_REACTORS
330
2A
102
}
330
2A
100
AcDbVisualStyle
  2
2dWireframe
 70
     4
177
     2
291
     0
 71
     0
176
     1
 72
     2
176
     1
 73
     0
176
     1
 90
        0
176
     1
 40
-0.6
176
     1
 41
-30.0
176
     1
 62
     5
 63
     7
421
 16777215
176
     1
 74
     1
176
     1
 91
        4
176
     1
 64
     7
176
     1
 65
   257
176
     1
 75
     1
176
     1
175
     1
176
     1
 42
1.0
176
     1
 92
        0
176
     1
 66
   257
176
     1
 43
1.0
176
     1
 76
     1
176
     1
 77
     6
176
     1
 78
     2
176
     1
 67
     7
176
     1
 79
     5
176
     1
170
     0
176
     1
171
     0
176
     1
290
     0
176
     1
 93
        1
176
     1
 44
0.0
176
     1
173
     0
176
     1
  0
VISUALSTYLE
  5
31
102
{ACAD_REACTORS
330
2A
102
}
330
2A
100
AcDbVisualStyle
  2
3D Hidden
 70
     6
177
     2
291
     0
 71
     1
176
     1
 72
     2
176
     1
 73
     2
176
     1
 90
        0
176
     1
 40
-0.6
176
     1
 41
-30.0
176
     1
 62
     5
 63
     7
421
 16777215
176
     1
 74
     2
176
     1
 91
        2
176
     1
 64
     7
176
     1
 65
   257
176
     1
 75
     2
176
     1
175
     1
176
     1
 42
40.0
176
     1
 92
        0
176
     1
 66
   257
176
     1
 43
1.0
176
     1
 76
     1
176
     1
 77
     6
176
     1
 78
     2
176
     1
 67
     7
176
     1
 79
     3
176
     1
170
     0
176
     1
171
     0
176
     1
290
     0
176
     1
 93
        1
176
     1
 44
0.0
176
     1
173
     0
176
     1
  0
VISUALSTYLE
  5
30
102
{ACAD_REACTORS
330
2A
102
}
330
2A
100
AcDbVisualStyle
  2
3dWireframe
 70
     5
177
     2
291
     0
 71
     0
176
     1
 72
     2
176
     1
 73
     0
176
     1
 90
        0
176
     1
 40
-0.6
176
     1
 41
-30.0
176
     1
 62
     5
 63
     7
421
 16777215
176
     1
 74
     1
176
     1
 91
        4
176
     1
 64
     7
176
     1
 65
   257
176
     1
 75
     1
176
     1
175
     1
176
     1
 42
1.0
176
     1
 92
        0
176
     1
 66
   257
176
     1
 43
1.0
176
     1
 76
     1
176
     1
 77
     6
176
     1
 78
     2
176
     1
 67
     7
176
     1
 79
     5
176
     1
170
     0
176
     1
171
     0
176
     1
290
     0
176
     1
 93
        1
176
     1
 44
0.0
176
     1
173
     0
176
     1
  0
VISUALSTYLE
  5
32
102
{ACAD_REACTORS
330
2A
102
}
330
2A
100
AcDbVisualStyle
  2
Basic
 70
     7
177
     2
291
     1
 71
     1
176
     1
 72
     0
176
     1
 73
     1
176
     1
 90
        0
176
     1
 40
-0.6
176
     1
 41
-30.0
176
     1
 62
     5
 63
     7
421
 16777215
176
     1
 74
     0
176
     1
 91
        4
176
     1
 64
     7
176
     1
 65
   257
176
     1
 75
     1
176
     1
175
     1
176
     1
 42
1.0
176
     1
 92
        8
176
     1
 66
     7
176
     1
 43
1.0
176
     1
 76
     1
176
     1
 77
     6
176
     1
 78
     2
176
     1
 67
     7
176
     1
 79
     5
176
     1
170
     0
176
     1
171
     0
176
     1
290
     0
176
     1
 93
        1
176
     1
 44
0.0
176
     1
173
     0
176
     1
  0
VISUALSTYLE
  5
36
102
{ACAD_REACTORS
330
2A
102
}
330
2A
100
AcDbVisualStyle
  2
Brighten
 70
    12
177
     2
291
     1
 71
     2
176
     1
 72
     2
176
     1
 73
     0
176
     1
 90
        0
176
     1
 40
-0.6
176
     1
 41
-30.0
176
     1
 62
     5
 63
     7
421
 16777215
176
     1
 74
     1
176
     1
 91
        4
176
     1
 64
     7
176
     1
 65
   257
176
     1
 75
     1
176
     1
175
     1
176
     1
 42
1.0
176
     1
 92
        8
176
     1
 66
     7
176
     1
 43
1.0
176
     1
 76
     1
176
     1
 77
     6
176
     1
 78
     2
176
     1
 67
     7
176
     1
 79
     5
176
     1
170
     0
176
     1
171
     0
176
     1
290
     0
176
     1
 93
        1
176
     1
 44
50.0
176
     1
173
     0
176
     1
  0
VISUALSTYLE
  5
3A
102
{ACAD_REACTORS
330
2A
102
}
330
2A
100
AcDbVisualStyle
  2
ColorChange
 70
    16
177
     2
291
     1
 71
     2
176
     1
 72
     2
176
     1
 73
     3
176
     1
 90
        0
176
     1
 40
-0.6
176
     1
 41
-30.0
176
     1
 62
     5
 63
     8
421
  8421504
176
     1
 74
     1
176
     1
 91
        4
176
     1
 64
     7
176
     1
 65
   257
176
     1
 75
     1
176
     1
175
     1
176
     1
 42
1.0
176
     1
 92
        8
176
     1
 66
     8
424
  8421504
176
     1
 43
1.0
176
     1
 76
     1
176
     1
 77
     6
176
     1
 78
     2
176
     1
 67
     7
176
     1
 79
     5
176
     1
170
     0
176
     1
171
     0
176
     1
290
     0
176
     1
 93
        1
176
     1
 44
0.0
176
     1
173
     0
176
     1
  0
VISUALSTYLE
  5
34
102
{ACAD_REACTORS
330
2A
102
}
330
2A
100
AcDbVisualStyle
  2
Conceptual
 70
     9
177
     2
291
     0
 71
     3
176
     1
 72
     2
176
     1
 73
     0
176
     1
 90
        0
176
     1
 40
-0.6
176
     1
 41
-30.0
176
     1
 62
     5
 63
     7
421
 16777215
176
     1
 74
     2
176
     1
 91
        2
176
     1
 64
     7
176
     1
 65
   257
176
     1
 75
     1
176
     1
175
     1
176
     1
 42
40.0
176
     1
 92
        8
176
     1
 66
     7
176
     1
 43
1.0
176
     1
 76
     1
176
     1
 77
     6
176
     1
 78
     2
176
     1
 67
     7
176
     1
 79
     3
176
     1
170
     0
176
     1
171
     0
176
     1
290
     0
176
     1
 93
        1
176
     1
 44
0.0
176
     1
173
     0
176
     1
  0
VISUALSTYLE
  5
35
102
{ACAD_REACTORS
330
2A
102
}
330
2A
100
AcDbVisualStyle
  2
Dim
 70
    11
177
     2
291
     1
 71
     2
176
     1
 72
     2
176
     1
 73
     0
176
     1
 90
        0
176
     1
 40
-0.6
176
     1
 41
-30.0
176
     1
 62
     5
 63
     7
421
 16777215
176
     1
 74
     1
176
     1
 91
        4
176
     1
 64
     7
176
     1
 65
   257
176
     1
 75
     1
176
     1
175
     1
176
     1
 42
1.0
176
     1
 92
        8
176
     1
 66
     7
176
     1
 43
1.0
176
     1
 76
     1
176
     1
 77
     6
176
     1
 78
     2
176
     1
 67
     7
176
     1
 79
     5
176
     1
170
     0
176
     1
171
     0
176
     1
290
     0
176
     1
 93
        1
176
     1
 44
-50.0
176
     1
173
     0
176
     1
  0
VISUALSTYLE
  5
39
102
{ACAD_REACTORS
330
2A
102
}
330
2A
100
AcDbVisualStyle
  2
Facepattern
 70
    15
177
     2
291
     1
 71
     2
176
     1
 72
     2
176
     1
 73
     0
176
     1
 90
        0
176
     1
 40
-0.6
176
     1
 41
-30.0
176
     1
 62
     5
 63
     7
421
 16777215
176
     1
 74
     1
176
     1
 91
        4
176
     1
 64
     7
176
     1
 65
   257
176
     1
 75
     1
176
     1
175
     1
176
     1
 42
1.0
176
     1
 92
        8
176
     1
 66
     7
176
     1
 43
1.0
176
     1
 76
     1
176
     1
 77
     6
176
     1
 78
     2
176
     1
 67
     7
176
     1
 79
     5
176
     1
170
     0
176
     1
171
     0
176
     1
290
     0
176
     1
 93
        1
176
     1
 44
0.0
176
     1
173
     0
176
     1
  0
VISUALSTYLE
  5
2B
102
{ACAD_REACTORS
330
2A
102
}
330
2A
100
AcDbVisualStyle
  2
Flat
 70
     0
177
     2
291
     1
 71
     2
176
     1
 72
     1
176
     1
 73
     1
176
     1
 90
        2
176
     1
 40
-0.6
176
     1
 41
30.0
176
     1
 62
     5
 63
     7
421
 16777215
176
     1
 74
     0
176
     1
 91
        4
176
     1
 64
     7
176
     1
 65
   257
176
     1
 75
     1
176
     1
175
     1
176
     1
 42
1.0
176
     1
 92
        8
176
     1
 66
     7
176
     1
 43
1.0
176
     1
 76
     1
176
     1
 77
     6
176
     1
 78
     2
176
     1
 67
     7
176
     1
 79
     5
176
     1
170
     0
176
     1
171
     0
176
     1
290
     0
176
     1
 93
       13
176
     1
 44
0.0
176
     1
173
     0
176
     1
  0
VISUALSTYLE
  5
2C
102
{ACAD_REACTORS
330
2A
102
}
330
2A
100
AcDbVisualStyle
  2
FlatWithEdges
 70
     1
177
     2
291
     1
 71
     2
176
     1
 72
     1
176
     1
 73
     1
176
     1
 90
        2
176
     1
 40
-0.6
176
     1
 41
30.0
176
     1
 62
     5
 63
     7
421
 16777215
176
     1
 74
     1
176
     1
 91
        4
176
     1
 64
     7
176
     1
 65
   257
176
     1
 75
     1
176
     1
175
     1
176
     1
 42
1.0
176
     1
 92
        0
176
     1
 66
   257
176
     1
 43
1.0
176
     1
 76
     1
176
     1
 77
     6
176
     1
 78
     2
176
     1
 67
     7
176
     1
 79
     5
176
     1
170
     0
176
     1
171
     0
176
     1
290
     0
176
     1
 93
       13
176
     1
 44
0.0
176
     1
173
     0
176
     1
  0
VISUALSTYLE
  5
2D
102
{ACAD_REACTORS
330
2A
102
}
330
2A
100
AcDbVisualStyle
  2
Gouraud
 70
     2
177
     2
291
     1
 71
     2
176
     1
 72
     2
176
     1
 73
     1
176
     1
 90
        2
176
     1
 40
-0.6
176
     1
 41
30.0
176
     1
 62
     5
 63
     7
421
 16777215
176
     1
 74
     0
176
     1
 91
        4
176
     1
 64
     7
176
     1
 65
   257
176
     1
 75
     1
176
     1
175
     1
176
     1
 42
1.0
176
     1
 92
        0
176
     1
 66
     7
176
     1
 43
1.0
176
     1
 76
     1
176
     1
 77
     6
176
     1
 78
     2
176
     1
 67
     7
176
     1
 79
     5
176
     1
170
     0
176
     1
171
     0
176
     1
290
     0
176
     1
 93
       13
176
     1
 44
0.0
176
     1
173
     0
176
     1
  0
VISUALSTYLE
  5
2E
102
{ACAD_REACTORS
330
2A
102
}
330
2A
100
AcDbVisualStyle
  2
GouraudWithEdges
 70
     3
177
     2
291
     1
 71
     2
176
     1
 72
     2
176
     1
 73
     1
176
     1
 90
        2
176
     1
 40
-0.6
176
     1
 41
30.0
176
     1
 62
     5
 63
     7
421
 16777215
176
     1
 74
     1
176
     1
 91
        4
176
     1
 64
     7
176
     1
 65
   257
176
     1
 75
     1
176
     1
175
     1
176
     1
 42
1.0
176
     1
 92
        0
176
     1
 66
   257
176
     1
 43
1.0
176
     1
 76
     1
176
     1
 77
     6
176
     1
 78
     2
176
     1
 67
     7
176
     1
 79
     5
176
     1
170
     0
176
     1
171
     0
176
     1
290
     0
176
     1
 93
       13
176
     1
 44
0.0
176
     1
173
     0
176
     1
  0
VISUALSTYLE
  5
38
102
{ACAD_REACTORS
330
2A
102
}
330
2A
100
AcDbVisualStyle
  2
Linepattern
 70
    14
177
     2
291
     1
 71
     2
176
     1
 72
     2
176
     1
 73
     0
176
     1
 90
        0
176
     1
 40
-0.6
176
     1
 41
-30.0
176
     1
 62
     5
 63
     7
421
 16777215
176
     1
 74
     1
176
     1
 91
        4
176
     1
 64
     7
176
     1
 65
   257
176
     1
 75
     7
176
     1
175
     7
176
     1
 42
1.0
176
     1
 92
        8
176
     1
 66
     7
176
     1
 43
1.0
176
     1
 76
     1
176
     1
 77
     6
176
     1
 78
     2
176
     1
 67
     7
176
     1
 79
     5
176
     1
170
     0
176
     1
171
     0
176
     1
290
     0
176
     1
 93
        1
176
     1
 44
0.0
176
     1
173
     0
176
     1
  0
VISUALSTYLE
  5
33
102
{ACAD_REACTORS
330
2A
102
}
330
2A
100
AcDbVisualStyle
  2
Realistic
 70
     8
177
     2
291
     0
 71
     2
176
     1
 72
     2
176
     1
 73
     0
176
     1
 90
        0
176
     1
 40
-0.6
176
     1
 41
-30.0
176
     1
 62
     5
 63
     7
421
 16777215
176
     1
 74
     1
176
     1
 91
        0
176
     1
 64
     7
176
     1
 65
   257
176
     1
 75
     1
176
     1
175
     1
176
     1
 42
1.0
176
     1
 92
        8
176
     1
 66
     8
424
  7895160
176
     1
 43
1.0
176
     1
 76
     1
176
     1
 77
     6
176
     1
 78
     2
176
     1
 67
     7
176
     1
 79
     5
176
     1
170
     0
176
     1
171
     0
176
     1
290
     0
176
     1
 93
       13
176
     1
 44
0.0
176
     1
173
     0
176
     1
  0
VISUALSTYLE
  5
37
102
{ACAD_REACTORS
330
2A
102
}
330
2A
100
AcDbVisualStyle
  2
Thicken
 70
    13
177
     2
291
     1
 71
     2
176
     1
 72
     2
176
     1
 73
     0
176
     1
 90
        0
176
     1
 40
-0.6
176
     1
 41
-30.0
176
     1
 62
     5
 63
     7
421
 16777215
176
     1
 74
     1
176
     1
 91
        4
176
     1
 64
     7
176
     1
 65
   257
176
     1
 75
     1
176
     1
175
     1
176
     1
 42
1.0
176
     1
 92
       12
176
     1
 66
     7
176
     1
 43
1.0
176
     1
 76
     1
176
     1
 77
     6
176
     1
 78
     2
176
     1
 67
     7
176
     1
 79
     5
176
     1
170
     0
176
     1
171
     0
176
     1
290
     0
176
     1
 93
        1
176
     1
 44
0.0
176
     1
173
     0
176
     1
  0
ENDSEC
  0
EOF
