<?xml version="1.0" encoding="UTF-8" standalone="no"?>
<svg
   xmlns:dc="http://purl.org/dc/elements/1.1/"
   xmlns:cc="http://creativecommons.org/ns#"
   xmlns:rdf="http://www.w3.org/1999/02/22-rdf-syntax-ns#"
   xmlns:svg="http://www.w3.org/2000/svg"
   xmlns="http://www.w3.org/2000/svg"
   xmlns:sodipodi="http://sodipodi.sourceforge.net/DTD/sodipodi-0.dtd"
   xmlns:inkscape="http://www.inkscape.org/namespaces/inkscape"
   width="1280.4352"
   height="1607.6029"
   id="svg2"
   version="1.1"
   inkscape:version="0.48.4 r9939"
   sodipodi:docname="Side 2.DXF">
  <metadata
     id="metadata409">
    <rdf:RDF>
      <cc:Work
         rdf:about="">
        <dc:format>image/svg+xml</dc:format>
        <dc:type
           rdf:resource="http://purl.org/dc/dcmitype/StillImage" />
        <dc:title></dc:title>
      </cc:Work>
    </rdf:RDF>
  </metadata>
  <sodipodi:namedview
     pagecolor="#ffffff"
     bordercolor="#666666"
     borderopacity="1"
     objecttolerance="10"
     gridtolerance="10"
     guidetolerance="10"
     inkscape:pageopacity="0"
     inkscape:pageshadow="2"
     inkscape:window-width="1280"
     inkscape:window-height="753"
     id="namedview407"
     showgrid="false"
     fit-margin-top="0"
     fit-margin-left="0"
     fit-margin-right="0"
     fit-margin-bottom="0"
     inkscape:zoom="0.22425739"
     inkscape:cx="1012.2649"
     inkscape:cy="1741.5979"
     inkscape:window-x="0"
     inkscape:window-y="25"
     inkscape:window-maximized="1"
     inkscape:current-layer="g21" />
  <desc
     id="desc4">/home/tyler/Theta/DXFs/Side 2.DXF - scale = 1.000000</desc>
  <defs
     id="defs6">
    <marker
       id="DistanceX"
       orient="auto"
       refX="0"
       refY="0"
       style="overflow:visible">
      <path
         d="M 3,-3 -3,3 M 0,-5 0,5"
         style="stroke:#000000;stroke-width:0.5"
         id="path9"
         inkscape:connector-curvature="0" />
    </marker>
    <pattern
       height="8"
       id="Hatch"
       patternUnits="userSpaceOnUse"
       width="8"
       x="0"
       y="0">
      <path
         d="M8 4 l-4,4"
         linecap="square"
         stroke="#000000"
         stroke-width="0.25"
         id="path12" />
      <path
         d="M6 2 l-4,4"
         linecap="square"
         stroke="#000000"
         stroke-width="0.25"
         id="path14" />
      <path
         d="M4 0 l-4,4"
         linecap="square"
         stroke="#000000"
         stroke-width="0.25"
         id="path16" />
    </pattern>
    <symbol
       id="*Model_Space" />
    <symbol
       id="*Paper_Space" />
    <symbol
       id="*Paper_Space0" />
  </defs>
  <g
     inkscape:groupmode="layer"
     inkscape:label="0"
     id="g21"
     transform="translate(640.21762,-660.17608)">
    <path
       d="m 602.36221,2123.6244 0,37.7929"
       style="fill:none;stroke:#ff0000;stroke-width:0.1;stroke-linecap:round"
       id="path23"
       inkscape:connector-curvature="0" />
    <path
       d="m 621.25866,2123.6244 -18.89645,0"
       style="fill:none;stroke:#ff0000;stroke-width:0.1;stroke-linecap:round"
       id="path25"
       inkscape:connector-curvature="0" />
    <path
       d="m 621.25866,2123.6244 0,37.7929"
       style="fill:none;stroke:#ff0000;stroke-width:0.1;stroke-linecap:round"
       id="path27"
       inkscape:connector-curvature="0" />
    <path
       d="m 621.25866,2161.4173 -18.89645,0"
       style="fill:none;stroke:#ff0000;stroke-width:0.1;stroke-linecap:round"
       id="path29"
       inkscape:connector-curvature="0" />
    <path
       d="m 640.15512,2267.7165 -144.09213,0"
       style="fill:none;stroke:#ff0000;stroke-width:0.1;stroke-linecap:round"
       id="path31"
       inkscape:connector-curvature="0" />
    <path
       d="m 640.15512,698.0315 0,1569.685"
       style="fill:none;stroke:#ff0000;stroke-width:0.1;stroke-linecap:round"
       id="path33"
       inkscape:connector-curvature="0" />
    <path
       d="M 640.15512,698.0315 A 37.792913,37.792913 0 0 0 602.36221,660.23858"
       style="fill:none;stroke:#ff0000;stroke-width:0.1;stroke-linecap:round"
       id="path35"
       inkscape:connector-curvature="0" />
    <path
       d="m -602.36221,660.23858 1204.72442,0"
       style="fill:none;stroke:#ff0000;stroke-width:0.1;stroke-linecap:round"
       id="path37"
       inkscape:connector-curvature="0" />
    <path
       d="m -602.36221,660.23858 a 37.792913,37.792913 0 0 0 -37.79291,37.79292"
       style="fill:none;stroke:#ff0000;stroke-width:0.1;stroke-linecap:round"
       id="path39"
       inkscape:connector-curvature="0" />
    <path
       d="m -640.15512,698.0315 0,1569.685"
       style="fill:none;stroke:#ff0000;stroke-width:0.1;stroke-linecap:round"
       id="path41"
       inkscape:connector-curvature="0" />
    <path
       d="m -640.15512,2267.7165 144.09213,0"
       style="fill:none;stroke:#ff0000;stroke-width:0.1;stroke-linecap:round"
       id="path43"
       inkscape:connector-curvature="0" />
    <path
       d="m -398.03031,2169.6839 a 98.032677,98.032677 0 0 0 -98.03268,98.0326"
       style="fill:none;stroke:#ff0000;stroke-width:0.1;stroke-linecap:round"
       id="path45"
       inkscape:connector-curvature="0" />
    <path
       d="m 398.03031,2169.6839 -796.06062,0"
       style="fill:none;stroke:#ff0000;stroke-width:0.1;stroke-linecap:round"
       id="path47"
       inkscape:connector-curvature="0" />
    <path
       d="m 496.06299,2267.7165 a 98.032677,98.032677 0 0 0 -98.03268,-98.0326"
       style="fill:none;stroke:#ff0000;stroke-width:0.1;stroke-linecap:round"
       id="path49"
       inkscape:connector-curvature="0" />
    <path
       d="m 602.36221,1514.7673 0,37.7929"
       style="fill:none;stroke:#ff0000;stroke-width:0.1;stroke-linecap:round"
       id="path51"
       inkscape:connector-curvature="0" />
    <path
       d="m 621.25866,1514.7673 -18.89645,0"
       style="fill:none;stroke:#ff0000;stroke-width:0.1;stroke-linecap:round"
       id="path53"
       inkscape:connector-curvature="0" />
    <path
       d="m 621.25866,1514.7673 0,37.7929"
       style="fill:none;stroke:#ff0000;stroke-width:0.1;stroke-linecap:round"
       id="path55"
       inkscape:connector-curvature="0" />
    <path
       d="m 621.25866,1552.5602 -18.89645,0"
       style="fill:none;stroke:#ff0000;stroke-width:0.1;stroke-linecap:round"
       id="path57"
       inkscape:connector-curvature="0" />
    <path
       d="m 602.36221,1984.252 0,37.7929"
       style="fill:none;stroke:#ff0000;stroke-width:0.1;stroke-linecap:round"
       id="path59"
       inkscape:connector-curvature="0" />
    <path
       d="m 621.25866,1984.252 -18.89645,0"
       style="fill:none;stroke:#ff0000;stroke-width:0.1;stroke-linecap:round"
       id="path61"
       inkscape:connector-curvature="0" />
    <path
       d="m 621.25866,1984.252 0,37.7929"
       style="fill:none;stroke:#ff0000;stroke-width:0.1;stroke-linecap:round"
       id="path63"
       inkscape:connector-curvature="0" />
    <path
       d="m 621.25866,2022.0449 -18.89645,0"
       style="fill:none;stroke:#ff0000;stroke-width:0.1;stroke-linecap:round"
       id="path65"
       inkscape:connector-curvature="0" />
    <path
       d="m 602.36221,908.27008 0,37.79291"
       style="fill:none;stroke:#ff0000;stroke-width:0.1;stroke-linecap:round"
       id="path67"
       inkscape:connector-curvature="0" />
    <path
       d="m 621.25866,908.27008 -18.89645,0"
       style="fill:none;stroke:#ff0000;stroke-width:0.1;stroke-linecap:round"
       id="path69"
       inkscape:connector-curvature="0" />
    <path
       d="m 621.25866,908.27008 0,37.79291"
       style="fill:none;stroke:#ff0000;stroke-width:0.1;stroke-linecap:round"
       id="path71"
       inkscape:connector-curvature="0" />
    <path
       d="m 621.25866,946.06299 -18.89645,0"
       style="fill:none;stroke:#ff0000;stroke-width:0.1;stroke-linecap:round"
       id="path73"
       inkscape:connector-curvature="0" />
    <path
       d="m 602.36221,1375.3949 0,37.7929"
       style="fill:none;stroke:#ff0000;stroke-width:0.1;stroke-linecap:round"
       id="path75"
       inkscape:connector-curvature="0" />
    <path
       d="m 621.25866,1375.3949 -18.89645,0"
       style="fill:none;stroke:#ff0000;stroke-width:0.1;stroke-linecap:round"
       id="path77"
       inkscape:connector-curvature="0" />
    <path
       d="m 621.25866,1375.3949 0,37.7929"
       style="fill:none;stroke:#ff0000;stroke-width:0.1;stroke-linecap:round"
       id="path79"
       inkscape:connector-curvature="0" />
    <path
       d="m 621.25866,1413.1878 -18.89645,0"
       style="fill:none;stroke:#ff0000;stroke-width:0.1;stroke-linecap:round"
       id="path81"
       inkscape:connector-curvature="0" />
    <path
       d="m 602.36221,768.89764 0,37.79291"
       style="fill:none;stroke:#ff0000;stroke-width:0.1;stroke-linecap:round"
       id="path83"
       inkscape:connector-curvature="0" />
    <path
       d="m 621.25866,768.89764 -18.89645,0"
       style="fill:none;stroke:#ff0000;stroke-width:0.1;stroke-linecap:round"
       id="path85"
       inkscape:connector-curvature="0" />
    <path
       d="m 621.25866,768.89764 0,37.79291"
       style="fill:none;stroke:#ff0000;stroke-width:0.1;stroke-linecap:round"
       id="path87"
       inkscape:connector-curvature="0" />
    <path
       d="m 621.25866,806.69055 -18.89645,0"
       style="fill:none;stroke:#ff0000;stroke-width:0.1;stroke-linecap:round"
       id="path89"
       inkscape:connector-curvature="0" />
    <path
       d="m -602.36221,806.69055 0,-37.79291"
       style="fill:none;stroke:#ff0000;stroke-width:0.1;stroke-linecap:round"
       id="path91"
       inkscape:connector-curvature="0" />
    <path
       d="m -621.25866,806.69055 18.89645,0"
       style="fill:none;stroke:#ff0000;stroke-width:0.1;stroke-linecap:round"
       id="path93"
       inkscape:connector-curvature="0" />
    <path
       d="m -621.25866,768.89764 0,37.79291"
       style="fill:none;stroke:#ff0000;stroke-width:0.1;stroke-linecap:round"
       id="path95"
       inkscape:connector-curvature="0" />
    <path
       d="m -621.25866,768.89764 18.89645,0"
       style="fill:none;stroke:#ff0000;stroke-width:0.1;stroke-linecap:round"
       id="path97"
       inkscape:connector-curvature="0" />
    <path
       d="m -621.25866,908.27008 18.89645,0"
       style="fill:none;stroke:#ff0000;stroke-width:0.1;stroke-linecap:round"
       id="path99"
       inkscape:connector-curvature="0" />
    <path
       d="m -602.36221,908.27008 0,37.79291"
       style="fill:none;stroke:#ff0000;stroke-width:0.1;stroke-linecap:round"
       id="path101"
       inkscape:connector-curvature="0" />
    <path
       d="m -621.25866,946.06299 18.89645,0"
       style="fill:none;stroke:#ff0000;stroke-width:0.1;stroke-linecap:round"
       id="path103"
       inkscape:connector-curvature="0" />
    <path
       d="m -621.25866,908.27008 0,37.79291"
       style="fill:none;stroke:#ff0000;stroke-width:0.1;stroke-linecap:round"
       id="path105"
       inkscape:connector-curvature="0" />
    <path
       d="m -621.25866,1375.3949 18.89645,0"
       style="fill:none;stroke:#ff0000;stroke-width:0.1;stroke-linecap:round"
       id="path107"
       inkscape:connector-curvature="0" />
    <path
       d="m -602.36221,1375.3949 0,37.7929"
       style="fill:none;stroke:#ff0000;stroke-width:0.1;stroke-linecap:round"
       id="path109"
       inkscape:connector-curvature="0" />
    <path
       d="m -621.25866,1413.1878 18.89645,0"
       style="fill:none;stroke:#ff0000;stroke-width:0.1;stroke-linecap:round"
       id="path111"
       inkscape:connector-curvature="0" />
    <path
       d="m -621.25866,1375.3949 0,37.7929"
       style="fill:none;stroke:#ff0000;stroke-width:0.1;stroke-linecap:round"
       id="path113"
       inkscape:connector-curvature="0" />
    <path
       d="m -621.25866,1514.7673 18.89645,0"
       style="fill:none;stroke:#ff0000;stroke-width:0.1;stroke-linecap:round"
       id="path115"
       inkscape:connector-curvature="0" />
    <path
       d="m -602.36221,1514.7673 0,37.7929"
       style="fill:none;stroke:#ff0000;stroke-width:0.1;stroke-linecap:round"
       id="path117"
       inkscape:connector-curvature="0" />
    <path
       d="m -621.25866,1552.5602 18.89645,0"
       style="fill:none;stroke:#ff0000;stroke-width:0.1;stroke-linecap:round"
       id="path119"
       inkscape:connector-curvature="0" />
    <path
       d="m -621.25866,1514.7673 0,37.7929"
       style="fill:none;stroke:#ff0000;stroke-width:0.1;stroke-linecap:round"
       id="path121"
       inkscape:connector-curvature="0" />
    <path
       d="m -621.25866,1984.252 18.89645,0"
       style="fill:none;stroke:#ff0000;stroke-width:0.1;stroke-linecap:round"
       id="path123"
       inkscape:connector-curvature="0" />
    <path
       d="m -602.36221,1984.252 0,37.7929"
       style="fill:none;stroke:#ff0000;stroke-width:0.1;stroke-linecap:round"
       id="path125"
       inkscape:connector-curvature="0" />
    <path
       d="m -621.25866,2022.0449 18.89645,0"
       style="fill:none;stroke:#ff0000;stroke-width:0.1;stroke-linecap:round"
       id="path127"
       inkscape:connector-curvature="0" />
    <path
       d="m -621.25866,1984.252 0,37.7929"
       style="fill:none;stroke:#ff0000;stroke-width:0.1;stroke-linecap:round"
       id="path129"
       inkscape:connector-curvature="0" />
    <path
       d="m -621.25866,2123.6244 18.89645,0"
       style="fill:none;stroke:#ff0000;stroke-width:0.1;stroke-linecap:round"
       id="path131"
       inkscape:connector-curvature="0" />
    <path
       d="m -602.36221,2123.6244 0,37.7929"
       style="fill:none;stroke:#ff0000;stroke-width:0.1;stroke-linecap:round"
       id="path133"
       inkscape:connector-curvature="0" />
    <path
       d="m -621.25866,2161.4173 18.89645,0"
       style="fill:none;stroke:#ff0000;stroke-width:0.1;stroke-linecap:round"
       id="path135"
       inkscape:connector-curvature="0" />
    <path
       d="m -621.25866,2123.6244 0,37.7929"
       style="fill:none;stroke:#ff0000;stroke-width:0.1;stroke-linecap:round"
       id="path137"
       inkscape:connector-curvature="0" />
    <path
       d="m 441.68486,688.58327 a 5.314961,5.314961 0 1 0 -10.62992,0 5.314961,5.314961 0 1 0 10.62992,0 z"
       style="fill:none;stroke:#ff0000;stroke-width:0.1;stroke-linecap:round"
       id="path139"
       inkscape:connector-curvature="0" />
    <path
       d="m 441.68486,1042.914 a 5.314961,5.314961 0 1 0 -10.62992,0 5.314961,5.314961 0 1 0 10.62992,0 z"
       style="fill:none;stroke:#ff0000;stroke-width:0.1;stroke-linecap:round"
       id="path141"
       inkscape:connector-curvature="0" />
    <path
       d="m 441.68486,2081.103 a 5.314961,5.314961 0 1 0 -10.62992,0 5.314961,5.314961 0 1 0 10.62992,0 z"
       style="fill:none;stroke:#ff0000;stroke-width:0.1;stroke-linecap:round"
       id="path143"
       inkscape:connector-curvature="0" />
    <path
       d="m 460.62992,1113.7783 -921.25984,0"
       style="fill:none;stroke:#ff0000;stroke-width:0.1;stroke-linecap:round"
       id="path145"
       inkscape:connector-curvature="0" />
    <path
       d="m 496.06299,1149.2114 a 35.433071,35.433071 0 0 0 -35.43307,-35.4331"
       style="fill:none;stroke:#ff0000;stroke-width:0.1;stroke-linecap:round"
       id="path147"
       inkscape:connector-curvature="0" />
    <path
       d="m 496.06299,1149.2114 0,869.2937"
       style="fill:none;stroke:#ff0000;stroke-width:0.1;stroke-linecap:round"
       id="path149"
       inkscape:connector-curvature="0" />
    <path
       d="m 460.62992,2053.9382 a 35.433071,35.433071 0 0 0 35.43307,-35.4331"
       style="fill:none;stroke:#ff0000;stroke-width:0.1;stroke-linecap:round"
       id="path151"
       inkscape:connector-curvature="0" />
    <path
       d="m -460.62992,2053.9382 921.25984,0"
       style="fill:none;stroke:#ff0000;stroke-width:0.1;stroke-linecap:round"
       id="path153"
       inkscape:connector-curvature="0" />
    <path
       d="m -496.06299,2018.5051 a 35.433071,35.433071 0 0 0 35.43307,35.4331"
       style="fill:none;stroke:#ff0000;stroke-width:0.1;stroke-linecap:round"
       id="path155"
       inkscape:connector-curvature="0" />
    <path
       d="m -496.06299,1149.2114 0,869.2937"
       style="fill:none;stroke:#ff0000;stroke-width:0.1;stroke-linecap:round"
       id="path157"
       inkscape:connector-curvature="0" />
    <path
       d="m -460.62992,1113.7783 a 35.433071,35.433071 0 0 0 -35.43307,35.4331"
       style="fill:none;stroke:#ff0000;stroke-width:0.1;stroke-linecap:round"
       id="path159"
       inkscape:connector-curvature="0" />
    <path
       d="m -431.05494,2124.8026 a 5.314961,5.314961 0 1 0 -10.62992,0 5.314961,5.314961 0 1 0 10.62992,0 z"
       style="fill:none;stroke:#ff0000;stroke-width:0.1;stroke-linecap:round"
       id="path161"
       inkscape:connector-curvature="0" />
    <path
       d="m -431.05494,2081.103 a 5.314961,5.314961 0 1 0 -10.62992,0 5.314961,5.314961 0 1 0 10.62992,0 z"
       style="fill:none;stroke:#ff0000;stroke-width:0.1;stroke-linecap:round"
       id="path163"
       inkscape:connector-curvature="0" />
    <path
       d="m -431.05494,1086.6136 a 5.314961,5.314961 0 1 0 -10.62992,0 5.314961,5.314961 0 1 0 10.62992,0 z"
       style="fill:none;stroke:#ff0000;stroke-width:0.1;stroke-linecap:round"
       id="path165"
       inkscape:connector-curvature="0" />
    <path
       d="m -431.05494,1042.914 a 5.314961,5.314961 0 1 0 -10.62992,0 5.314961,5.314961 0 1 0 10.62992,0 z"
       style="fill:none;stroke:#ff0000;stroke-width:0.1;stroke-linecap:round"
       id="path167"
       inkscape:connector-curvature="0" />
    <path
       d="m -431.05494,732.28287 a 5.314961,5.314961 0 1 0 -10.62992,0 5.314961,5.314961 0 1 0 10.62992,0 z"
       style="fill:none;stroke:#ff0000;stroke-width:0.1;stroke-linecap:round"
       id="path169"
       inkscape:connector-curvature="0" />
    <path
       d="m -374.36203,2115.3543 0,18.8965"
       style="fill:none;stroke:#ff0000;stroke-width:0.1;stroke-linecap:round"
       id="path171"
       inkscape:connector-curvature="0" />
    <path
       d="m -374.36203,2134.2508 -37.79291,0"
       style="fill:none;stroke:#ff0000;stroke-width:0.1;stroke-linecap:round"
       id="path173"
       inkscape:connector-curvature="0" />
    <path
       d="m -412.15494,2115.3543 0,18.8965"
       style="fill:none;stroke:#ff0000;stroke-width:0.1;stroke-linecap:round"
       id="path175"
       inkscape:connector-curvature="0" />
    <path
       d="m -412.15494,2115.3543 37.79291,0"
       style="fill:none;stroke:#ff0000;stroke-width:0.1;stroke-linecap:round"
       id="path177"
       inkscape:connector-curvature="0" />
    <path
       d="m -460.58486,2115.3543 0,18.8965"
       style="fill:none;stroke:#ff0000;stroke-width:0.1;stroke-linecap:round"
       id="path179"
       inkscape:connector-curvature="0" />
    <path
       d="m -460.58486,2134.2508 -37.79291,0"
       style="fill:none;stroke:#ff0000;stroke-width:0.1;stroke-linecap:round"
       id="path181"
       inkscape:connector-curvature="0" />
    <path
       d="m -498.37777,2115.3543 0,18.8965"
       style="fill:none;stroke:#ff0000;stroke-width:0.1;stroke-linecap:round"
       id="path183"
       inkscape:connector-curvature="0" />
    <path
       d="m -498.37777,2115.3543 37.79291,0"
       style="fill:none;stroke:#ff0000;stroke-width:0.1;stroke-linecap:round"
       id="path185"
       inkscape:connector-curvature="0" />
    <path
       d="m -374.36203,1077.1654 0,18.8964"
       style="fill:none;stroke:#ff0000;stroke-width:0.1;stroke-linecap:round"
       id="path187"
       inkscape:connector-curvature="0" />
    <path
       d="m -374.36203,1096.0618 -37.79291,0"
       style="fill:none;stroke:#ff0000;stroke-width:0.1;stroke-linecap:round"
       id="path189"
       inkscape:connector-curvature="0" />
    <path
       d="m -412.15494,1077.1654 0,18.8964"
       style="fill:none;stroke:#ff0000;stroke-width:0.1;stroke-linecap:round"
       id="path191"
       inkscape:connector-curvature="0" />
    <path
       d="m -412.15494,1077.1654 37.79291,0"
       style="fill:none;stroke:#ff0000;stroke-width:0.1;stroke-linecap:round"
       id="path193"
       inkscape:connector-curvature="0" />
    <path
       d="m -460.58486,1077.1654 0,18.8964"
       style="fill:none;stroke:#ff0000;stroke-width:0.1;stroke-linecap:round"
       id="path195"
       inkscape:connector-curvature="0" />
    <path
       d="m -460.58486,1096.0618 -37.79291,0"
       style="fill:none;stroke:#ff0000;stroke-width:0.1;stroke-linecap:round"
       id="path197"
       inkscape:connector-curvature="0" />
    <path
       d="m -498.37777,1077.1654 0,18.8964"
       style="fill:none;stroke:#ff0000;stroke-width:0.1;stroke-linecap:round"
       id="path199"
       inkscape:connector-curvature="0" />
    <path
       d="m -498.37777,1077.1654 37.79291,0"
       style="fill:none;stroke:#ff0000;stroke-width:0.1;stroke-linecap:round"
       id="path201"
       inkscape:connector-curvature="0" />
    <path
       d="m -374.36203,722.83465 0,18.89645"
       style="fill:none;stroke:#ff0000;stroke-width:0.1;stroke-linecap:round"
       id="path203"
       inkscape:connector-curvature="0" />
    <path
       d="m -374.36203,741.7311 -37.79291,0"
       style="fill:none;stroke:#ff0000;stroke-width:0.1;stroke-linecap:round"
       id="path205"
       inkscape:connector-curvature="0" />
    <path
       d="m -412.15494,722.83465 0,18.89645"
       style="fill:none;stroke:#ff0000;stroke-width:0.1;stroke-linecap:round"
       id="path207"
       inkscape:connector-curvature="0" />
    <path
       d="m -412.15494,722.83465 37.79291,0"
       style="fill:none;stroke:#ff0000;stroke-width:0.1;stroke-linecap:round"
       id="path209"
       inkscape:connector-curvature="0" />
    <path
       d="m -460.58486,722.83465 0,18.89645"
       style="fill:none;stroke:#ff0000;stroke-width:0.1;stroke-linecap:round"
       id="path211"
       inkscape:connector-curvature="0" />
    <path
       d="m -460.58486,741.7311 -37.79291,0"
       style="fill:none;stroke:#ff0000;stroke-width:0.1;stroke-linecap:round"
       id="path213"
       inkscape:connector-curvature="0" />
    <path
       d="m -498.37777,722.83465 0,18.89645"
       style="fill:none;stroke:#ff0000;stroke-width:0.1;stroke-linecap:round"
       id="path215"
       inkscape:connector-curvature="0" />
    <path
       d="m -498.37777,722.83465 37.79291,0"
       style="fill:none;stroke:#ff0000;stroke-width:0.1;stroke-linecap:round"
       id="path217"
       inkscape:connector-curvature="0" />
    <path
       d="m -460.58486,679.13504 0,18.89646"
       style="fill:none;stroke:#ff0000;stroke-width:0.1;stroke-linecap:round"
       id="path219"
       inkscape:connector-curvature="0" />
    <path
       d="m -460.58486,698.0315 -37.79291,0"
       style="fill:none;stroke:#ff0000;stroke-width:0.1;stroke-linecap:round"
       id="path221"
       inkscape:connector-curvature="0" />
    <path
       d="m -498.37777,679.13504 0,18.89646"
       style="fill:none;stroke:#ff0000;stroke-width:0.1;stroke-linecap:round"
       id="path223"
       inkscape:connector-curvature="0" />
    <path
       d="m -498.37777,679.13504 37.79291,0"
       style="fill:none;stroke:#ff0000;stroke-width:0.1;stroke-linecap:round"
       id="path225"
       inkscape:connector-curvature="0" />
    <path
       d="m -374.36203,679.13504 0,18.89646"
       style="fill:none;stroke:#ff0000;stroke-width:0.1;stroke-linecap:round"
       id="path227"
       inkscape:connector-curvature="0" />
    <path
       d="m -374.36203,698.0315 -37.79291,0"
       style="fill:none;stroke:#ff0000;stroke-width:0.1;stroke-linecap:round"
       id="path229"
       inkscape:connector-curvature="0" />
    <path
       d="m -412.15494,679.13504 0,18.89646"
       style="fill:none;stroke:#ff0000;stroke-width:0.1;stroke-linecap:round"
       id="path231"
       inkscape:connector-curvature="0" />
    <path
       d="m -412.15494,679.13504 37.79291,0"
       style="fill:none;stroke:#ff0000;stroke-width:0.1;stroke-linecap:round"
       id="path233"
       inkscape:connector-curvature="0" />
    <path
       d="m -460.58486,1033.4657 0,18.8965"
       style="fill:none;stroke:#ff0000;stroke-width:0.1;stroke-linecap:round"
       id="path235"
       inkscape:connector-curvature="0" />
    <path
       d="m -460.58486,1052.3622 -37.79291,0"
       style="fill:none;stroke:#ff0000;stroke-width:0.1;stroke-linecap:round"
       id="path237"
       inkscape:connector-curvature="0" />
    <path
       d="m -498.37777,1033.4657 0,18.8965"
       style="fill:none;stroke:#ff0000;stroke-width:0.1;stroke-linecap:round"
       id="path239"
       inkscape:connector-curvature="0" />
    <path
       d="m -498.37777,1033.4657 37.79291,0"
       style="fill:none;stroke:#ff0000;stroke-width:0.1;stroke-linecap:round"
       id="path241"
       inkscape:connector-curvature="0" />
    <path
       d="m -374.36203,1033.4657 0,18.8965"
       style="fill:none;stroke:#ff0000;stroke-width:0.1;stroke-linecap:round"
       id="path243"
       inkscape:connector-curvature="0" />
    <path
       d="m -374.36203,1052.3622 -37.79291,0"
       style="fill:none;stroke:#ff0000;stroke-width:0.1;stroke-linecap:round"
       id="path245"
       inkscape:connector-curvature="0" />
    <path
       d="m -412.15494,1033.4657 0,18.8965"
       style="fill:none;stroke:#ff0000;stroke-width:0.1;stroke-linecap:round"
       id="path247"
       inkscape:connector-curvature="0" />
    <path
       d="m -412.15494,1033.4657 37.79291,0"
       style="fill:none;stroke:#ff0000;stroke-width:0.1;stroke-linecap:round"
       id="path249"
       inkscape:connector-curvature="0" />
    <path
       d="m -460.58486,2071.6547 0,18.8965"
       style="fill:none;stroke:#ff0000;stroke-width:0.1;stroke-linecap:round"
       id="path251"
       inkscape:connector-curvature="0" />
    <path
       d="m -460.58486,2090.5512 -37.79291,0"
       style="fill:none;stroke:#ff0000;stroke-width:0.1;stroke-linecap:round"
       id="path253"
       inkscape:connector-curvature="0" />
    <path
       d="m -498.37777,2071.6547 0,18.8965"
       style="fill:none;stroke:#ff0000;stroke-width:0.1;stroke-linecap:round"
       id="path255"
       inkscape:connector-curvature="0" />
    <path
       d="m -498.37777,2071.6547 37.79291,0"
       style="fill:none;stroke:#ff0000;stroke-width:0.1;stroke-linecap:round"
       id="path257"
       inkscape:connector-curvature="0" />
    <path
       d="m -374.36203,2071.6547 0,18.8965"
       style="fill:none;stroke:#ff0000;stroke-width:0.1;stroke-linecap:round"
       id="path259"
       inkscape:connector-curvature="0" />
    <path
       d="m -374.36203,2090.5512 -37.79291,0"
       style="fill:none;stroke:#ff0000;stroke-width:0.1;stroke-linecap:round"
       id="path261"
       inkscape:connector-curvature="0" />
    <path
       d="m -412.15494,2071.6547 0,18.8965"
       style="fill:none;stroke:#ff0000;stroke-width:0.1;stroke-linecap:round"
       id="path263"
       inkscape:connector-curvature="0" />
    <path
       d="m -412.15494,2071.6547 37.79291,0"
       style="fill:none;stroke:#ff0000;stroke-width:0.1;stroke-linecap:round"
       id="path265"
       inkscape:connector-curvature="0" />
    <path
       d="m 374.36203,2115.3543 0,18.8965"
       style="fill:none;stroke:#ff0000;stroke-width:0.1;stroke-linecap:round"
       id="path267"
       inkscape:connector-curvature="0" />
    <path
       d="m 412.15494,2115.3543 -37.79291,0"
       style="fill:none;stroke:#ff0000;stroke-width:0.1;stroke-linecap:round"
       id="path269"
       inkscape:connector-curvature="0" />
    <path
       d="m 412.15494,2115.3543 0,18.8965"
       style="fill:none;stroke:#ff0000;stroke-width:0.1;stroke-linecap:round"
       id="path271"
       inkscape:connector-curvature="0" />
    <path
       d="m 374.36203,2134.2508 37.79291,0"
       style="fill:none;stroke:#ff0000;stroke-width:0.1;stroke-linecap:round"
       id="path273"
       inkscape:connector-curvature="0" />
    <path
       d="m 374.36203,2071.6547 0,18.8965"
       style="fill:none;stroke:#ff0000;stroke-width:0.1;stroke-linecap:round"
       id="path275"
       inkscape:connector-curvature="0" />
    <path
       d="m 412.15494,2071.6547 -37.79291,0"
       style="fill:none;stroke:#ff0000;stroke-width:0.1;stroke-linecap:round"
       id="path277"
       inkscape:connector-curvature="0" />
    <path
       d="m 412.15494,2071.6547 0,18.8965"
       style="fill:none;stroke:#ff0000;stroke-width:0.1;stroke-linecap:round"
       id="path279"
       inkscape:connector-curvature="0" />
    <path
       d="m 374.36203,2090.5512 37.79291,0"
       style="fill:none;stroke:#ff0000;stroke-width:0.1;stroke-linecap:round"
       id="path281"
       inkscape:connector-curvature="0" />
    <path
       d="m 498.37777,2071.6547 -37.79291,0"
       style="fill:none;stroke:#ff0000;stroke-width:0.1;stroke-linecap:round"
       id="path283"
       inkscape:connector-curvature="0" />
    <path
       d="m 498.37777,2071.6547 0,18.8965"
       style="fill:none;stroke:#ff0000;stroke-width:0.1;stroke-linecap:round"
       id="path285"
       inkscape:connector-curvature="0" />
    <path
       d="m 460.58486,2090.5512 37.79291,0"
       style="fill:none;stroke:#ff0000;stroke-width:0.1;stroke-linecap:round"
       id="path287"
       inkscape:connector-curvature="0" />
    <path
       d="m 460.58486,2071.6547 0,18.8965"
       style="fill:none;stroke:#ff0000;stroke-width:0.1;stroke-linecap:round"
       id="path289"
       inkscape:connector-curvature="0" />
    <path
       d="m 498.37777,2115.3543 -37.79291,0"
       style="fill:none;stroke:#ff0000;stroke-width:0.1;stroke-linecap:round"
       id="path291"
       inkscape:connector-curvature="0" />
    <path
       d="m 498.37777,2115.3543 0,18.8965"
       style="fill:none;stroke:#ff0000;stroke-width:0.1;stroke-linecap:round"
       id="path293"
       inkscape:connector-curvature="0" />
    <path
       d="m 460.58486,2134.2508 37.79291,0"
       style="fill:none;stroke:#ff0000;stroke-width:0.1;stroke-linecap:round"
       id="path295"
       inkscape:connector-curvature="0" />
    <path
       d="m 460.58486,2115.3543 0,18.8965"
       style="fill:none;stroke:#ff0000;stroke-width:0.1;stroke-linecap:round"
       id="path297"
       inkscape:connector-curvature="0" />
    <path
       d="m 374.36203,1077.1654 0,18.8964"
       style="fill:none;stroke:#ff0000;stroke-width:0.1;stroke-linecap:round"
       id="path299"
       inkscape:connector-curvature="0" />
    <path
       d="m 412.15494,1077.1654 -37.79291,0"
       style="fill:none;stroke:#ff0000;stroke-width:0.1;stroke-linecap:round"
       id="path301"
       inkscape:connector-curvature="0" />
    <path
       d="m 412.15494,1077.1654 0,18.8964"
       style="fill:none;stroke:#ff0000;stroke-width:0.1;stroke-linecap:round"
       id="path303"
       inkscape:connector-curvature="0" />
    <path
       d="m 374.36203,1096.0618 37.79291,0"
       style="fill:none;stroke:#ff0000;stroke-width:0.1;stroke-linecap:round"
       id="path305"
       inkscape:connector-curvature="0" />
    <path
       d="m 374.36203,722.83465 0,18.89645"
       style="fill:none;stroke:#ff0000;stroke-width:0.1;stroke-linecap:round"
       id="path307"
       inkscape:connector-curvature="0" />
    <path
       d="m 412.15494,722.83465 -37.79291,0"
       style="fill:none;stroke:#ff0000;stroke-width:0.1;stroke-linecap:round"
       id="path309"
       inkscape:connector-curvature="0" />
    <path
       d="m 412.15494,722.83465 0,18.89645"
       style="fill:none;stroke:#ff0000;stroke-width:0.1;stroke-linecap:round"
       id="path311"
       inkscape:connector-curvature="0" />
    <path
       d="m 374.36203,741.7311 37.79291,0"
       style="fill:none;stroke:#ff0000;stroke-width:0.1;stroke-linecap:round"
       id="path313"
       inkscape:connector-curvature="0" />
    <path
       d="m 374.36203,1033.4657 0,18.8965"
       style="fill:none;stroke:#ff0000;stroke-width:0.1;stroke-linecap:round"
       id="path315"
       inkscape:connector-curvature="0" />
    <path
       d="m 412.15494,1033.4657 -37.79291,0"
       style="fill:none;stroke:#ff0000;stroke-width:0.1;stroke-linecap:round"
       id="path317"
       inkscape:connector-curvature="0" />
    <path
       d="m 412.15494,1033.4657 0,18.8965"
       style="fill:none;stroke:#ff0000;stroke-width:0.1;stroke-linecap:round"
       id="path319"
       inkscape:connector-curvature="0" />
    <path
       d="m 374.36203,1052.3622 37.79291,0"
       style="fill:none;stroke:#ff0000;stroke-width:0.1;stroke-linecap:round"
       id="path321"
       inkscape:connector-curvature="0" />
    <path
       d="m 374.36203,679.13504 0,18.89646"
       style="fill:none;stroke:#ff0000;stroke-width:0.1;stroke-linecap:round"
       id="path323"
       inkscape:connector-curvature="0" />
    <path
       d="m 412.15494,679.13504 -37.79291,0"
       style="fill:none;stroke:#ff0000;stroke-width:0.1;stroke-linecap:round"
       id="path325"
       inkscape:connector-curvature="0" />
    <path
       d="m 412.15494,679.13504 0,18.89646"
       style="fill:none;stroke:#ff0000;stroke-width:0.1;stroke-linecap:round"
       id="path327"
       inkscape:connector-curvature="0" />
    <path
       d="m 374.36203,698.0315 37.79291,0"
       style="fill:none;stroke:#ff0000;stroke-width:0.1;stroke-linecap:round"
       id="path329"
       inkscape:connector-curvature="0" />
    <path
       d="m 498.37777,1033.4657 -37.79291,0"
       style="fill:none;stroke:#ff0000;stroke-width:0.1;stroke-linecap:round"
       id="path331"
       inkscape:connector-curvature="0" />
    <path
       d="m 498.37777,1033.4657 0,18.8965"
       style="fill:none;stroke:#ff0000;stroke-width:0.1;stroke-linecap:round"
       id="path333"
       inkscape:connector-curvature="0" />
    <path
       d="m 460.58486,1052.3622 37.79291,0"
       style="fill:none;stroke:#ff0000;stroke-width:0.1;stroke-linecap:round"
       id="path335"
       inkscape:connector-curvature="0" />
    <path
       d="m 460.58486,1033.4657 0,18.8965"
       style="fill:none;stroke:#ff0000;stroke-width:0.1;stroke-linecap:round"
       id="path337"
       inkscape:connector-curvature="0" />
    <path
       d="m 498.37777,679.13504 -37.79291,0"
       style="fill:none;stroke:#ff0000;stroke-width:0.1;stroke-linecap:round"
       id="path339"
       inkscape:connector-curvature="0" />
    <path
       d="m 498.37777,679.13504 0,18.89646"
       style="fill:none;stroke:#ff0000;stroke-width:0.1;stroke-linecap:round"
       id="path341"
       inkscape:connector-curvature="0" />
    <path
       d="m 460.58486,698.0315 37.79291,0"
       style="fill:none;stroke:#ff0000;stroke-width:0.1;stroke-linecap:round"
       id="path343"
       inkscape:connector-curvature="0" />
    <path
       d="m 460.58486,679.13504 0,18.89646"
       style="fill:none;stroke:#ff0000;stroke-width:0.1;stroke-linecap:round"
       id="path345"
       inkscape:connector-curvature="0" />
    <path
       d="m 498.37777,722.83465 -37.79291,0"
       style="fill:none;stroke:#ff0000;stroke-width:0.1;stroke-linecap:round"
       id="path347"
       inkscape:connector-curvature="0" />
    <path
       d="m 498.37777,722.83465 0,18.89645"
       style="fill:none;stroke:#ff0000;stroke-width:0.1;stroke-linecap:round"
       id="path349"
       inkscape:connector-curvature="0" />
    <path
       d="m 460.58486,741.7311 37.79291,0"
       style="fill:none;stroke:#ff0000;stroke-width:0.1;stroke-linecap:round"
       id="path351"
       inkscape:connector-curvature="0" />
    <path
       d="m 460.58486,722.83465 0,18.89645"
       style="fill:none;stroke:#ff0000;stroke-width:0.1;stroke-linecap:round"
       id="path353"
       inkscape:connector-curvature="0" />
    <path
       d="m 498.37777,1077.1654 -37.79291,0"
       style="fill:none;stroke:#ff0000;stroke-width:0.1;stroke-linecap:round"
       id="path355"
       inkscape:connector-curvature="0" />
    <path
       d="m 498.37777,1077.1654 0,18.8964"
       style="fill:none;stroke:#ff0000;stroke-width:0.1;stroke-linecap:round"
       id="path357"
       inkscape:connector-curvature="0" />
    <path
       d="m 460.58486,1096.0618 37.79291,0"
       style="fill:none;stroke:#ff0000;stroke-width:0.1;stroke-linecap:round"
       id="path359"
       inkscape:connector-curvature="0" />
    <path
       d="m 460.58486,1077.1654 0,18.8964"
       style="fill:none;stroke:#ff0000;stroke-width:0.1;stroke-linecap:round"
       id="path361"
       inkscape:connector-curvature="0" />
    <path
       d="m -431.05494,688.58327 a 5.314961,5.314961 0 1 0 -10.62992,0 5.314961,5.314961 0 1 0 10.62992,0 z"
       style="fill:none;stroke:#ff0000;stroke-width:0.1;stroke-linecap:round"
       id="path363"
       inkscape:connector-curvature="0" />
    <path
       d="m 460.62992,759.44764 -921.25984,0"
       style="fill:none;stroke:#ff0000;stroke-width:0.1;stroke-linecap:round"
       id="path365"
       inkscape:connector-curvature="0" />
    <path
       d="M 496.06299,794.88071 A 35.433071,35.433071 0 0 0 460.62992,759.44764"
       style="fill:none;stroke:#ff0000;stroke-width:0.1;stroke-linecap:round"
       id="path367"
       inkscape:connector-curvature="0" />
    <path
       d="m 496.06299,794.88071 0,185.43543"
       style="fill:none;stroke:#ff0000;stroke-width:0.1;stroke-linecap:round"
       id="path369"
       inkscape:connector-curvature="0" />
    <path
       d="m 460.62992,1015.7492 a 35.433071,35.433071 0 0 0 35.43307,-35.43306"
       style="fill:none;stroke:#ff0000;stroke-width:0.1;stroke-linecap:round"
       id="path371"
       inkscape:connector-curvature="0" />
    <path
       d="m -460.62992,1015.7492 921.25984,0"
       style="fill:none;stroke:#ff0000;stroke-width:0.1;stroke-linecap:round"
       id="path373"
       inkscape:connector-curvature="0" />
    <path
       d="m -496.06299,980.31614 a 35.433071,35.433071 0 0 0 35.43307,35.43306"
       style="fill:none;stroke:#ff0000;stroke-width:0.1;stroke-linecap:round"
       id="path375"
       inkscape:connector-curvature="0" />
    <path
       d="m -496.06299,794.88071 0,185.43543"
       style="fill:none;stroke:#ff0000;stroke-width:0.1;stroke-linecap:round"
       id="path377"
       inkscape:connector-curvature="0" />
    <path
       d="m -460.62992,759.44764 a 35.433071,35.433071 0 0 0 -35.43307,35.43307"
       style="fill:none;stroke:#ff0000;stroke-width:0.1;stroke-linecap:round"
       id="path379"
       inkscape:connector-curvature="0" />
    <path
       d="m 441.68486,2124.8026 a 5.314961,5.314961 0 1 0 -10.62992,0 5.314961,5.314961 0 1 0 10.62992,0 z"
       style="fill:none;stroke:#ff0000;stroke-width:0.1;stroke-linecap:round"
       id="path381"
       inkscape:connector-curvature="0" />
    <path
       d="m 441.68486,1086.6136 a 5.314961,5.314961 0 1 0 -10.62992,0 5.314961,5.314961 0 1 0 10.62992,0 z"
       style="fill:none;stroke:#ff0000;stroke-width:0.1;stroke-linecap:round"
       id="path383"
       inkscape:connector-curvature="0" />
    <path
       d="m 441.68486,732.28287 a 5.314961,5.314961 0 1 0 -10.62992,0 5.314961,5.314961 0 1 0 10.62992,0 z"
       style="fill:none;stroke:#ff0000;stroke-width:0.1;stroke-linecap:round"
       id="path385"
       inkscape:connector-curvature="0" />
    <path
       d="m -200.7874,1059.4488 401.5748,0"
       style="fill:none;stroke:#ff0000;stroke-width:0.1;stroke-linecap:round"
       id="path387"
       inkscape:connector-curvature="0" />
    <path
       d="m 200.7874,1070.0787 a 5.314961,5.314961 0 0 0 0,-10.6299"
       style="fill:none;stroke:#ff0000;stroke-width:0.1;stroke-linecap:round"
       id="path389"
       inkscape:connector-curvature="0" />
    <path
       d="m -200.7874,1070.0787 401.5748,0"
       style="fill:none;stroke:#ff0000;stroke-width:0.1;stroke-linecap:round"
       id="path391"
       inkscape:connector-curvature="0" />
    <path
       d="m -200.7874,1059.4488 a 5.314961,5.314961 0 0 0 0,10.6299"
       style="fill:none;stroke:#ff0000;stroke-width:0.1;stroke-linecap:round"
       id="path393"
       inkscape:connector-curvature="0" />
    <path
       d="m -606.49547,2072.8346 a 5.314961,5.314961 0 1 0 -10.62992,0 5.314961,5.314961 0 1 0 10.62992,0 z"
       style="fill:none;stroke:#ff0000;stroke-width:0.1;stroke-linecap:round"
       id="path395"
       inkscape:connector-curvature="0" />
    <path
       d="m -606.49547,1463.9776 a 5.314961,5.314961 0 1 0 -10.62992,0 5.314961,5.314961 0 1 0 10.62992,0 z"
       style="fill:none;stroke:#ff0000;stroke-width:0.1;stroke-linecap:round"
       id="path397"
       inkscape:connector-curvature="0" />
    <path
       d="m -606.49547,857.48032 a 5.314961,5.314961 0 1 0 -10.62992,0 5.314961,5.314961 0 1 0 10.62992,0 z"
       style="fill:none;stroke:#ff0000;stroke-width:0.1;stroke-linecap:round"
       id="path399"
       inkscape:connector-curvature="0" />
    <path
       d="m 617.12539,2072.8346 a 5.314961,5.314961 0 1 0 -10.62992,0 5.314961,5.314961 0 1 0 10.62992,0 z"
       style="fill:none;stroke:#ff0000;stroke-width:0.1;stroke-linecap:round"
       id="path401"
       inkscape:connector-curvature="0" />
    <path
       d="m 617.12539,1463.9776 a 5.314961,5.314961 0 1 0 -10.62992,0 5.314961,5.314961 0 1 0 10.62992,0 z"
       style="fill:none;stroke:#ff0000;stroke-width:0.1;stroke-linecap:round"
       id="path403"
       inkscape:connector-curvature="0" />
    <path
       d="m 617.12539,857.48032 a 5.314961,5.314961 0 1 0 -10.62992,0 5.314961,5.314961 0 1 0 10.62992,0 z"
       style="fill:none;stroke:#ff0000;stroke-width:0.1;stroke-linecap:round"
       id="path405"
       inkscape:connector-curvature="0" />
  </g>
</svg>
